<svg width="296" height="344" viewBox="0 0 296 344" fill="none" xmlns="http://www.w3.org/2000/svg">
<path d="M148.01 5.37642C110.585 51.7617 62.2687 69.8756 3.40842 58.4434C2.05664 210.267 72.0788 281.989 148.049 339.729C223.208 282.723 294.504 209.804 292.535 58.5593C231.396 69.9142 185.783 52.3025 148.01 5.37642Z" fill="white"/>
<path d="M148.01 5.37642C110.585 51.7617 62.2687 69.8756 3.40842 58.4434C2.05664 210.267 72.0788 281.989 148.049 339.729C223.208 282.723 294.504 209.804 292.535 58.5593C231.396 69.9142 185.783 52.3025 148.01 5.37642Z" stroke="#8E0927" stroke-width="2.58951" stroke-miterlimit="2.6131"/>
<path d="M260.324 175.662C243.755 221.082 211.042 268.278 147.933 319.607C85.5966 268.548 52.8836 220.966 36.1602 175.662H260.324Z" fill="#00613C"/>
<path d="M19.6685 77.0592C96.3723 77.8703 118.426 62.3828 147.972 29.5539C179.874 61.4172 201.039 78.0248 276.313 77.0592C276.004 107.223 273.069 137.426 262.834 168.401H33.6111C23.1058 137.078 20.0161 106.76 19.6685 77.0592Z" fill="#870A28"/>
<path d="M111.937 83.7023C114.486 84.5134 119.623 82.7754 122.404 88.1825C123.794 90.886 126.266 93.8599 127.077 99.576L142.951 97.1042C141.213 90.8474 142.449 90.6929 140.904 85.8265C150.714 84.8996 160.253 82.7754 169.137 78.0634C173.501 81.6939 177.363 84.7837 182.538 86.8693C162.841 97.8767 164.85 106.798 166.317 112.63L174.08 121.822C173.771 102.55 186.169 90.2681 201.618 86.5217C191.074 80.8056 180.878 74.3557 171.261 66.7471C153.688 72.9267 132.021 79.9173 122.906 73.0812L111.937 83.7023Z" fill="white"/>
<path d="M96.1018 128.581C96.0632 129.199 109.388 121.861 112.671 123.445L111.435 115.875C127.038 108.884 142.912 105.949 164.502 109.541C164.656 106.142 164.54 103.593 166.085 100.194C158.902 98.9195 151.756 98.6491 144.418 98.0698C139.32 98.5332 131.789 99.3443 126.266 101.082C120.743 102.82 114.756 105.176 109.697 105.678C104.599 106.18 102.165 104.558 97.5308 103.4C93.7072 107.803 91.4671 109.734 85.7124 114.87C90.3857 113.789 97.3763 115.45 96.3721 126.148L96.1018 128.581Z" fill="white"/>
<path d="M179.912 102.589C195.091 108.227 195.477 102.936 202.004 102.395L205.866 109.927C185.821 115.875 176.436 139.743 191.151 153.338C176.822 156.119 168.326 138.276 179.758 116.531C180.414 115.257 179.68 113.248 180.453 111.974L176.204 110.854C176.977 107.571 178.445 105.717 179.912 102.589Z" fill="white"/>
<path d="M188.757 124.487C187.096 127.075 185.628 130.551 185.435 134.413C193.237 137.117 197.678 141.481 200.729 151.871C200.807 152.18 200.961 152.489 201.077 152.797C205.017 162.955 224.559 163.226 227.958 159.788C228.808 155.849 227.649 153.415 224.096 152.411C220.002 152.45 220.465 156.544 216.719 155.54C212.123 153.918 209.574 151.909 208.493 148.047C206.832 142.292 210.115 136.074 218.921 133.988L214.518 127.925C205.789 128.465 197.022 128.465 188.757 124.487Z" fill="white"/>
<path d="M176.784 121.011L174.775 120.471L174.389 122.325L173.462 122.711L170.875 119.582C162.146 118.54 153.456 118.462 144.727 119.389L144.187 129.508C154.499 128.697 164.502 129.122 173.81 130.783C174.544 127.307 175.2 124.063 176.784 121.011Z" fill="white"/>
<path d="M126.42 112.514L125.725 163.303L140.517 162.569L141.213 154.458L152.143 153.763L153.919 155.54C146.156 176.898 150.636 189.836 167.321 194.316L167.669 192.192C156.623 184.429 155.001 164.809 169.445 154.458L164.849 145.305C156.275 143.026 148.049 149.244 141.213 144.61L143.684 109.695C138.316 110.159 132.523 109.927 126.42 112.514Z" fill="white"/>
<path d="M107.727 208.414L105.951 221.816C125.996 226.141 147.972 227.145 173.656 218.301C186.71 213.821 199.378 209.032 212.78 211.233C210.231 207.371 222.783 183.734 233.597 197.483L239.584 197.831C236.88 192.424 236.996 189.489 245.223 184.777C236.185 183.734 229.581 184.429 223.362 179.486C195.941 205.092 153.881 218.069 107.727 208.414Z" fill="white"/>
<path d="M163.111 163.998C160.833 167.976 159.751 170.409 160.292 174.387C166.047 174.928 171.106 177.747 173.346 181.957L173.539 163.264L163.111 163.998Z" fill="white"/>
<path d="M126.111 175.16L124.489 209.843C129.935 210.654 134.145 210.847 139.127 210.731L140.17 175.121L126.111 175.16Z" fill="white"/>
<path d="M124.141 225.523C130.321 226.296 135.651 225.987 140.363 226.218C141.637 247.306 149.593 255.803 167.244 261.403C170.797 262.523 175.123 263.721 177.71 265.343C135.612 269.282 135.728 242.208 116.919 262.871L111.782 255.649C118.116 249.701 121.824 238.075 124.141 225.523Z" fill="white"/>
<path d="M124.412 122.363C98.9211 124.835 75.6705 139.28 55.7414 171.104C54.1965 173.345 51.0681 176.821 50.4888 177.477C53.0765 177.941 55.0076 179.949 56.2049 181.069C66.517 199.762 77.8333 210.576 89.5359 216.717C91.1966 212.353 91.5442 207.989 92.1622 203.624C84.9012 200.38 69.1819 186.167 70.6882 170.602C78.2195 150.789 102.204 133.564 124.412 133.911V122.363Z" fill="white"/>
<path d="M96.9517 144.532C101.432 140.632 106.26 137.851 111.86 137.349L112.401 166.393C124.451 163.496 137.775 163.264 149.826 164.037L148.821 173.46C136.501 173.731 122.867 173.731 110.315 177.902C108.384 196.788 106.723 214.864 101.162 232.939C110.354 235.99 114.95 240.007 117.151 244.487L112.941 252.366C107.071 244.294 101.316 240.007 90.3859 241.899L85.1333 237.187C96.6427 215.057 95.3682 172.147 96.9517 144.532Z" fill="white"/>
<path d="M118.116 262.832C119.314 262.446 122.828 269.128 128.853 270.827C129.162 271.097 133.063 270.673 131.094 269.9C129.124 269.128 125.455 264.145 123.215 258.236C123.253 258.236 116.958 263.219 118.116 262.832Z" fill="white"/>
</svg>
