<?xml version="1.0" encoding="utf-8"?>
<!-- Generator: Adobe Illustrator 25.0.0, SVG Export Plug-In . SVG Version: 6.00 Build 0)  -->
<svg version="1.1" id="Layer_1" xmlns="http://www.w3.org/2000/svg" xmlns:xlink="http://www.w3.org/1999/xlink" x="0px" y="0px"
	 viewBox="0 0 579 567.3" style="enable-background:new 0 0 579 567.3;" xml:space="preserve">
<style type="text/css">
	.st0{fill:#FFFFFF;}
</style>
<g>
	<path d="M460.9,0c-3.2,1.7-6.3,3.4-9.5,5.2c-44.7,23.3-98.6,34.9-161.9,35c-63.3-0.1-117.3-11.8-162.1-35c-3.2-1.7-6.3-3.4-9.4-5.2
		L36.2,88.2c48.1,35.4,46.4,92.3-5.2,170.6c-31.7,47.9-39.1,97.9-22.2,150C30,474.1,80.8,509.2,161.3,514.4
		c50.1,3.2,92.8,20.8,128.3,52.9c35.3-32.1,78-49.7,128.1-52.9c80.5-5.2,131.3-40.3,152.5-105.7c16.8-52.1,9.5-102.1-22.1-150
		c-51.7-78.3-53.4-135.1-5.3-170.6L460.9,0z"/>
	<path class="st0" d="M122.8,14c-0.9-0.4-1.9-0.9-2.8-1.5L51,87.1c44.7,38.5,40.9,97.6-11.6,177.1c-3,4.6-6,9.4-8.5,14L409.5,33.3
		C374.1,44.6,334,50.1,289.6,50.3C224.5,50.1,169,38.1,122.8,14"/>
	<path class="st0" d="M262.9,278.4L209.2,313v199c19,5.2,36.9,12.8,53.6,22.7L262.9,278.4z"/>
	<path class="st0" d="M370.1,208.9l-53.7,34.6v291.2c16.7-10,34.5-17.7,53.7-22.9V208.9z"/>
	<path class="st0" d="M155.5,347.8l-53.7,34.6v110.2c15.9,5.8,33.7,9.5,53.7,11.4V347.8z"/>
	<path class="st0" d="M48.1,417.2l-19.6,12.6c5.4,10.3,11.9,19.6,19.6,27.9V417.2z"/>
	<path class="st0" d="M477.5,139.5l-53.8,34.6V504c20-1.9,37.8-5.7,53.7-11.5L477.5,139.5z"/>
	<path class="st0" d="M539.6,264.2c-3-4.5-6-9.1-8.6-13.5v206.8c13-14.1,22.9-31.5,29.6-51.8C576.5,356.5,569.5,309.4,539.6,264.2"
		/>
	<path class="st0" d="M432.5,50.8c-1.5-3.6-4.6-4.4-9.4-2.1l-70,46.3c-4.2,4.5-6.3,9-6.6,13.6v78.2c1.5,9.8,6.1,12.4,14,8.2
		l61.4-38.9c5.6-4.8,9.1-11.2,10.6-19.3v-36.1l-31.1,18.9v22.9l-17.2,11.5c-2,1.1-3.4,0.9-4.2-0.4c-0.7-1.1-0.9-3-1.1-6.2l-0.7-39.9
		c0.3-2.2,1.1-4.1,2.4-5.4l18.2-13.5c4-3.2,6.1-3,6.3,0.3V93l27.2-18.1L432.5,50.8L432.5,50.8z"/>
	<polygon class="st0" points="275.3,170.2 294.6,157.6 294.6,131.4 203.4,190.7 203.4,210.4 216,202.7 216,267.9 203.7,276.2 
		204,294.8 264.3,256.7 264.3,237.8 248.3,248.1 248.3,223.5 264,213.3 264,226.5 280.3,215.7 280.3,174.8 265.4,185.1 265.4,192.5 
		247.9,202.6 247.9,181.8 269.6,167.4 	"/>
	<polygon class="st0" points="185.1,306.8 185.1,281.8 159.1,298.2 159.1,324 	"/>
	<polygon class="st0" points="301.7,206.3 301.7,231.9 327.8,214.9 327.8,189.9 	"/>
	<path class="st0" d="M139.1,237.9c-2-1.1-4.9-1.2-9-0.1l-64.7,40.1c-6.7,4.4-9.8,8.9-9,13.6l0.1,34c0.5,5.2,2.4,7.9,5.6,8.2
		c3.3,0.4,8.1-1.7,14.4-6.2l27-17.2c5.2-2,8.3-1.9,9.4,0.4v22.1l-21.7,14.5c-3.6,2-5,0.5-4.5-4.2v-12.3l-30.3,18.8v23
		c-0.1,9.7,4,12.6,12.3,8.6l65.5-42.2c5.7-3,8.3-9.5,8.2-19.2l-0.4-31.6c-4.6-6.7-11.8-8.1-21.3-3.7L92,302
		c-2.8,1.1-4.4-0.1-4.9-3.2v-9.9c-0.3-1.5,0-2.9,0.9-4.2c0.9-1.3,2.5-2.8,5.2-4.5l14-9c3.3-1.9,5.4-1.5,6.1,1.5v7.3l29.1-18v-18.8
		C141.6,240.5,140.5,238.8,139.1,237.9"/>
	<polygon class="st0" points="476.2,120.7 476.2,95.6 450.1,112 450.1,137.8 	"/>
	<path d="M220.3,107.9c0-17.3-6.2-32.1-18.4-44.3c-12.3-12.3-27.1-18.5-44.3-18.4c-17.3-0.1-32,6.1-44.3,18.4
		c-12.3,12.2-18.4,27-18.4,44.3c0,17.2,6.1,32,18.4,44.3c0.8,0.7,1.6,1.5,2.4,2.1c11.8,10.8,25.7,16.3,41.9,16.3
		c17.2,0,32-6.2,44.3-18.4C214.1,139.9,220.3,125.1,220.3,107.9 M154.7,51.3L154.7,51.3c1.1-0.1,2-0.1,3-0.1
		c6.6,0,12.6,1.1,18.4,2.9c0.1,0.1,0.1,0.3,0.1,0.4c15.2,27.1,16.5,50.4,4.4,69.6c-0.1-0.1-0.4-0.1-0.7-0.3
		C183,97.3,174.7,73.1,154.7,51.3 M176.5,127.6L176.5,127.6c0.7,0,1.5,0,2.2,0.1c0.9,0.1,1.7,0.4,2.4,0.8c0.3,0.3,0.5,0.5,0.8,0.9
		v0.1c0,0.3,0.1,0.5,0,0.9c-0.1,0.7-0.5,1.5-1.3,2.2c-0.4,0.5-0.8,1.1-1.3,1.5c-1.2,1.1-2.8,2-4.6,2.6c-2.2,0.8-4.4,1.2-6.3,1.2
		c-0.3-0.1-0.5-0.1-0.8-0.1c-1.5-0.3-2.4-0.8-2.9-1.7c-0.4-0.9-0.3-1.9,0.7-3c0,0,0.1-0.1,0.1-0.3h0.1c1.3-1.7,3.4-3,6.1-4.1
		C173.2,128.1,174.9,127.7,176.5,127.6 M173.5,124L173.5,124c-1.2,0.3-2.1,0.5-3.3,1.1c-2.6,0.9-4.8,2.2-6.5,3.8
		c-29.8-5.3-44.4-26.2-44.2-62.8c8.1-7.4,17.3-12.2,27.6-14C168.3,73.7,176.9,97.6,173.5,124 M213.3,96.4L213.3,96.4
		c-0.3,0.8-0.5,1.7-0.8,2.6c-5.6,16.4-14.5,25.9-27,28.6c13-19.4,12.7-42.7-0.7-69.6c4.6,2.5,8.9,5.8,12.8,9.8
		C206,76,211.2,85.6,213.3,96.4 M198.1,147.4L198.1,147.4c-0.1,0.1-0.3,0.3-0.4,0.4c-6.9,6.9-14.7,11.6-23.4,14.3
		c4-6.2,5.3-13.6,4.2-22.6c0.4-0.1,0.8-0.4,1.2-0.7C185.8,143.7,192,146.7,198.1,147.4 M184.2,134.8L184.2,134.8
		c0.3-0.4,0.5-0.7,0.7-1.1c13-1.7,22.7-9.5,29.5-23.4c-0.4,11.8-4.2,22.2-11.1,31.3C196.9,141.9,190.5,139.6,184.2,134.8
		 M161.8,140.3L161.8,140.3c0.4,0.1,0.7,0.4,1.2,0.7c-9.9,8.3-24.9,10.8-44.7,7.3c-0.3-0.1-0.4-0.3-0.5-0.4
		c-5.2-5.2-9-10.6-11.8-16.7C124.4,142.2,142.9,145.2,161.8,140.3 M170.6,142L170.6,142v-0.1c0.7,0,1.5-0.1,2.1-0.3
		c0.9,9.4-1.7,16.9-7.9,22.5c-2.2,0.1-4.6,0.3-7,0.4c-11.1-0.1-21.2-2.9-30-8.6C147,157.2,161.3,152.6,170.6,142 M102.9,121.9
		L102.9,121.9c-1.2-4.5-1.7-9.1-1.7-14.1c0-13.4,4.1-25.1,12.4-35.3c1.3,35.4,16.9,56.1,46.8,62
		C140.8,139.4,121.6,135.3,102.9,121.9"/>
</g>
</svg>
