<svg width="71" height="71" viewBox="0 0 71 71" fill="none" xmlns="http://www.w3.org/2000/svg">
<path d="M0.717041 27.415V0.712036H69.2831V27.415L34.998 68.878L0.717041 27.415Z" fill="white"/>
<path d="M68.564 1.425V27.162L34.998 67.762L1.43298 27.162V1.425H68.564ZM70 0H0V27.67L0.327026 28.064L33.892 68.664L35.002 70.005L36.111 68.664L69.676 28.064L70.002 27.67L70 0Z" fill="black"/>
<path d="M65.2899 4.979H4.70996V22.543H65.2899V4.979Z" fill="black"/>
<path d="M4.84302 25.704H29.716V55.952L4.84302 25.704Z" fill="#FE0000"/>
<path d="M65.0239 25.704H40.1499V55.952L65.0239 25.704Z" fill="black"/>
<path d="M52.931 7.91903C51.044 7.91903 50.6829 8.97602 50.6829 9.64402V17.676C50.6599 18.214 50.851 18.739 51.215 19.136C51.579 19.533 52.0849 19.769 52.6229 19.793C52.6949 19.797 52.7669 19.797 52.8389 19.793H58.895C59.207 19.828 59.5229 19.802 59.8239 19.716C60.1259 19.629 60.408 19.484 60.653 19.288C60.899 19.093 61.1029 18.851 61.2559 18.576C61.4079 18.302 61.5039 18 61.5389 17.688C61.5389 17.626 61.5499 17.562 61.5529 17.5V15.241H58.713V16.036C58.789 16.632 58.503 17.043 58.046 17.022H54.2269C53.6699 17.057 53.138 17.063 53.283 16.318V11.113C53.395 10.75 52.9979 10.217 54.0839 10.18H58.1949C58.4359 10.313 58.817 10.074 58.817 10.936L58.8579 11.869H61.502V9.63003C61.502 8.33003 60.3729 7.91903 59.3549 7.91903H52.931ZM30.8129 7.91903H22.5009V19.7H25.39V15.355H30.7939C31.3349 15.428 31.8839 15.284 32.3189 14.953C32.7539 14.622 33.0389 14.132 33.1129 13.591C33.1259 13.501 33.132 13.41 33.132 13.319V9.89602C33.12 9.62402 33.055 9.35601 32.939 9.10901C32.824 8.86101 32.661 8.63902 32.46 8.45402C32.259 8.27002 32.023 8.12703 31.767 8.03303C31.51 7.94003 31.238 7.89802 30.965 7.91002C30.912 7.91002 30.859 7.91002 30.809 7.92402L30.8129 7.91903ZM10.0679 7.91903C8.95093 8.00603 8.48696 8.52303 8.51196 9.41903V13.316C8.51196 14.014 9.15093 14.675 10.8049 14.675H15.8369C16.0779 14.675 16.2119 14.796 16.2119 15.168V16.413C16.2119 16.784 16.0779 17.068 15.7629 17.068H8.45093V19.595H17.3179C18.6339 19.595 19.129 18.925 19.129 18.004V13.734C19.129 12.141 17.1659 12.234 16.4409 12.234H11.9299C11.8359 12.241 11.7419 12.229 11.6539 12.199C11.5649 12.169 11.4829 12.121 11.4119 12.06C11.3419 11.998 11.2839 11.923 11.2429 11.839C11.2009 11.755 11.177 11.664 11.171 11.57C11.169 11.548 11.169 11.526 11.171 11.503V10.671C11.129 10.36 11.4239 10.131 11.8189 10.136L19.1299 10.125V7.91501L10.0679 7.91903ZM36.6879 7.91903V19.742H39.3319V15.332H45.2899V12.754H39.379V10.125H47.325V7.91903H36.6879ZM25.3879 10.506H29.817C30.145 10.506 30.517 10.531 30.517 11.164V12.244C30.517 12.894 30.1749 12.919 29.8259 12.919H25.387L25.3879 10.506Z" fill="white"/>
</svg>
