<svg width="100" height="100" viewBox="0 0 100 100" fill="none" xmlns="http://www.w3.org/2000/svg">
<path fill-rule="evenodd" clip-rule="evenodd" d="M20.8 65.6C21.1 65.2 21.4 64.9 21.8 64.5L23.7 62.3C25 60.9 26.3 59.3 27.5 57.9C27.6 57.8 28.4 56.9 28.4 56.8H22.6C22.4 56.8 22.4 56.8 22.2 56.9C21.2 58.1 20 59.5 19 60.7C18.2 61.7 17.2 62.8 16.4 63.8C16.3 64 16.1 64.1 16 64.3C15.9 64.4 15.7 64.7 15.5 64.8V56.8H10.6V78.1H10.8C12.2 78.1 14.1 78.1 15.4 78.1C15.4 76 15.4 73.8 15.4 71.7C15.4 71.4 15.4 71.4 15.5 71.3L16.9 69.7C17 69.6 17 69.5 17.2 69.4C18 70.8 19.1 72.4 19.9 73.8L21.9 77.1C22 77.3 22.1 77.5 22.2 77.6C22.3 77.7 22.4 78 22.5 78.2H28.6L28.1 77.4C26.9 75.7 25.7 73.7 24.5 72C24.3 71.7 24.2 71.5 24 71.2L21.5 67.3C21.6 66.8 20.9 65.8 20.8 65.6ZM83.7 71C83.7 71.6 83.6 72.4 83.5 73C83.2 74.8 80.9 75.9 79.7 74.8C79 74 79 72.5 80.2 71.9C80.7 71.7 81.4 71.6 82 71.5C83.1 71.3 83.5 71 83.7 71ZM79.5 67.7C79.5 66.8 79.6 66.3 80.1 65.8C80.6 65.4 81.3 65.2 82 65.3C82.4 65.3 82.7 65.4 82.9 65.6C83.6 66.1 83.6 66.7 83.5 67.5C83.5 67.9 83.5 68.1 83.1 68.3C82.6 68.5 81.7 68.7 81 68.7C80.3 68.8 79.5 68.9 78.8 69C77.4 69.3 76.4 69.6 75.5 70.6C73.9 72.4 73.9 76.2 76.2 77.6C77.3 78.3 78.9 78.4 80.4 78.2C81.9 78 82.9 77.4 83.8 76.6C83.9 76.7 84 77.6 84.1 77.8H88.8V77.3C88.7 77.2 88.6 77.3 88.4 77.1C88.1 76.8 88 76.2 88 75.8C88 75.1 88 74.4 88 73.6C88 72.1 88 70.7 88 69.3C88 66.7 88.2 64.3 85.8 62.8C84 61.7 80.7 61.6 78.5 62.3C76.5 63 75.1 65 75.1 67.6L79.5 67.7ZM37.6 71C37.5 72.6 37.6 73.5 36.6 74.4C34.9 76.1 32.7 75 33.1 73.1C33.4 71.7 34.6 71.7 35.8 71.5C36.3 71.4 36.6 71.3 37.1 71.1C37.3 71.1 37.4 71 37.6 71ZM33.4 67.8C33.4 66.9 33.6 66.4 34 65.9C34.7 65.3 36.2 65.2 36.9 65.7C37.1 65.8 37.4 66.1 37.4 66.4C37.5 66.7 37.5 67.2 37.5 67.6C37.5 68.1 37.4 68.2 37.1 68.4C36.6 68.6 35.6 68.8 35 68.8C34.3 68.9 33.5 69 32.9 69.1C31.4 69.4 30.4 69.8 29.6 70.7C28.8 71.6 28.4 73 28.5 74.5C28.8 77.8 31.5 78.7 34.5 78.2C35.3 78.1 35.8 77.9 36.4 77.6C37.1 77.3 37.4 76.9 37.8 76.6C37.9 76.9 38 77.6 38.1 77.8H42.8V77.2C42.5 77.1 42.3 77 42.2 76.7C41.9 75.9 42 74.5 42 73.6C42 72.1 42 70.7 42 69.3C42 66.7 42.3 64.4 39.8 62.8C38 61.7 34.6 61.6 32.5 62.3C30.3 63.1 29.1 65.3 29.1 67.6L33.4 67.8ZM63.7 70.9C63.5 68.6 64.1 66.2 66 65.7C67.1 65.4 68.1 66 68.6 66.7C69.2 67.5 69.4 68.3 69.5 69.5C69.7 71.7 69.1 74.2 67.2 74.7C66 75 65 74.4 64.5 73.7C64 73 63.8 72 63.7 70.9ZM63.9 76.9C64 77 64 77 64.1 77.1L64.6 77.5C66.5 78.8 69.6 78.6 71.4 77.2C73.3 75.7 74.2 73 74.1 69.8C74.1 68.3 73.8 66.8 73.2 65.6C73 65 72.6 64.5 72.2 64C71 62.4 68.9 61.6 66.8 62C64.8 62.3 63.8 63.7 63.6 63.8V62.4H59.3V83.5H63.8L63.9 76.9ZM53.7 70.7C53.6 71.9 53.4 72.8 52.9 73.6C52.4 74.3 51.5 74.9 50.3 74.7C48.1 74.3 47.9 71.5 47.9 69.6C48 67.5 48.9 65.2 51.3 65.7C53.4 66.1 53.8 68.9 53.7 70.7ZM48.1 76.9C48.1 76.9 48.7 77.4 48.8 77.5C50.8 78.8 53.8 78.6 55.6 77.2C57.4 75.8 58.4 73 58.4 69.8C58.3 66.7 57.3 64.1 55.2 62.8C53.5 61.7 51.1 61.5 49.3 62.7C48.4 63.3 48.2 63.6 47.9 63.8V62.4H43.6V83.5H48.1V76.9Z" fill="white"/>
<path d="M89.7 53.4C89.6 53.3 89.4 53.2 89.4 53.2H89C88.9 53.2 88.7 53.2 88.6 53.1C88.1 52.9 87.7 52.7 87.2 52.4C86.3 51.8 85.4 51.1 84.5 50.5C84.5 50.5 84.5 50.5 84.4 50.5C84 50.2 83.4 50.1 83 49.9C82.4 49.6 81.9 49.3 81.4 48.7C80.8 48 80.3 47.3 79.7 46.6C78.1 44.6 77 42.7 75.6 40.7C75.2 40.1 74.4 39.1 74 38.5C73.8 38.2 73.5999 38 73.5999 38C73.5999 37.9 73.6999 37.7 73.6999 37.6C73.8999 36.7 74.0999 36.2 74.0999 35.4V35.1C74.0999 34.9 73.6 34.5 73.3 34.3L72.8 34.4C72.7 35 72.4 35 72 35C71.9 35 71.7 35 71.3 35C71.1 35 70.7999 35.1 70.5999 35.2C70.4999 35.2 70.4 35.3 70.3 35.3C70.2 35.3 70.1 35.4 70 35.5C69.9 35.5 69.3999 35.9 69.1999 35.9C68.7999 35.9 67.5 35.4 67.3 35.2C67.2 35.1 67.1999 34.9 67.0999 34.8C67.0999 34.5 67 34.2 66.8 33.9C66.6 33.5 66.3999 33.1 66.1999 32.6H63.4C63.4 32.7 63.3 32.7 63.4 32.8H63.0999C62.9999 32.8 62.8999 32.7 62.7999 32.6C62.1999 32.3 61.6 31.9 61 31.5C60.8 31.4 60.6 31.2 60.4 31.1C60.3 31.1 59.5 30.6 59.5 30.3C59.5 30.2 59.8999 29.3 60.0999 28.9C60.1999 28.8 60.1999 28.6 60.2999 28.5C60.4999 28.3 60.7 28.2 60.9 28.2C61 28.2 61.0999 28.2 61.0999 28.2C61.3999 28.5 61.5999 28.8 61.7999 29.1C62.0999 29.6 62.3 30.1 62.5 30.6C62.8 31.2 63.2999 32.5 63.2999 32.6H66.0999C65.3999 31.4 64.7 30.2 64 29C63.7 28.5 63.3 27.9 63 27.4C63 27.3 63 27.2 62.9 27.1C62.9 26.9 62.7999 26.7 62.7999 26.6C62.7999 26.2 63.0999 26.5 63.0999 26C63.0999 25.8 63.1 25.7 62.9 25.4C62.8 25.2 62.8999 25 62.7999 24.9C62.6999 24.8 62.6 24.7 62.5 24.7C62.5 24.5 62.5999 24.2 62.5999 24.2C62.5999 24.1 62.4 23.6 62.4 23.5C62.4 23.4 62.7 23 62.7 22.9C62.7 22.8 62.5999 22.7 62.5999 22.7C62.3999 22.6 62.2 22.5 62 22.4C61.9 22.3 61.6999 22.2 61.5999 22.1C61.4999 22 61.5 21.7 61.5 21.6C61.5 21.2 60.8999 20.8 60.7999 20.5C60.5999 20.1 60.6999 19.5 60.2999 19.1C60.1999 19 59.2999 18.3 58.7999 18.3C58.6999 18.3 58.2 18.4 58.2 18.4C58.1 18.4 57.7 18.3 57.5 18.2H57.0999C56.9999 18.2 56.6999 18.6 56.5999 18.7C56.3999 18.8 56.1999 18.7 56.0999 18.8C55.9999 18.8 55.7999 18.9 55.5999 18.9C55.4999 18.9 55.1999 18.8 55.0999 18.8H54.7C54.6 18.8 54.5 18.8 54.5 18.9C54.2 19.1 53.9999 19.3 53.7999 19.5C53.6999 19.6 53.6999 19.8 53.5999 19.9C53.4999 20.1 53.3 20.3 53.2 20.4C53.1 20.5 53.1 20.7 53 20.9C52.9 21 52.7999 21.2 52.7999 21.3C52.6999 22 52.5 23.4 52.5 23.5C52.5 23.7 52.6 23.6 52.7 23.8C52.7 23.9 52.7 24 52.7 24.1C52.7 24.2 52.8 24.2 52.9 24.3C53 24.7 53.0999 25.3 53.2999 25.7C53.3999 25.9 53.3999 26.1 53.5999 26.3C53.7999 26.6 53.9 26.7 53.9 27C53.9 27.5 53.7999 27.3 53.2999 27.7C53.1999 27.7 53.2 27.9 53.2 27.9C53.3 28.1 53.5999 28.5 53.5999 28.7C53.5999 28.9 53 29.2 53 29.3C53 29.5 53.2 29.8 53.2 30.2C53.2 30.3 53.2 30.4 53.2 30.5C53.2 30.6 53 30.6 53 30.7C52.6 31.4 52.1 32 51.7 32.7L51.5 33C51.3 33.3 51.1 33.6 51 33.9C50.7 34.5 50.4 35.2 50.2 35.9C50 35.9 49.8999 35.3 49.7999 35.2C49.7999 35.1 49.6999 34.9 49.5999 34.8C49.5999 34.7 49.5 34.5 49.5 34.4C49.3 34 48.9999 33.5 48.7999 33.1L48.5999 32.7C48.4999 32.6 48.4 32.4 48.4 32.3C48.1 31.7 47.7 31.1 47.4 30.4C47.3 30.2 47 30 46.9 29.8C46.7 29.4 45.9 28.7 45.4 28.3C45.6 28.1 45.7 27.7 45.7 27.6C45.7 27.3 45.2999 27.4 45.2999 27.2C45.2999 27 45.3999 27.1 45.5999 26.8C45.4999 26.5 45.1999 26.6 45.0999 26.6V26.4C45.0999 26.3 45.1999 26.1 45.2999 26L44.7999 25.2C44.7999 25.1 44.7999 25 44.7999 24.9H45C45 25 45.1 25 45.2 25C45.2 23.2 45.2 23.1 45.2 23.1C45.2 23 45.2 22.9 45.2 22.8C45.2 22.7 45.0999 22.1 45.0999 22C45.0999 21.9 45.0999 21.9 45.0999 21.8C45.0999 21.7 45.2 21.6 45.2 21.6C45.2 21.5 45 21 45 20.9V20C45 19.9 45 19.8 45 19.7C45 19.5 44.8999 19.3 44.7999 19.1C44.6999 18.9 44.5 18.7 44.4 18.6C44.4 18.6 44.3999 18.5 44.2999 18.4C44.1999 18.2 43.9999 18.1 43.7999 17.9C43.6999 17.8 43.6 17.9 43.5 17.8C43.1 17.4 42.8 17.4 42.4 17.4C42.2 17.2 41.7 17 41.4 17C41.3 17 41 17 40.9 17.1C40.6 17.2 40.4999 17.3 40.2999 17.3C39.9999 17.3 39.7999 17.1 39.5999 17.1C39.4999 17.1 39.3999 17.3 39.2999 17.3H38.2C38.1 17.3 37.8999 17.4 37.7999 17.4C37.6999 17.6 37.5 17.8 37.4 17.9C37.3 18 37.1999 18 37.0999 18C36.9999 18.1 36.8999 18.2 36.7999 18.3C36.6999 18.3 36.5999 18.4 36.5999 18.4C36.2999 18.7 35.5999 19.2 35.5999 19.6C35.5999 19.9 35.5999 20 35.5999 20C35.5999 20.1 35.5999 20.2 35.5999 20.2C35.6999 20.4 35.9 20.5 36 20.6L35.5999 21.8C35.6999 21.9 35.7999 22.2 35.7999 22.4C35.3999 22.8 34.9999 23.2 34.5999 23.6C34.4999 23.7 34.5 23.9 34.5 23.9C34.5 24.2 35.2999 24.4 35.2999 24.6V25C35.3999 25.1 35.5 25.2 35.5 25.3C35.5 25.4 35.4 26 35.4 26.3C35.2 27.3 34.6999 28.2 34.2999 29.2C34.0999 29.8 34 30.5 33.7 31C33.3 31.7 31 32.3 30.1 32.3C29.8 32.3 29.4999 32.3 29.2999 32.2C28.8999 32.1 29 32 28.7 32C28.1 32 27.5 32.5 27.1 32.6H27C27 32.6 27 32.6 26.9 32.6H26.5H26.9C26.8 32.6 26.8 32.4 26.4 32.4C26.3 32.5 26.3 32.5 26.2 32.6C25.9 33.2 25.7 33.4 25.7 33.9C25.7 34.5 25.9 35 26.1 35.6C26.2 35.8 26.4 36.2 26.4 36.3C26.4 36.4 26.3999 36.5 26.2999 36.6C25.8999 37.3 25.4 38 25 38.7C24.9 38.8 24.8 39 24.8 39.1C24.7 39.4 24.5 39.6 24.3 39.9C23.8 40.8 23.2 41.7 22.6 42.6L22 43.3C20.5 45.6 16.4 49 12.9 50.5C12.8 50.5 12.7 50.6 12.6 50.6C12.2 50.8 11.8 50.9 11.4 51C11.2 51.1 10.9 51.1 10.7 51.2C10.5 51.3 10.2 51.4 10.2 51.7C10.2 52 10.6 52.2 10.9 52.3C11 52.3 11.4 52.3 11.4 52.4C11.2 52.6 11 52.8 11 53C11 53.1 11.2 53.3 11.3 53.4C11.9 53.5 12.5 53.7 13.1 53.8C13.2 53.8 13.3 53.9 13.3 53.9H13.7C13.8 53.9 13.9 53.9 13.9 54H15.3C16.3 53.9 17.3 53.5 18.4 53.5L20.8 53.8H21.8C21.9 53.8 22.3 53.7 22.6 53.5C22.8 53.4 22.9 53.1 22.9 52.9C22.9 52.6 22.9 52.4 22.9 52.3L22.7 50.5V50.2C22.7 50.1 22.8 50 22.8 49.9C23.4 48.3 25.5 46.8 26.9 45.5C27.7 44.7 28.6999 43.9 29.2999 43.1C29.6999 42.6 29.8999 42.1 30.2999 41.6C30.3999 41.5 30.5 41.5 30.6 41.5C30.7 41.5 30.8 41.5 30.9 41.7C31.4 42.9 31.8999 44.2 32.5999 45.4C33.2999 46.8 34.1 48.2 35 49.5C35.2 49.8 35.5 50.2 35.7 50.5C36.3 51.4 36.8 52.2 37.5 53.1C38 53.7 38.6999 54 39.2999 54.1H43.7C44.2 54 44.7 54 45.2 53.7C45.3 53.6 45.4 53.4 45.5 53.3C46.5 52.3 47.1 51.4 47.7 50.4C48 49.9 48.2999 49.5 48.5999 49C48.7999 48.7 49 48.3 49.2 47.9C49.6 47.3 49.8 46.7 50 46.1C50.2 45.7 50.3 45.3 50.4 45C50.5 44.8 50.5 44.5 50.7 44.3C51.1 44.9 51.0999 45.5 51.2999 46C51.4999 46.7 51.8 47.5 52 48.2C52.2 48.7 52.4 49.2 52.5 49.7C52.6 49.9 52.5999 50.2 52.5999 50.4C52.7999 52 52.9 54.1 55.2 54.3H59.4C60 54.2 60.6999 54.1 61.2999 53.9C61.5999 53.8 61.8999 53.7 62.0999 53.5C62.9999 52.9 64.0999 51.7 65.0999 50.4C65.8999 49.3 66.7 48.2 67.4 47.2C67.5 47 67.7 46.7 67.8 46.5C68.8 45.1 69.5 43.7 70.5 42.3H70.6999C71.2999 43.6 72.2999 45 73.5999 46.2C74.1999 46.8 74.8 47.1 75.3 47.6C75.4 47.7 75.6 47.7 75.7 47.8C76.3 48.4 77 48.8 77.5 49.4C77.7 49.6 78.1 50.1 78.5 50.5C78.7 50.8 78.9 51 78.9 51.2C78.9 51.3 78.8 51.5 78.8 51.6C78.7 51.9 78.7 52.4 78.7 52.4C78.7 52.5 78.7 52.5 78.7 52.9C78.7 53.1 78.8 53.3 78.9 53.5C79.1 53.7 79.5 53.9 79.7 53.9H82.7L84.4 54.2H84.8C84.9 54.2 85.1 54.3 85.2 54.3H87.9C88.1 54.3 88.4 54.3 88.6 54.2C88.7 54.2 89.7 54 89.7 53.7C89.7 53.7 89.7 53.5 89.7 53.4ZM37.4 27.3C37.4 27.2 37.4999 27.2 37.5999 27.2C37.9999 27.2 38.3 27.3 38.7 27.8C38.8 27.9 39 28.2 39 28.3C39 28.4 39 28.5 38.7 28.7C38.5 28.8 38.2 28.9 37.9 29C37.9 29 37.2 29.4 37 29.4C36.9 29.4 36.7999 29.4 36.7999 29.2C36.8999 29.1 37.2 27.9 37.4 27.3ZM41.2 40.3L41.0999 42.8C41.0999 42.9 40.9999 44 40.5999 44C40.2999 44 39.8 43 39.7 42.9C39.4 42.5 37.9 40.1 36.9 38.4C36.4 37.5 36 36.9 36 36.9C36 36.7 36.3 36.6 36.4 36.6C36.8 36.4 37.1999 36.2 37.5999 36C37.7999 35.9 38 35.8 38.2 35.7C38.8 35.4 39.6 34.9 40.2 34.7C40.3 34.8 40.2999 34.8 40.2999 34.9C40.3999 35.3 40.5 35.9 40.5 36V36.4C40.5 36.6 40.9 38.2 41 38.3V38.4C41.1 38.7 41.4 39.2 41.4 39.5C41.4 39.8 41.3 40.1 41.2 40.3ZM65.8 38.5C65.7 38.8 65.1 39.2 64.9 39.4C63.4 40.9 61.8999 42.5 60.2999 43.9C60.0999 44.1 59.9 44.2 59.7 44.2C59.3 44.2 59.2999 43.5 59.2999 43.2V42.5C59.3999 42 59.4 41.3 60 40.9C60 40.9 60.1 40.9 60.2 40.9C60.5 40.7 61.9 40.3 61.9 39.6C61.9 39.3 61.6999 38.9 61.5999 38.6C61.4999 38.4 61.5 38.3 61.4 38.2C61.2 37.7 61 36.8 61 36.8V36.7C62.6 37.3 64.2 37.8 65.8 38.4C65.9 38.4 65.9 38.5 65.9 38.6C65.8 38.4 65.8 38.4 65.8 38.5Z" fill="white"/>
</svg>
