<svg width="138" height="139" viewBox="0 0 138 139" fill="none" xmlns="http://www.w3.org/2000/svg">
<g clip-path="url(#clip0_120_1287)">
<path fill-rule="evenodd" clip-rule="evenodd" d="M12.2657 4.31732C21.7482 8.48132 37.3064 7.98921 47.7353 0.115479C62.3282 10.8094 76.3722 9.71159 89.7538 0.115479C98.6874 6.56967 112.429 9.31412 125.318 4.44982L131.091 12.475C116.025 32.6135 121.589 51.8815 137.148 68.8214L130.618 75.4459C132.094 118.903 98.4414 129.275 79.1167 130.354L68.7256 138.852L58.4103 130.486C23.9248 127.515 5.71684 109.326 6.85247 75.5784L0.133301 68.8024C13.2499 54.607 23.111 35.2255 6.26573 12.4939L12.2657 4.31732Z" fill="black" stroke="black" stroke-width="0.0358293" stroke-miterlimit="10"/>
<path fill-rule="evenodd" clip-rule="evenodd" d="M13.0606 74.7078H124.088C127.003 105.427 107.489 122.026 77.8107 123.654L58.9592 123.71C30.5494 121.647 9.38872 106.657 13.0606 74.7078Z" fill="#00529F"/>
<path d="M76.6372 75.0674H60.9087V124.165H76.6372V75.0674Z" fill="#A2214B"/>
<path d="M45.3445 75.0674H29.616V118.941H45.3445V75.0674Z" fill="#A2214B"/>
<path d="M45.3446 116.688H35.105V121.212H45.3446V116.688Z" fill="#A2214B"/>
<path d="M107.766 75.0674H92.0378V118.941H107.766V75.0674Z" fill="#A2214B"/>
<path d="M102.277 116.688H92.0378V121.212H102.277V116.688Z" fill="#A2214B"/>
<path fill-rule="evenodd" clip-rule="evenodd" d="M68.2713 14.4812V58.0895L15.275 58.4681L20.745 37.4778L13.9312 12.3613L47.4702 8.0459L68.2713 14.4812Z" fill="white"/>
<path fill-rule="evenodd" clip-rule="evenodd" d="M69.0286 14.4812V58.0895L122.025 58.4681L116.555 37.4778L123.35 12.3613L89.8107 8.0459L69.0286 14.4812Z" fill="#FFDF1A"/>
<path d="M52.8455 9.29517H37.647V57.8057H52.8455V9.29517Z" fill="#E1393D"/>
<path d="M68.2715 27.3896H20.9912V42.5882H68.2715V27.3896Z" fill="#E1393D"/>
<path d="M79.4134 12.7397H73.792V57.5027H79.4134V12.7397Z" fill="#E1393D"/>
<path d="M90.0884 9.52222H84.467V57.5974H90.0884V9.52222Z" fill="#E1393D"/>
<path d="M100.82 12.2478H95.1987V57.711H100.82V12.2478Z" fill="#E1393D"/>
<path d="M111.457 13.9133H105.836V57.6731H111.457V13.9133Z" fill="#E1393D"/>
<path fill-rule="evenodd" clip-rule="evenodd" d="M47.6595 3.5791C37.8742 10.7525 22.3917 11.5096 13.4959 7.91344L9.93755 12.4938C25.2118 33.9952 16.4296 55.6101 4.31616 68.8592L9.8997 74.7644C7.62843 107.168 26.5367 125.906 59.773 127.818L68.7823 135.351L77.7728 127.704C97.1353 127.363 131.072 116.518 127.419 74.7077L133.021 68.897C118.788 53.1306 113.886 31.5157 127.646 12.4938L124.296 7.93237C112.126 11.926 98.2142 9.71153 89.8484 3.65481C77.2807 12.6642 61.3439 13.5916 47.6595 3.5791ZM89.9619 9.73045C97.5139 14.4244 105.861 15.7493 120.246 14.5001C113.034 26.9542 112.258 41.8121 118.637 56.1401L18.8144 56.0833C24.1898 43.2695 25.42 28.5441 16.9974 14.2162C27.3695 15.7304 37.5145 15.3708 47.6217 9.86294C61.325 17.907 75.4258 18.0395 89.9619 9.73045ZM15.275 75.1808H122.309C125.129 104.802 106.296 120.795 77.6781 122.366L59.4891 122.404C32.1203 120.455 11.7356 105.994 15.275 75.1808Z" fill="#DEB405" stroke="#DEB405" stroke-width="0.0335958" stroke-miterlimit="10"/>
<path d="M16.8838 14.3677C25.3064 28.6956 24.0761 43.421 18.7008 56.2348L118.504 56.2915C112.126 41.9636 112.902 27.1057 120.113 14.6516C105.728 15.9197 97.3813 14.5759 89.8294 9.90088C75.2933 18.2099 61.1925 18.0774 47.4891 10.0144C37.382 15.5033 27.2559 15.863 16.8838 14.3677Z" stroke="black" stroke-width="0.143298" stroke-miterlimit="10"/>
<path d="M15.2751 75.1809H122.309C125.129 104.802 106.296 120.796 77.6971 122.367L59.5081 122.404C32.1203 120.455 11.7357 105.994 15.2751 75.1809Z" stroke="black" stroke-width="0.143298" stroke-miterlimit="10"/>
<path d="M68.6877 15.863V56.3106" stroke="black" stroke-width="0.143298" stroke-miterlimit="10"/>
<path d="M83.4509 98.2722C83.4509 106.316 76.9399 112.827 68.8959 112.827C60.8518 112.827 54.3408 106.316 54.3408 98.2722C54.3408 98.2722 54.3408 98.2722 54.3408 98.2533C54.3408 90.2092 60.8518 83.6982 68.8959 83.6982C76.921 83.7172 83.4509 90.2281 83.4509 98.2722C83.4509 98.2722 83.4509 98.2533 83.4509 98.2722Z" fill="#DEB405"/>
<path d="M83.4509 98.2722C83.4509 106.316 76.9399 112.827 68.8959 112.827C60.8518 112.827 54.3408 106.316 54.3408 98.2722C54.3408 98.2722 54.3408 98.2722 54.3408 98.2533C54.3408 90.2092 60.8518 83.6982 68.8959 83.6982C76.921 83.7172 83.4509 90.2281 83.4509 98.2722ZM83.4509 98.2722C83.4509 98.2533 83.4509 98.2722 83.4509 98.2722Z" stroke="black" stroke-width="0.144017" stroke-miterlimit="1.0145"/>
<path d="M60.4921 86.4238C58.7887 92.613 57.7477 98.7076 62.6309 101.641C66.0568 103.685 68.3659 99.5215 69.0094 97.8937" stroke="black" stroke-width="0.125393" stroke-miterlimit="10"/>
<path d="M55.4197 104.14C58.2966 104.007 59.7919 103.78 61.6278 100.979" stroke="black" stroke-width="0.125393" stroke-miterlimit="10"/>
<path d="M68.9148 97.9884C71.7917 96.2282 74.3469 97.0799 75.5393 101.509C78.3406 100.392 81.0472 102.55 81.7475 104.726" stroke="black" stroke-width="0.125393" stroke-miterlimit="10"/>
<path d="M75.5962 101.509C73.4763 106.638 67.8738 109.023 60.019 109.799" stroke="black" stroke-width="0.125393" stroke-miterlimit="10"/>
<path d="M68.9147 98.1965C67.1545 96.5877 64.429 94.7328 68.3848 89.9631C66.7002 87.8244 66.246 85.7613 68.4415 83.7739" stroke="black" stroke-width="0.125393" stroke-miterlimit="10"/>
<path d="M83.3751 99.1428C80.7821 94.5813 74.7822 88.2407 68.3848 89.9252" stroke="black" stroke-width="0.125393" stroke-miterlimit="10"/>
<path d="M48.5492 58.7332V58.7899H45.8994V63.9192V66.834V72.55H48.7574V66.834H52.8268V63.9192H48.7574V61.6858H55.7984V58.7332H48.5492Z" fill="black"/>
<path fill-rule="evenodd" clip-rule="evenodd" d="M70.183 63.0295L72.7381 61.6857C71.1104 58.0706 64.4669 57.0296 62.2903 61.6857C60.038 67.2313 62.4228 72.3796 66.795 72.8906C69.5584 73.2881 71.7539 71.9442 72.7003 69.5215L70.164 68.0641C69.4827 69.7487 66.9086 70.9032 64.959 68.102C64.3534 66.8528 64.202 64.9033 64.8644 63.0295C66.4543 60.815 68.8202 61.0611 70.183 63.0295Z" fill="black" stroke="black" stroke-width="0.00716481" stroke-miterlimit="10"/>
<path fill-rule="evenodd" clip-rule="evenodd" d="M79.9873 58.771L80.0441 72.6447L87.5961 72.6068C90.0566 72.2661 93.2742 68.2346 89.5077 65.1116C91.4951 63.3514 91.249 59.5849 87.2554 58.7899L79.9873 58.771ZM82.8832 61.4965H86.6497C88.2964 61.9697 87.8043 63.5596 86.7065 63.8246H82.8832V61.4965ZM82.921 66.5501L86.8768 66.6069C88.8263 67.1936 88.391 69.427 86.9336 69.8056L82.94 69.7677L82.921 66.5501Z" fill="black" stroke="black" stroke-width="0.0358293" stroke-miterlimit="10"/>
</g>
<defs>
<clipPath id="clip0_120_1287">
<rect width="137.3" height="139" fill="white"/>
</clipPath>
</defs>
</svg>
