<svg width="560" height="560" viewBox="0 0 560 560" fill="none" xmlns="http://www.w3.org/2000/svg">
<path d="M280 555C431.878 555 555 431.878 555 280C555 128.122 431.878 5 280 5C128.122 5 5 128.122 5 280C5 431.878 128.122 555 280 555Z" fill="#FDE100"/>
<path d="M280 535C420.833 535 535 420.833 535 280C535 139.167 420.833 25 280 25C139.167 25 25 139.167 25 280C25 420.833 139.167 535 280 535Z" stroke="black" stroke-width="14"/>
<path d="M197.6 72.3101L265.1 281.1H294.2L360.8 72.3101H320.1L279.5 211.7L239.2 72.3101H197.6ZM93.25 175.1V381.1H157.9C210.3 381.1 236.8 317.7 200.4 278.6C200.4 278.6 200.4 278.4 200.4 278.2C200.4 278 200.7 277.9 200.7 277.9C231 243.8 218.2 183.6 162 175.1H93.25ZM360.8 175.1V381.1H425.8C478.1 381.1 504.6 317.7 468.3 278.6C468.3 278.6 468.3 278.4 468.3 278.2C468.3 278 468.6 277.9 468.6 277.9C498.8 243.8 486.1 183.6 429.8 175.1H360.8ZM131.1 213.6H162.9C183.6 213.6 187.8 253.2 164.2 259.5H131.1V213.6ZM399.2 213.6H430.8C451.4 213.6 455.7 253.2 432 259.5H399.2V213.6ZM131.1 296.4H159.2C182.5 296.4 191.1 338.8 160.8 344.8H131.1V296.4ZM399.2 296.4H427C450.3 296.4 458.9 338.8 428.6 344.8H399.2V296.4ZM239.2 385.4C222.5 385.4 208.9 399.1 208.9 415.8V461.4C208.9 478.1 222.5 491.7 239.2 491.7H239.8C256.5 491.7 270.1 478.1 270.1 461.4V415.8C270.1 399.1 256.5 385.4 239.8 385.4H239.2ZM319.5 385.4C302.8 385.4 288.6 398.4 288.6 415.1V422.6C288.6 439.3 303.8 452.8 319.5 453.3C319.5 453.3 325.9 453.2 329.2 451.4L329.5 461.7C329.5 466.9 325.3 471.5 320.1 471.4C315.9 471.2 310.1 469.1 310.1 463.9C310.1 463.9 311.1 457 306.1 457H288.6C288.4 458.7 288.6 459.7 288.6 462C288.6 477.8 302.1 491.7 320.4 491.7C337.7 491.5 349.8 478.3 349.8 461.1V415.4C349.8 398.7 336.8 385.4 320.1 385.4H319.5ZM319.8 407C325.3 407 329.5 411.2 329.5 416.4V422.3C329.5 427.5 325.3 431.7 320.1 431.7C314.6 431.7 310.1 427.5 310.1 422.3V416.4C310.1 411.2 314.6 407 319.8 407ZM239.2 407.3C244.7 407.3 249.2 411.5 249.2 416.7V462C249.2 467.2 244.7 471.4 239.5 471.4C234 471.4 229.8 467.2 229.8 462V416.7C229.8 411.5 234 407.3 239.2 407.3Z" fill="black"/>
</svg>
