<svg width="297" height="300" viewBox="0 0 297 300" fill="none" xmlns="http://www.w3.org/2000/svg">
<path d="M162.625 284.885C161.452 288.332 157.717 296.785 148.675 296.785C138.391 296.785 134.824 285.658 134.652 285.189L134.347 284.136C134.347 284.136 143.204 284.872 148.083 284.872C152.949 284.872 161.288 284.391 162.637 284.136L162.625 284.885H162.625Z" fill="black"/>
<path d="M189.61 279.399L191.721 279.666C189.203 286.244 184.682 293.615 175.821 293.615C167.178 293.615 162.917 288.613 161.131 285.269L159.622 284.347C159.622 284.347 174.509 283.866 189.61 279.399" fill="black"/>
<path d="M108.052 279.399L105.942 279.666C108.447 286.244 112.989 293.615 121.878 293.615C130.472 293.615 135.104 288.35 137.012 285.269L138.037 284.347C138.037 284.347 123.174 283.866 108.052 279.399" fill="black"/>
<path d="M155.89 285.586C154.488 287.594 153.546 287.491 151.888 287.491C151.028 287.491 149.794 288.182 149.806 289.457C149.843 290.461 150.662 291.275 152.007 291.275C155.068 291.275 157.408 287.034 158.029 285.228C158.029 285.228 159.823 285.154 160.345 285.101C160.345 285.101 157.137 294.694 148.786 294.694C140.423 294.694 137.013 285.216 137.013 285.216C137.013 285.216 144.064 285.644 148.083 285.644C152.114 285.644 154.681 285.607 155.89 285.586" fill="url(#paint0_radial_121_1466)"/>
<path d="M109.188 281.358C114.622 282.798 118.505 284.016 127.658 285.126C127.658 285.126 127.366 286.052 125.375 285.978C124.614 285.929 124.511 285.739 124.248 285.694C123.66 285.587 122.808 286.184 122.895 287.175C122.985 287.874 123.569 288.742 125.602 288.742C127.634 288.742 129.999 287.089 131.196 285.542C131.196 285.542 132.41 285.826 133.673 285.887C133.673 285.887 129.76 291.35 122.076 291.35C113.639 291.35 110.496 283.777 109.188 281.358" fill="url(#paint1_radial_121_1466)"/>
<path d="M147.98 236.396C177.121 236.396 209.405 218.51 232.072 192.725C234.54 189.936 238.674 184.638 248.518 184.638C258.379 184.638 271.485 193.626 269.95 209.982C268.807 221.895 251.78 248.774 222.627 265.307C193.481 281.905 166.631 285.456 147.98 285.456C129.312 285.456 102.487 281.905 73.325 265.307C44.1756 248.774 27.1532 221.895 26.0178 209.982C24.4834 193.626 37.5937 184.638 47.4336 184.638C57.3023 184.638 61.453 189.936 63.913 192.725C86.5464 218.51 118.847 236.396 147.98 236.396V236.396Z" fill="#FFE500" stroke="black" stroke-width="2.09797" stroke-miterlimit="3.863"/>
<path d="M147.733 240.361C118.411 240.361 85.0448 223.059 60.4698 195.07C57.9686 192.227 54.7847 188.57 47.2073 188.57C42.781 188.57 37.7623 190.94 34.4343 194.605C31.9291 197.328 29.1195 202.129 29.7941 209.488C30.769 219.542 46.7013 245.561 75.098 261.72C97.9864 274.739 122.426 281.317 147.733 281.317C173.065 281.317 197.504 274.739 220.393 261.72C248.781 245.561 264.738 219.542 265.676 209.488C266.379 202.129 263.549 197.328 261.077 194.605C257.733 190.94 252.702 188.57 248.296 188.57C240.686 188.57 237.506 192.227 235.027 195.07C210.467 223.059 177.059 240.361 147.733 240.361V240.361Z" fill="#DA020E"/>
<path d="M273.87 94.3977L273.973 87.6019C276.067 89.2021 280.004 89.2268 282.308 86.771C283.357 85.652 283.953 83.9202 283.867 82.139C283.768 80.1274 282.855 78.0376 281.353 76.5649C272.846 68.2512 265.289 59.9498 265.289 59.9498C264.508 58.7157 263.286 57.8231 262.578 57.5187C261.538 57.0209 257.835 55.3302 255.013 59.6166C252.467 63.4999 252.846 68.9753 253.335 70.9745L261.311 81.8469C264.043 85.3106 271.74 92.6782 273.87 94.3977Z" fill="black"/>
<path d="M103.379 23.926C113.42 20.5528 122.602 17.7637 134.976 16.6695L136.852 15.6164C129.945 10.1658 123.084 6.44702 116.251 6.44702C111.96 6.44702 103.231 9.36362 101.285 24.7652L103.379 23.926V23.926Z" fill="black"/>
<path d="M192.601 23.926C182.555 20.5528 173.382 17.7637 161.02 16.6695L159.12 15.6164C166.055 10.1658 172.9 6.44702 179.741 6.44702C184.036 6.44702 192.728 9.36362 194.715 24.7652L192.601 23.926V23.926Z" fill="black"/>
<path d="M136.634 16.1594C141.686 6.44705 146.306 2.93396 148.889 2.93396C152.081 2.93396 155.841 8.01024 158.795 14.5798L159.416 16.0689L156.82 15.8673C155.117 15.5465 150.267 15.4848 148.416 15.4848C146.515 15.4848 142.418 15.4848 139.95 15.7151L136.634 16.1594V16.1594Z" fill="black"/>
<path d="M96.8017 235.036L89.4875 248.258C87.2785 252.231 85.0036 254.753 81.2725 252.614C77.599 250.537 78.4506 247.525 80.7049 243.42L88.0395 230.182L82.1241 226.899L74.3739 240.89C70.1081 248.591 75.4764 253.367 79.6806 255.683C84.1686 258.167 90.7011 260.014 94.9299 252.371L102.734 238.319L96.8017 235.036V235.036ZM190.857 262.275L188.393 254.69L195.731 252.32L194.715 249.165L187.368 251.547L185.278 245.064L192.79 242.6L191.778 239.477L178.026 243.949L185.669 267.446L200.828 262.53L199.828 259.396L190.857 262.275V262.275ZM206.567 231.867L198.195 236.692L210.59 258.186L218.928 253.365C227.546 248.396 228.365 240.868 224.971 234.829C220.886 227.663 214.144 227.498 206.567 231.867M219.216 238.408C222.355 243.908 221.717 247.919 216.884 250.687L214.58 252.028L205.481 236.306L207.957 234.87C213.762 231.534 217.057 234.504 219.216 238.408M152.25 248.479L152.698 251.7L159.617 250.721L162.608 271.964L169.042 271.072L166.059 249.841L172.876 248.895L172.407 245.629L152.25 248.479V248.479ZM146.392 248.68L139.913 248.327L138.617 273.009L145.1 273.354L146.392 248.68V248.68ZM126.72 245.663L122.208 262.529L113.762 242.187L108.509 240.776L102.108 264.656L107.83 266.174L112.38 249.168L120.953 269.683L126.091 271.069L132.467 247.181L126.72 245.663V245.663Z" fill="#FFE500"/>
<path d="M92.626 89.827V205.594L147.98 241.161L203.329 205.594L203.411 90.0039C201.638 88.4407 197.956 85.014 195.073 83.2205H100.631C98.2412 84.8988 93.4529 88.9385 92.626 89.827H92.626Z" fill="#FFE500"/>
<g filter="url(#filter0_f_121_1466)">
<path d="M92.626 42.8044L92.626 89.8271V205.594L147.98 241.161L203.329 205.594L203.411 42.9813" stroke="#B54005" stroke-width="10" stroke-miterlimit="3.863"/>
</g>
<path d="M170.103 172.887V168.584C170.103 168.584 168.96 166.816 166.125 166.816C163.299 166.816 161.608 167.667 161.608 168.379C161.608 169.543 164.138 172.887 170.103 172.887M147.782 134.799L152.061 127.328L155.413 134.799H160.967C157.626 137.934 156.261 142.677 156.261 145.84V149.287C156.261 150.752 155.524 153.175 155.524 153.175C155.524 153.175 160.346 156.848 161.086 157.486C161.395 157.728 161.732 157.877 161.51 158.514C161.127 159.588 157.853 161.065 157.519 161.344C156.779 162.003 156.586 162.397 156.779 163.047C157.013 163.673 157.626 163.788 158.881 163.344C160.148 162.936 162.773 161.558 164.973 160.616C167.166 159.662 170.103 159.905 170.103 159.905V155.688H161.81V142.29L160.346 139.929L164.003 133.413L167.68 139.97L166.232 142.29V149.287H170.457V142.29L169.001 139.97L172.67 133.462L176.323 139.97L174.879 142.29V149.287H179.133V142.29L177.627 139.97L181.309 133.462L184.978 139.97L183.514 142.29L183.584 155.668H175.225V161.854C177.121 163.636 178.911 167.667 178.911 170.041C178.911 172.472 177.327 173.5 177.327 173.5C177.857 175.409 177.755 176.203 177.528 177.931C177.327 179.687 175.134 182.427 175.134 182.427V214.403C175.134 216.575 170.103 216.361 170.103 214.505V183.147C167.256 180.033 159.506 177.585 159.506 177.585C156.664 180.428 154.915 185.364 154.915 185.364C156.15 186.228 158.071 185.364 158.795 184.525C159.506 183.686 160.967 183.468 161.81 183.998C162.637 184.525 162.843 184.727 162.559 185.961C162.234 187.261 161.715 189.338 161.715 190.79C161.715 192.279 163.39 191.946 164.64 192.057C167.166 192.279 167.581 195.101 167.372 196.677C167.166 198.26 166.426 201.621 166.426 203.711C166.426 205.78 166.537 207.87 166.742 209.055C166.96 210.198 167.372 211.461 167.256 212.938C167.129 214.925 165.907 215.242 164.64 213.966C163.39 212.712 145.878 194.044 145.878 194.044C144.714 197.841 149.559 204.316 151.123 206.315C152.698 208.314 152.595 209.783 151.217 211.153C149.868 212.506 147.239 213.23 146.725 214.505C146.19 215.739 147.98 219.54 151.662 224.255C155.331 228.961 147.449 232.12 142.747 233.062C138.012 233.992 138.012 230.742 138.341 228.961C138.654 227.196 138.654 226.122 138.539 224.572C138.436 222.992 136.988 220.803 134.977 218.183C132.99 215.55 132.99 213.156 133.816 207.055C134.652 200.971 134.454 197.088 134.454 197.088C134.454 197.088 132.356 197.174 129.312 197.088C126.284 196.973 123.771 195.216 123.557 187.869C123.347 180.543 123.174 163.047 122.677 161.213C122.191 159.399 120.229 159.065 119.402 158.823C118.542 158.609 118.501 157.371 119.332 156.926C121.521 155.861 124.145 153.175 123.174 151.504C122.191 149.83 118.337 150.176 115.758 151.439C113.17 152.689 110.443 155.437 109.739 156.186C109.06 156.926 108.472 156.926 108.546 156.128C108.633 155.273 108.069 151.27 107.736 149.884C107.366 148.485 106.115 145.84 105.691 145.141C105.276 144.437 105.691 144.166 106.399 144.437C107.078 144.717 108.633 145.363 110.093 145.749C111.566 146.194 112.968 145.47 113.639 144.096C114.338 142.677 115.704 139.686 116.403 138.349C117.09 137.029 118.201 137.325 119.114 137.526C120.019 137.74 120.858 138.3 121.694 138.633C122.524 138.978 123.22 138.913 123.516 138.489C123.8 138.086 124.145 137.934 124.647 136.889C125.137 135.844 125.745 136.342 125.824 136.757C128.325 151.797 134.841 152.488 134.841 152.488C133.862 154.993 131.566 158.987 131.023 159.995C130.435 160.937 130.217 162.278 130.073 163.319C129.962 164.356 130.435 174.29 131.13 177.931C131.838 181.575 134.063 180.156 134.787 179.041C135.458 177.931 137.642 173.307 137.642 173.307C137.642 173.307 138.181 172.048 138.181 171.003C138.181 169.95 136.371 167.667 135.956 166.955C135.524 166.231 133.997 164.845 133.997 161.344C133.997 157.856 137.14 155.437 138.272 154.52C139.391 153.602 139.391 152.331 139.238 151.566C138.749 148.868 135.882 143.191 134.503 141.015C133.092 138.847 130.369 134.729 130.369 134.729H136.03L139.674 127.16L143.64 134.762L147.782 134.799L147.782 134.799ZM146.865 157.728C148.712 154.676 149.485 151.504 149.485 151.504H144.146C144.146 151.504 145.002 154.75 146.865 157.728ZM141.303 142.339C141.517 143.902 142.681 144.499 143.566 144.042C144.446 143.557 144.294 142.29 143.64 141.278C143.015 140.287 141.715 139.18 141.316 139.344C140.908 139.513 141.163 141.418 141.303 142.339M151.888 139.344C151.505 139.18 150.135 140.287 149.485 141.278C148.86 142.29 148.7 143.557 149.588 144.042C150.456 144.499 151.575 143.89 151.855 142.339C152.007 141.418 152.307 139.513 151.888 139.344" fill="url(#paint2_linear_121_1466)"/>
<path d="M96.9688 118.688V125.656H199.094V118.688H191.562V119.812H104.5V118.688H96.9688Z" fill="#DA020E"/>
<path d="M96.9741 87.3711H199.08V115.138H96.9741V87.3711V87.3711Z" fill="#DA020E"/>
<path d="M114.519 107.077L122.339 108.998L126.56 97.2369V94.2586L114.519 107.077ZM178.968 114.01V110.388H171.588V107.343H177.619V93.9164H172.061L170.161 90.2223L168.306 93.9164H162.731V107.343H168.787V110.388H154.27V107.343H160.309V93.9164H154.743L152.863 90.2223L150.962 93.9164H145.413V107.343H151.481V110.388H136.663V107.343H142.714V93.9164H137.14L135.277 90.2223L133.364 93.9164H127.811V107.343H133.882V110.388L122.158 110.424L110.496 107.701L112.833 114.01H178.968V114.01Z" fill="#FFE500"/>
<path d="M103.959 22.8318C113.816 19.5326 121.266 16.9615 133.405 15.8838C127.811 12.0005 122.845 8.71362 117.136 8.71362C114.133 8.71362 111.566 9.86135 110.973 11.9593C110.422 13.8681 111.928 14.699 112.462 14.5715C113.022 14.4275 113.421 14.263 113.285 13.7447C113.141 13.1975 113.565 11.8071 115.474 11.8071C117.415 11.8071 118.148 13.6048 118.148 14.8389C118.148 16.073 116.189 18.1339 112.59 18.1339C109.06 18.1339 107.25 15.7809 107.386 13.6048C105.683 16.0977 104.692 18.6194 103.959 22.8318" fill="url(#paint3_radial_121_1466)"/>
<path d="M35.2777 81.8453L43.2829 70.9728C43.7436 68.9736 44.1097 63.5024 41.551 59.6191C38.7537 55.3285 35.0679 57.0234 33.986 57.5211C33.3031 57.8255 32.0608 58.7141 31.2957 59.9523C31.2957 59.9523 23.599 68.4265 15.1289 76.7649C13.9318 77.9537 12.6155 80.1258 12.5044 82.1373C12.4016 83.9227 13.1214 85.7162 14.1581 86.8352C16.4741 89.3034 20.522 89.2046 22.5911 87.6003L22.7351 94.3961C24.866 92.6807 32.5503 85.309 35.2777 81.8453Z" fill="black"/>
<path d="M147.98 66.0229C193.559 66.0229 219.492 108.805 225.152 116.317C235.206 129.735 247.514 140.628 261.776 137.029C282.727 131.669 281.637 100.635 281.637 100.635C276.581 96.9947 267.967 92.4121 252.261 70.1489C236.88 48.3259 202.074 15.9966 147.98 15.9966C93.8725 15.9966 59.075 48.3259 43.731 70.1489C28.0085 92.4121 19.3657 96.9947 14.3594 100.635C14.3594 100.635 13.2281 131.669 34.1955 137.029C48.4493 140.628 60.7492 129.735 70.8195 116.317C76.4593 108.805 102.408 66.0229 147.98 66.0229V66.0229Z" fill="#FFE500" stroke="black" stroke-width="2.09797" stroke-miterlimit="3.863"/>
<path d="M147.979 61.9611C191.922 61.9611 218.056 99.235 227.507 112.685C240.015 129.38 250.603 135.682 260.776 133.095C275.479 129.351 277.305 109.116 277.502 102.991V102.748L277.338 102.621C272.155 99.0293 263.483 93.0769 248.954 72.4797C240.286 60.1798 207.381 20.0181 147.979 20.0181C88.5986 20.0181 55.6645 60.1798 47.0012 72.4797C32.591 92.9452 23.5286 99.1856 18.6744 102.518L18.4688 102.686L18.4935 102.9C18.6909 109.038 20.5215 129.38 35.1867 133.095C45.3722 135.682 55.9813 129.38 68.4561 112.685C77.899 99.235 104.058 61.9611 147.979 61.9611" fill="#DA020E"/>
<path d="M124.108 30.8235C116.045 32.5306 110.735 38.4749 112.475 46.5336C113.487 50.8858 117.37 58.8951 129.654 56.283C133.064 55.633 134.907 54.2755 136.692 52.5683L134.454 49.9973C133.611 50.9352 132.352 52.3009 129.526 52.8892C123.582 54.1438 120.048 49.335 119.168 45.1843C117.86 39.0343 121.443 34.7972 125.49 33.921C128.382 33.2834 130.135 34.0691 131.245 34.5011H131.282L132.035 31.35C130.085 30.5684 127.745 30.0501 124.108 30.8235M191.54 66.2767C196.151 69.0534 201.182 68.5803 203.535 64.6847C205.246 61.9614 205.263 59.6989 203.206 55.647C202.675 54.4993 201.98 53.6765 201.515 52.6317C200.606 50.9368 199.767 49.5505 200.548 48.2383C201.412 46.8149 203.412 46.6997 205.222 47.8063C207.118 48.954 207.904 50.8504 208.303 52.1462L211.277 50.8628C210.364 48.4192 209.01 46.2267 205.917 44.3961C200.631 41.2121 196.332 42.0513 194.543 45.0337C192.728 48.0326 193.243 50.5296 194.608 53.0883C194.608 53.0883 195.456 54.5404 195.945 55.5318C197.142 57.531 198.537 60.0527 197.558 61.6282C196.373 63.6151 194.333 64.0471 192.346 62.813C189.799 61.2087 189.203 59.3411 188.672 57.5187L185.402 58.9173C186.122 61.4267 187.812 64.0265 191.539 66.2767M156.335 29.5264L156.15 39.5966L146.466 39.4568L146.61 29.3495L140.119 29.2302L139.687 53.941L146.19 54.0809L146.396 42.7519L156.096 42.9287L155.911 54.2372L162.407 54.3359L162.83 29.6251L156.335 29.5264V29.5264ZM249.333 107.993C249.378 108.055 253.142 109.915 257.325 106.159C260.822 103.016 259.65 98.7089 255.997 94.6651L249.263 87.1824L230.903 103.728L235.243 108.541L242.553 101.983L244.663 104.365L240.036 114.806L245.577 119.232L249.333 107.993V107.993ZM252.611 95.8211C254.331 97.7298 254.359 99.9965 252.36 101.757C250.414 103.551 247.93 103.139 246.042 101.066L244.943 99.836L251.159 94.2209L252.611 95.8211V95.8211ZM223.959 89.5082L230.109 84.4032L235.042 90.2734L237.592 88.1466L232.631 82.2517L237.835 77.8707L242.915 83.9219L245.437 81.8198L236.156 70.7581L217.238 86.6451L227.456 98.8422L230.006 96.7236L223.959 89.5082V89.5082ZM216.867 52.3762L214.662 54.795L219.846 59.4805L205.481 75.4169L210.327 79.7732L224.671 63.8328L229.788 68.4401L231.985 66.0212L216.867 52.3762V52.3762ZM174.567 53.9427L177.183 46.4064L184.46 48.9158L185.542 45.7812L178.252 43.2759L180.47 36.8216L187.969 39.3926L189.022 36.2745L175.36 31.5725L167.331 54.9752L182.387 60.1296L183.456 57.0115L174.567 53.9427V53.9427ZM96.3286 41.8357L105.609 56.6285L84.9461 48.9154L80.347 51.8032L93.4491 72.7952L98.439 69.6524L89.0968 54.7074L109.974 62.4576L114.482 59.6315L101.356 38.6518L96.3286 41.8357ZM67.426 64.189L63.2013 68.7223L75.0445 92.273L77.9364 89.1796L74.7195 82.9144L80.4375 76.7645L86.9207 79.5124L91.6843 74.4115L67.426 64.189V64.189ZM77.414 75.4029L73.1234 80.0102L68.7136 71.536L77.414 75.4029V75.4029ZM53.4683 79.1335L48.8692 84.6089L57.4627 102.38L39.0334 96.3452L35.0679 101.043L54.0031 116.942L56.8785 113.528L43.4968 102.265L61.4324 108.106L63.3206 105.868L54.7682 88.7307L68.2076 99.9981L72.4035 95.0329L53.4683 79.1335Z" fill="#FFE500"/>
<path d="M24.5406 91.7255L24.52 86.2749C33.821 77.7349 38.2062 69.1538 38.2062 69.1538C38.2062 69.1538 34.7878 67.8662 33.2575 65.9204C32.5006 64.8385 32.2085 63.3617 32.336 62.3703C32.6322 60.511 34.0802 59.5689 34.5738 59.355C35.6434 58.8943 37.6303 57.8494 39.8434 60.8935C42.2006 64.1886 41.5794 70.4414 41.2544 71.8811C41.2544 71.8811 36.9186 79.4297 24.5406 91.7255" fill="url(#paint4_radial_121_1466)"/>
<path d="M34.8329 70.148C33.5783 72.3365 30.4148 77.6184 22.4137 85.1177C21.085 86.3641 17.7694 87.4213 15.8895 85.311C15.186 84.4924 14.7212 83.3447 14.7911 82.0118C14.8816 80.4692 15.8072 78.6757 16.7369 77.8858C18.3494 76.5242 25.2234 69.5845 30.1104 64.1256C30.2462 65.1211 31.1018 66.7872 31.1018 66.7872C31.7765 67.7169 32.5992 69.0538 34.8329 70.148" fill="url(#paint5_linear_121_1466)"/>
<path d="M147.733 240.361C118.411 240.361 85.0448 223.059 60.4698 195.07C57.9686 192.227 54.7847 188.57 47.2073 188.57C42.781 188.57 37.7623 190.94 34.4343 194.605C31.9291 197.328 29.1195 202.129 29.7941 209.488C30.769 219.542 46.7013 245.561 75.098 261.72C97.9864 274.739 122.426 281.317 147.733 281.317" fill="url(#paint6_linear_121_1466)"/>
<path d="M147.733 240.361C177.055 240.361 210.421 223.059 234.996 195.07C237.497 192.227 240.681 188.57 248.259 188.57C252.685 188.57 257.704 190.94 261.032 194.605C263.537 197.328 266.346 202.129 265.672 209.488C264.697 219.542 248.765 245.561 220.368 261.72C197.479 274.739 173.04 281.317 147.733 281.317" fill="url(#paint7_linear_121_1466)"/>
<path d="M227.507 112.685C240.015 129.38 250.604 135.682 260.777 133.095C275.479 129.351 277.305 109.116 277.503 102.991V102.748L277.338 102.621C272.155 99.0293 263.483 93.0769 248.954 72.4797" fill="url(#paint8_linear_121_1466)"/>
<path d="M68.493 112.685C55.9854 129.38 45.3968 135.682 35.2237 133.095C20.5215 129.351 18.695 109.116 18.4976 102.991V102.748L18.6621 102.621C23.8453 99.0293 32.5169 93.0769 47.0464 72.4797" fill="url(#paint9_linear_121_1466)"/>
<path d="M192.041 22.8318C182.185 19.5326 174.735 16.9615 162.595 15.8838C168.19 12.0005 173.155 8.71362 178.865 8.71362C181.868 8.71362 184.435 9.86135 185.027 11.9593C185.578 13.8681 184.073 14.699 183.538 14.5715C182.978 14.4275 182.579 14.263 182.715 13.7447C182.859 13.1975 182.435 11.8071 180.527 11.8071C178.585 11.8071 177.853 13.6048 177.853 14.8389C177.853 16.073 179.811 18.1339 183.41 18.1339C186.94 18.1339 188.75 15.7809 188.614 13.6048C190.317 16.0977 191.309 18.6194 192.041 22.8318" fill="url(#paint10_radial_121_1466)"/>
<path d="M148.442 9.89386C148.133 11.7779 145.966 13.5838 143.773 13.5838C141.576 13.5838 140.918 13.2301 140.918 13.2301C140.585 13.7484 140.293 14.1474 139.947 14.7069C141.938 14.6287 146.558 14.5012 148.409 14.5012C150.256 14.5012 155.378 14.7686 156.48 14.8467C154.699 10.6714 151.264 4.89166 148.89 4.89166C148.808 4.89166 148.705 4.88367 148.578 4.88367C148.022 4.88367 146.099 6.55157 145.068 8.01611C143.714 9.94016 148.442 9.89386 148.442 9.89386V9.89386Z" fill="url(#paint11_radial_121_1466)"/>
<path d="M271.459 91.7255L271.48 86.2749C262.179 77.7349 257.794 69.1538 257.794 69.1538C257.794 69.1538 261.212 67.8662 262.742 65.9204C263.499 64.8385 263.791 63.3617 263.664 62.3703C263.368 60.511 261.92 59.5689 261.426 59.355C260.357 58.8943 258.37 57.8494 256.157 60.8935C253.799 64.1886 254.421 70.4414 254.745 71.8811C254.745 71.8811 259.081 79.4297 271.459 91.7255" fill="url(#paint12_radial_121_1466)"/>
<path d="M261.167 70.148C262.422 72.3365 265.585 77.6184 273.586 85.1177C274.915 86.3641 278.231 87.4213 280.11 85.311C280.814 84.4924 281.279 83.3447 281.209 82.0118C281.118 80.4692 280.193 78.6757 279.263 77.8858C277.651 76.5242 270.777 69.5845 265.89 64.1256C265.754 65.1211 264.898 66.7872 264.898 66.7872C264.223 67.7169 263.401 69.0538 261.167 70.148" fill="url(#paint13_linear_121_1466)"/>
<path d="M92.626 89.827V205.594L147.98 241.161L203.329 205.594L203.411 90.0039C201.638 88.4407 197.956 85.014 195.073 83.2205H100.631C98.2412 84.8988 93.4529 88.9385 92.626 89.827H92.626Z" stroke="black" stroke-width="2.09797" stroke-miterlimit="3.863"/>
<path d="M188.562 281.358C183.128 282.798 179.245 284.016 170.092 285.126C170.092 285.126 170.384 286.052 172.375 285.978C173.136 285.929 173.239 285.739 173.502 285.694C174.09 285.587 174.942 286.184 174.855 287.175C174.765 287.874 174.181 288.742 172.149 288.742C170.116 288.742 167.751 287.089 166.554 285.542C166.554 285.542 165.341 285.826 164.078 285.887C164.078 285.887 167.99 291.35 175.674 291.35C184.111 291.35 187.254 283.777 188.562 281.358" fill="url(#paint14_radial_121_1466)"/>
<path d="M4.24805 162.527C4.24805 148.561 15.5812 137.203 29.5636 137.203C43.55 137.203 54.875 148.561 54.875 162.527C54.875 176.518 43.55 187.851 29.5636 187.851C15.5812 187.851 4.24805 176.518 4.24805 162.527Z" fill="#FFE500" stroke="black" stroke-width="2.09797" stroke-miterlimit="3.863"/>
<path d="M10.0435 161.585C10.0435 150.997 18.782 142.385 29.5633 142.385C40.3477 142.385 49.0799 150.997 49.0799 161.585C49.0799 172.193 40.3477 180.785 29.5633 180.785C18.782 180.785 10.0435 172.193 10.0435 161.585Z" fill="url(#paint15_radial_121_1466)"/>
<path d="M34.94 179.932C33.8293 180.285 33.348 179.508 32.842 178.948C30.8716 176.682 30.3656 170.647 30.3656 169.849C30.3656 169.047 30.6618 168.166 31.2253 168.146C35.9766 168.055 39.3704 166.677 42.4845 164.09C45.5944 161.548 46.9437 158.631 47.2193 158.113C47.4908 157.537 48.1366 157.64 48.2559 158.438C48.3876 159.104 48.6385 160.301 48.6385 161.597C48.6385 170.293 42.7765 177.398 34.94 179.932M29.9254 180.717C29.7897 180.717 29.6375 180.734 29.5099 180.734C26.0092 180.734 22.1547 179.397 19.8716 178.097C17.5063 176.809 16.6177 170.738 16.6177 167.669C16.6177 157.677 20.7149 151.728 21.3813 150.56C22.0313 149.375 23.4958 149.252 24.5694 149.54C25.6801 149.861 26.075 150.054 27.3544 150.433C28.0208 150.651 29.3742 150.926 30.3903 151.107C31.4063 151.35 32.5006 151.564 31.8424 153.46C31.1924 155.361 28.9793 159.927 28.7571 165.34C28.5432 170.24 29.1932 175.106 30.2998 178.097C31.0279 180.03 31.0279 180.754 29.9254 180.717M15.4618 157.907C14.528 157.413 13.4049 155.003 13.0265 154.299C12.7714 153.793 12.7714 152.345 13.1375 151.728C14.7007 148.993 16.918 146.459 19.7729 145.138C20.1225 144.986 20.6121 144.957 20.6121 145.796C20.6121 146.245 20.8548 146.944 20.863 147.388C20.863 147.837 21.0522 148.754 20.4846 149.478C19.8881 150.206 17.3335 154.735 16.6794 157.274C16.5725 157.841 16.3997 158.438 15.4618 157.907M14.9352 173.942C12.286 171.326 10.3978 166.587 10.3978 161.597C10.3978 159.659 10.6858 157.804 11.2 156.044C11.2 156.044 11.6731 155.254 12.0844 155.924C12.4012 156.418 12.8372 156.916 13.191 157.574C13.5859 158.232 15.6345 159.791 15.4618 161.062C14.746 165.731 15.3877 171.935 15.6098 172.98C15.8073 174.012 15.5235 174.452 14.9352 173.942M23.2983 143.509C25.2605 142.859 27.3544 142.493 29.5099 142.493C32.7885 142.493 35.9725 143.09 38.6299 144.784C39.3128 145.229 39.5062 145.747 39.5062 146.516C39.5062 149.022 35.5899 149.861 32.9983 149.861C30.3903 149.861 27.1816 148.828 24.9109 148.108C22.6483 147.401 22.1547 146.093 22.1547 145.496C22.1547 144.924 22.5948 143.74 23.2983 143.509M40.9789 146.294C41.3285 146.578 42.2541 147.327 42.2541 147.327C44.0805 148.993 45.7301 150.893 46.6886 153.172C47.8857 156.044 44.1711 160.392 43.0809 161.395C38.161 166.015 35.0799 165.929 33.3357 166.18C31.5915 166.435 30.4602 165.34 30.5054 164.028C30.6165 160.186 33.3521 153.563 34.1378 152.317C34.6397 151.514 35.5118 151.017 35.5118 151.017C37.3382 150.511 39.1112 149.75 40.0286 148.705C40.9254 147.643 40.9789 146.294 40.9789 146.294M29.6992 141.247C17.9382 141.247 8.41504 150.774 8.41504 162.527C8.41504 174.288 17.9382 183.811 29.6992 183.811C41.4519 183.811 50.9956 174.288 50.9956 162.527C50.9956 150.774 41.4519 141.247 29.6992 141.247" fill="#DA020E"/>
<path d="M241.615 162.478C241.615 148.512 252.948 137.195 266.931 137.195C280.921 137.195 292.246 148.512 292.246 162.478C292.246 176.468 280.921 187.806 266.931 187.806C252.948 187.806 241.615 176.468 241.615 162.478Z" fill="#FFE500" stroke="black" stroke-width="2.09797" stroke-miterlimit="3.863"/>
<path d="M281.756 173.855C281.201 174.402 280.888 173.924 281.123 172.9C281.316 171.884 281.962 165.66 281.242 160.991C281.065 159.724 283.126 158.169 283.504 157.503C283.883 156.849 284.315 156.339 284.619 155.861C285.043 155.17 285.491 155.944 285.491 155.944C286.034 157.725 286.298 159.588 286.298 161.518C286.298 166.524 284.385 171.246 281.756 173.855M280.041 157.207C279.383 154.677 276.811 150.127 276.231 149.403C275.647 148.704 275.832 147.774 275.841 147.325C275.841 146.881 276.096 146.17 276.096 145.709C276.096 144.907 276.581 144.923 276.927 145.075C279.798 146.396 282.003 148.893 283.583 151.653C283.932 152.282 283.94 153.722 283.681 154.212C283.311 154.919 282.196 157.33 281.242 157.84C280.288 158.362 280.148 157.754 280.041 157.207M276.844 178.026C274.557 179.305 270.703 180.654 267.185 180.654H266.778C265.696 180.683 265.672 179.93 266.412 178.005C267.486 175.039 268.156 170.152 267.934 165.265C267.712 159.827 265.528 155.31 264.849 153.397C264.191 151.501 265.289 151.27 266.318 151.057C267.338 150.855 268.687 150.559 269.357 150.345C270.616 149.962 271.024 149.769 272.134 149.452C273.216 149.173 274.672 149.312 275.335 150.468C275.985 151.653 280.09 157.638 280.09 167.606C280.09 170.658 279.193 176.722 276.844 178.026ZM261.776 179.852C253.919 177.306 248.069 170.206 248.069 161.518C248.069 160.238 248.32 159.054 248.423 158.362C248.575 157.564 249.176 157.433 249.476 158.021C249.752 158.556 251.117 161.468 254.211 164.019C257.346 166.586 260.706 167.988 265.487 168.087C266.067 168.116 266.338 168.968 266.338 169.786C266.338 170.597 265.849 176.619 263.886 178.869C263.364 179.445 262.862 180.235 261.776 179.852M250.036 153.105C250.969 150.826 252.627 148.893 254.454 147.264C254.454 147.264 255.359 146.499 255.708 146.231C255.708 146.231 255.782 147.593 256.692 148.613C257.597 149.641 259.353 150.448 261.18 150.929C261.18 150.929 262.039 151.451 262.553 152.254C263.364 153.463 266.079 160.078 266.198 163.949C266.231 165.265 265.112 166.359 263.364 166.108C261.611 165.874 258.539 165.927 253.623 161.333C252.537 160.325 248.822 155.985 250.036 153.105M258.065 144.713C260.76 143.01 263.903 142.414 267.185 142.414C269.358 142.414 271.423 142.784 273.401 143.434C274.129 143.66 274.557 144.833 274.557 145.421C274.557 146.001 274.076 147.325 271.797 148.037C269.526 148.736 266.33 149.781 263.726 149.781C261.105 149.781 257.202 148.93 257.202 146.437C257.202 145.684 257.391 145.137 258.065 144.713M266.984 141.192C255.235 141.192 245.708 150.723 245.708 162.447C245.708 174.237 255.235 183.731 266.984 183.731C278.753 183.731 288.28 174.237 288.28 162.447C288.28 150.723 278.753 141.192 266.984 141.192Z" fill="#DA020E"/>
<path d="M247.7 161.492C247.7 150.903 256.438 142.292 267.219 142.292C278.004 142.292 286.736 150.903 286.736 161.492C286.736 172.099 278.004 180.692 267.219 180.692C256.438 180.692 247.7 172.099 247.7 161.492Z" fill="url(#paint16_radial_121_1466)"/>
<defs>
<filter id="filter0_f_121_1466" x="81.4431" y="36.6216" width="133.151" height="216.665" filterUnits="userSpaceOnUse" color-interpolation-filters="sRGB">
<feFlood flood-opacity="0" result="BackgroundImageFix"/>
<feBlend mode="normal" in="SourceGraphic" in2="BackgroundImageFix" result="shape"/>
<feGaussianBlur stdDeviation="3.09142" result="effect1_foregroundBlur_121_1466"/>
</filter>
<radialGradient id="paint0_radial_121_1466" cx="0" cy="0" r="1" gradientUnits="userSpaceOnUse" gradientTransform="translate(148.679 289.772) scale(9.91952 7.37389)">
<stop stop-color="#FFE500"/>
<stop offset="0.5" stop-color="#FFE500"/>
<stop offset="1" stop-color="#E15007"/>
</radialGradient>
<radialGradient id="paint1_radial_121_1466" cx="0" cy="0" r="1" gradientUnits="userSpaceOnUse" gradientTransform="translate(121.43 286.354) scale(10.489 9.43105)">
<stop stop-color="#FFE500"/>
<stop offset="0.5" stop-color="#FFE500"/>
<stop offset="1" stop-color="#E15007"/>
</radialGradient>
<linearGradient id="paint2_linear_121_1466" x1="145.124" y1="126.806" x2="145.124" y2="181.873" gradientUnits="userSpaceOnUse">
<stop stop-color="#8F0904"/>
<stop offset="0.249601" stop-color="#B40509"/>
<stop offset="1" stop-color="#DA020E"/>
</linearGradient>
<radialGradient id="paint3_radial_121_1466" cx="0" cy="0" r="1" gradientUnits="userSpaceOnUse" gradientTransform="translate(116.473 16.3914) scale(11.9921 11.4182)">
<stop stop-color="#FFE500"/>
<stop offset="0.5" stop-color="#FFE500"/>
<stop offset="1" stop-color="#E15007"/>
</radialGradient>
<radialGradient id="paint4_radial_121_1466" cx="0" cy="0" r="1" gradientUnits="userSpaceOnUse" gradientTransform="translate(29.2991 77.2644) rotate(-60.273) scale(18.7126 16.4611)">
<stop stop-color="#FFE500"/>
<stop offset="0.5" stop-color="#FFE500"/>
<stop offset="1" stop-color="#E15007"/>
</radialGradient>
<linearGradient id="paint5_linear_121_1466" x1="26.7842" y1="69.8201" x2="31.3329" y2="74.8201" gradientUnits="userSpaceOnUse">
<stop stop-color="#FFE500"/>
<stop offset="0.5" stop-color="#FFE500"/>
<stop offset="1" stop-color="#E15007"/>
</linearGradient>
<linearGradient id="paint6_linear_121_1466" x1="37.117" y1="193.932" x2="68.5371" y2="229.994" gradientUnits="userSpaceOnUse">
<stop stop-color="#740703"/>
<stop offset="1" stop-color="#DA020E" stop-opacity="0"/>
</linearGradient>
<linearGradient id="paint7_linear_121_1466" x1="258.349" y1="193.932" x2="226.929" y2="229.994" gradientUnits="userSpaceOnUse">
<stop stop-color="#740703"/>
<stop offset="1" stop-color="#DA020E" stop-opacity="0"/>
</linearGradient>
<linearGradient id="paint8_linear_121_1466" x1="270.007" y1="127.567" x2="253.003" y2="111.567" gradientUnits="userSpaceOnUse">
<stop stop-color="#740703"/>
<stop offset="1" stop-color="#DA020E" stop-opacity="0"/>
</linearGradient>
<linearGradient id="paint9_linear_121_1466" x1="25.9931" y1="127.567" x2="43.9975" y2="108.567" gradientUnits="userSpaceOnUse">
<stop stop-color="#740703"/>
<stop offset="1" stop-color="#DA020E" stop-opacity="0"/>
</linearGradient>
<radialGradient id="paint10_radial_121_1466" cx="0" cy="0" r="1" gradientUnits="userSpaceOnUse" gradientTransform="translate(179.528 16.3914) rotate(180) scale(11.9921 11.4182)">
<stop stop-color="#FFE500"/>
<stop offset="0.5" stop-color="#FFE500"/>
<stop offset="1" stop-color="#E15007"/>
</radialGradient>
<radialGradient id="paint11_radial_121_1466" cx="0" cy="0" r="1" gradientUnits="userSpaceOnUse" gradientTransform="translate(148 10.8375) scale(9.0599 8.65967)">
<stop stop-color="#FFE500"/>
<stop offset="0.5" stop-color="#FFE500"/>
<stop offset="1" stop-color="#E15007"/>
</radialGradient>
<radialGradient id="paint12_radial_121_1466" cx="0" cy="0" r="1" gradientUnits="userSpaceOnUse" gradientTransform="translate(266.701 77.2644) rotate(-119.727) scale(18.7126 16.4611)">
<stop stop-color="#FFE500"/>
<stop offset="0.5" stop-color="#FFE500"/>
<stop offset="1" stop-color="#E15007"/>
</radialGradient>
<linearGradient id="paint13_linear_121_1466" x1="269.216" y1="69.8201" x2="264.667" y2="74.8201" gradientUnits="userSpaceOnUse">
<stop stop-color="#FFE500"/>
<stop offset="0.5" stop-color="#FFE500"/>
<stop offset="1" stop-color="#E15007"/>
</linearGradient>
<radialGradient id="paint14_radial_121_1466" cx="0" cy="0" r="1" gradientUnits="userSpaceOnUse" gradientTransform="translate(176.32 286.354) rotate(180) scale(10.4891 9.43105)">
<stop stop-color="#FFE500"/>
<stop offset="0.5" stop-color="#FFE500"/>
<stop offset="1" stop-color="#E15007"/>
</radialGradient>
<radialGradient id="paint15_radial_121_1466" cx="0" cy="0" r="1" gradientUnits="userSpaceOnUse" gradientTransform="translate(29.5617 161.585) scale(19.5182 19.1999)">
<stop stop-color="#DA030E" stop-opacity="0"/>
<stop offset="0.875" stop-color="#DA020E" stop-opacity="0"/>
<stop offset="1" stop-color="#DA020E"/>
</radialGradient>
<radialGradient id="paint16_radial_121_1466" cx="0" cy="0" r="1" gradientUnits="userSpaceOnUse" gradientTransform="translate(267.218 161.492) scale(19.5182 19.1999)">
<stop stop-color="#DA030E" stop-opacity="0"/>
<stop offset="0.875" stop-color="#DA020E" stop-opacity="0"/>
<stop offset="1" stop-color="#DA020E"/>
</radialGradient>
</defs>
</svg>
