<svg width="143" height="200" viewBox="0 0 143 200" fill="none" xmlns="http://www.w3.org/2000/svg">
<g clip-path="url(#clip0_121_1509)">
<path d="M118.642 46.7575C119.062 46.125 119.315 45.4344 119.315 44.7307C119.315 44.5329 119.297 44.3351 119.263 44.1383C119.123 43.3498 118.696 42.6805 118.072 42.2049C118.284 41.7587 118.418 41.2785 118.418 40.7811C118.418 39.3928 117.554 38.1566 116.297 37.6533C116.852 37.0395 117.174 36.2548 117.174 35.4115C117.174 33.8184 116.079 32.4907 114.568 32.1427C114.784 31.6899 114.93 31.2079 114.93 30.7004C114.93 28.8424 113.418 27.3309 111.561 27.3309C111.454 27.3309 111.346 27.3639 111.238 27.3747C111.315 27.0924 111.366 26.8047 111.366 26.509C111.366 24.6507 109.854 23.1389 107.997 23.1389C107.65 23.1389 107.312 23.2118 106.983 23.3171C106.977 21.4629 105.469 19.9563 103.613 19.9563C103.054 19.9563 102.527 20.1279 102.042 20.3899C101.571 19.0612 100.334 18.1127 98.9026 18.1127C97.8812 18.1127 96.9478 18.5901 96.3087 19.3744C95.6983 18.8342 94.9168 18.5157 94.0943 18.5157C94.0943 18.5157 93.9592 18.5312 93.8586 18.5435C93.9101 18.3091 93.9435 18.0713 93.9435 17.8282C93.9435 15.9695 92.4313 14.4577 90.5729 14.4577C90.1439 14.4577 89.73 14.5693 89.3319 14.7296C89.3228 13.8421 88.9762 13.0087 88.3484 12.3801C87.7121 11.7435 86.8653 11.3931 85.9649 11.3931C85.3752 11.3931 84.8214 11.5832 84.3128 11.8754C83.8403 10.5575 82.6077 9.61676 81.1811 9.61676C80.4119 9.61676 79.6917 9.8858 79.0982 10.3565C78.4869 9.38806 77.4349 8.76019 76.2749 8.76019C75.9757 8.76019 75.6821 8.82859 75.3906 8.90856C74.8378 8.32278 74.1651 7.84854 73.4084 7.55916C73.4084 7.55916 73.2306 7.50233 73.0699 7.45077C73.0699 7.12701 73.0699 6.12382 73.0699 5.69798C73.5519 5.69798 75.0374 5.69798 75.0374 5.69798C75.2188 5.69798 75.3657 5.55136 75.3657 5.37002V3.03741C75.3657 2.85641 75.2188 2.70944 75.0374 2.70944C75.0374 2.70944 73.5519 2.70944 73.0699 2.70944C73.0699 2.24502 73.0699 0.971034 73.0699 0.971034C73.0699 0.790038 72.9233 0.643066 72.7416 0.643066H70.2841C70.1028 0.643066 69.9562 0.790038 69.9562 0.971034C69.9562 0.971034 69.9562 2.24502 69.9562 2.70944C69.4742 2.70944 67.9912 2.70944 67.9912 2.70944C67.8098 2.70944 67.6632 2.85606 67.6632 3.03741V5.37002C67.6632 5.55136 67.8098 5.69798 67.9912 5.69798C67.9912 5.69798 69.4746 5.69798 69.9562 5.69798C69.9562 6.12382 69.9562 7.12701 69.9562 7.45077C69.7913 7.50374 69.6184 7.55916 69.6184 7.55916C68.8621 7.84819 68.1894 8.32208 67.6352 8.90856C67.344 8.82824 67.0501 8.75984 66.7512 8.75984C65.5909 8.75984 64.5389 9.38771 63.9279 10.3562C63.3347 9.8851 62.6136 9.61641 61.845 9.61641C60.4192 9.61641 59.1862 10.5572 58.7134 11.8747C58.2062 11.5828 57.653 11.3927 57.0613 11.3927C55.2148 11.3927 53.7139 12.8866 53.6949 14.7292C53.2958 14.5689 52.8815 14.4574 52.4536 14.4574C50.5948 14.4574 49.0827 15.9695 49.0827 17.8279C49.0827 18.0696 49.1167 18.3077 49.169 18.5431C49.0669 18.5312 48.9315 18.5154 48.9315 18.5154C48.1107 18.5154 47.3295 18.8339 46.7175 19.3737C46.0808 18.5894 45.1488 18.112 44.1263 18.112C42.6903 18.112 41.4542 19.0608 40.988 20.3895C40.499 20.1272 39.9711 19.9556 39.4124 19.9556C37.5578 19.9556 36.0499 21.4618 36.0439 23.3157C35.7149 23.2104 35.3789 23.1382 35.0316 23.1382C33.1732 23.1382 31.6614 24.6503 31.6614 26.5083C31.6614 26.8047 31.7123 27.092 31.7877 27.374C31.6797 27.3635 31.572 27.3302 31.465 27.3302C29.607 27.3302 28.0955 28.8417 28.0955 30.6997C28.0955 31.2083 28.2421 31.6902 28.46 32.142C26.9485 32.4903 25.8531 33.8177 25.8531 35.4105C25.8531 36.2534 26.1747 37.0381 26.7296 37.6522C25.4739 38.1563 24.6103 39.3921 24.6103 40.78C24.6103 41.2771 24.7432 41.7573 24.9523 42.2035C24.3293 42.6795 23.9031 43.3498 23.7635 44.1386C23.7288 44.3351 23.7116 44.5326 23.7116 44.73C23.7116 45.4337 23.9645 46.1243 24.3837 46.7568C23.9358 47.2198 23.6885 47.8038 23.6885 48.4776C23.6885 48.4945 23.6885 48.5113 23.6888 48.5285C23.7116 49.8449 24.5935 51.1259 25.4034 51.7587C26.9226 52.9457 28.5771 53.1085 29.9904 52.2684C31.3205 53.2186 32.9803 53.5624 34.5696 53.2302C34.5539 53.3316 34.5016 53.4277 34.5016 53.5298C34.5016 53.8269 34.5672 54.1243 34.6984 54.4021C34.9352 54.9097 35.3459 55.2917 35.8535 55.4762C36.1706 55.5912 36.5055 55.6116 36.8335 55.5568C36.8002 55.6119 36.7721 55.6705 36.75 55.7322C36.6525 56.0027 36.6722 56.3177 36.8037 56.5965C36.9265 56.8578 37.1436 57.0564 37.4147 57.1542C37.487 57.1805 37.5603 57.1907 37.6343 57.1967L37.1615 59.128C37.138 59.2245 37.1818 59.3248 37.2685 59.3732L39.2082 60.4529C39.0416 60.6637 38.9462 60.9243 38.9462 61.1944C38.9462 61.362 38.9813 61.5318 39.0556 61.6935C39.3499 62.314 40.0101 62.5743 40.5927 62.3028C50.2623 57.74 60.665 55.4271 71.5129 55.4271C82.3614 55.4271 92.7645 57.74 102.434 62.3021C103.02 62.5757 103.68 62.3147 103.969 61.6953C104.045 61.5325 104.081 61.361 104.081 61.1919C104.081 60.9225 103.986 60.6633 103.819 60.4529L105.757 59.3728C105.843 59.3248 105.887 59.2245 105.864 59.1284L105.39 57.1869C105.741 57.1444 106.063 56.941 106.225 56.5962C106.3 56.4355 106.339 56.2626 106.339 56.0932C106.339 55.9693 106.318 55.8476 106.277 55.734C106.247 55.6508 106.203 55.5758 106.153 55.5049C107.032 55.654 107.933 55.2461 108.33 54.4014C108.46 54.1254 108.525 53.8297 108.525 53.534C108.525 53.4301 108.472 53.333 108.455 53.2298C110.045 53.562 111.706 53.2183 113.038 52.2684C114.449 53.1078 116.104 52.945 117.623 51.7591C118.433 51.1263 119.314 49.8456 119.337 48.5292C119.337 48.5124 119.337 48.4955 119.337 48.4787C119.338 47.8049 119.091 47.2208 118.642 46.7575V46.7575ZM41.9565 31.9873C41.9565 32.0631 41.9688 32.1361 41.974 32.2108C40.3352 32.5749 38.467 33.0635 36.9482 33.6602C35.8664 34.086 34.9678 34.6195 34.2357 35.1583C35.8801 31.6583 38.6649 29.1956 43.2266 26.8223C43.274 27.5863 43.5725 28.2941 44.0818 28.856C42.8225 29.3587 41.9565 30.5955 41.9565 31.9873ZM68.9881 20.6828C68.6948 21.1563 68.5254 21.6905 68.5254 22.2479C68.5254 22.806 68.6948 23.3409 68.9881 23.8148C68.9881 23.8874 68.9881 24.6426 68.9881 25.2729C63.6255 24.5002 56.7543 25.0151 51.3949 27.795C53.9566 21.385 59.8912 16.3108 68.5268 16.8079C68.5286 17.3624 68.6966 17.8935 68.9881 18.3642C68.9881 18.487 68.9881 20.5604 68.9881 20.6828V20.6828ZM74.0391 25.2729C74.0391 24.6426 74.0391 23.8874 74.0391 23.8148C74.3313 23.3427 74.5011 22.8081 74.5011 22.2479C74.5011 21.6881 74.3313 21.1542 74.0391 20.6828C74.0391 20.56 74.0391 18.487 74.0391 18.3642C74.3296 17.8956 74.4979 17.3649 74.4997 16.8079C83.1352 16.3112 89.0695 21.385 91.6312 27.795C86.2718 25.0151 79.401 24.5002 74.0391 25.2729V25.2729ZM106.078 33.6602C104.557 33.0628 102.691 32.5745 101.055 32.2108C101.059 32.1361 101.072 32.0631 101.072 31.9873C101.072 30.5962 100.205 29.359 98.9458 28.8564C99.4547 28.2945 99.7529 27.5866 99.8006 26.8216C104.362 29.1952 107.146 31.6576 108.79 35.1579C108.058 34.6192 107.159 34.086 106.078 33.6602V33.6602Z" fill="#00529F"/>
<path d="M109.794 50.168C109.3 50.1961 108.807 50.1087 108.367 49.8664C107.51 49.3942 106.988 48.4991 106.988 47.5362C106.988 47.4748 106.993 47.4127 106.997 47.351C107.311 46.9701 107.545 46.54 107.67 46.0574C107.743 45.7754 107.779 45.4898 107.779 45.2061C107.779 44.6101 107.619 44.0226 107.308 43.4954C106.848 42.7149 106.11 42.1611 105.232 41.9355C103.427 41.47 101.577 42.5627 101.109 44.3712C101.108 44.3744 101.057 44.736 101.028 44.9381C100.373 45.7638 99.3059 46.1328 98.2813 45.8697C97.1385 45.5754 96.3654 44.5782 96.3086 43.4294C98.7264 43.8998 100.206 42.9959 100.809 40.6485C100.934 40.1603 100.997 39.7088 100.997 39.2935C100.997 38.0276 100.39 37.103 99.2095 36.4684C99.2102 36.4302 99.2133 36.3906 99.2133 36.3527C99.2133 35.877 99.1175 35.4551 98.9702 35.0661C100.005 34.636 100.767 33.7279 100.995 32.6489C102.605 33.0078 104.431 33.4873 105.917 34.0706C107.298 34.6139 108.374 35.3467 109.17 36.0279C109.995 38.0988 110.473 40.524 110.717 43.475C109.889 43.8314 109.218 44.6224 108.736 45.8795C108.495 46.5144 108.374 47.096 108.374 47.6267C108.374 48.6664 108.861 49.5019 109.794 50.168V50.168Z" fill="#EE324E"/>
<path d="M90.6208 41.9677C90.0151 42.9442 88.8666 43.4486 87.7238 43.1543C86.5912 42.8635 85.7851 41.8502 85.7378 40.6835C85.9925 40.2015 86.1398 39.6677 86.1398 39.1187C86.1398 37.2516 84.6213 35.7324 82.7549 35.7324C80.8874 35.7324 79.3682 37.2516 79.3682 39.1187C79.3682 39.3997 79.4222 39.6736 79.4924 39.9427C79.1349 41.0504 78.1286 41.7951 76.963 41.7951C75.7837 41.7951 74.8079 41.0139 74.4676 39.9171C76.9058 39.7634 78.1103 38.5238 78.1103 36.1098C78.1103 34.0561 77.2478 32.8596 75.4954 32.4426C75.2056 31.2187 74.4862 30.4151 73.3662 30.0244C74.0674 29.4659 74.502 28.6206 74.502 27.6988C74.502 27.1375 74.3322 26.604 74.04 26.1336C74.04 26.1021 74.04 25.9397 74.04 25.7159C79.4804 24.9186 86.519 25.4605 91.8678 28.4126C92.3985 29.8809 92.7581 31.4095 92.9327 32.9519C92.327 33.2532 91.8359 33.7558 91.4676 34.4546C89.6688 34.4247 88.5422 35.3771 88.0304 37.3638C87.9055 37.8503 87.8424 38.3007 87.8424 38.716C87.8421 40.3019 88.7691 41.3693 90.6208 41.9677V41.9677Z" fill="#EE324E"/>
<path d="M69.661 30.0244C68.541 30.4148 67.8216 31.2191 67.5318 32.4426C65.7787 32.8597 64.9161 34.0561 64.9161 36.1099C64.9161 38.5239 66.1207 39.7631 68.5613 39.9171C68.2186 41.014 67.2424 41.7951 66.0632 41.7951C64.9147 41.7951 63.887 41.0336 63.5369 39.9427C63.6057 39.6719 63.6583 39.3969 63.6583 39.1188C63.6583 38.2138 63.3061 37.3635 62.6667 36.7241C62.0272 36.0843 61.177 35.7321 60.272 35.7321C58.4041 35.7321 56.885 37.2513 56.885 39.1184C56.885 39.6611 57.0337 40.1956 57.2894 40.6832C57.2431 41.8499 56.4363 42.8629 55.3023 43.154C54.1595 43.4487 53.0111 42.9439 52.4067 41.9674C54.2588 41.369 55.1855 40.3016 55.1855 38.7154C55.1855 38.3001 55.1227 37.8497 54.9978 37.3635C54.4854 35.3768 53.359 34.4245 51.5603 34.4543C51.1941 33.7562 50.702 33.2539 50.0938 32.9512C50.2688 31.4093 50.6283 29.8806 51.1587 28.4126C56.5079 25.4602 63.5468 24.9186 68.9879 25.7159C68.9879 25.9397 68.9879 26.1021 68.9879 26.1337C68.6946 26.6062 68.5252 27.1401 68.5252 27.6988C68.5256 28.6206 68.9598 29.4656 69.661 30.0244V30.0244Z" fill="#EE324E"/>
<path d="M43.8175 36.4685C42.6372 37.1024 42.0318 38.0263 42.0318 39.2926C42.0318 39.7086 42.0949 40.1604 42.2205 40.6486C42.8217 42.997 44.3016 43.901 46.7184 43.4295C46.664 44.5779 45.8902 45.5752 44.7442 45.8698C43.7203 46.1329 42.6519 45.7635 41.9988 44.9382C41.9735 44.7618 41.9185 44.3756 41.9185 44.3756C41.4509 42.5628 39.6013 41.4698 37.7941 41.9356C36.9176 42.1608 36.1813 42.714 35.7207 43.4934C35.4089 44.0213 35.2493 44.6106 35.2493 45.2076C35.2493 45.4906 35.2851 45.7758 35.3577 46.0568C35.4808 46.5384 35.7151 46.9684 36.0305 47.3508C36.0347 47.4115 36.0392 47.4721 36.0392 47.5325C36.0392 48.4974 35.5173 49.3943 34.6611 49.8658C34.2212 50.1078 33.7273 50.1951 33.2345 50.1678C34.1668 49.502 34.653 48.6665 34.653 47.6279C34.653 47.0968 34.532 46.5152 34.2906 45.8803C33.8122 44.6232 33.1401 43.8319 32.3081 43.4748C32.5526 40.5245 33.031 38.0996 33.8553 36.029C34.6519 35.3475 35.7274 34.614 37.1091 34.0703C38.5925 33.4877 40.4203 33.0079 42.0332 32.6487C42.2605 33.7276 43.022 34.6361 44.0567 35.0662C43.9091 35.4573 43.8137 35.8796 43.8137 36.3531C43.8137 36.391 43.8168 36.4303 43.8175 36.4685V36.4685Z" fill="#EE324E"/>
<path d="M100.664 48.9052C101.342 48.7252 101.983 48.4383 102.563 48.0461C102.868 48.244 103.194 48.4032 103.548 48.4934C103.548 48.4934 103.655 48.5127 103.762 48.5323C103.916 49.204 104.188 49.8533 104.557 50.4496C103.27 49.9014 101.97 49.3861 100.664 48.9052Z" fill="#EE324E"/>
<path d="M71.5131 43.7182C71.5131 43.7182 70.4917 43.7371 69.5874 43.754C70.4657 43.0851 71.1308 42.1944 71.5131 41.1628C71.8958 42.1941 72.5605 43.0847 73.4392 43.754C72.5349 43.7368 71.5131 43.7182 71.5131 43.7182V43.7182Z" fill="#EE324E"/>
<path d="M38.4707 50.4494C38.8411 49.8531 39.113 49.2034 39.2648 48.5324C39.3729 48.5128 39.4806 48.4931 39.4806 48.4931C39.8324 48.4033 40.1589 48.2441 40.4659 48.0459C41.0394 48.4331 41.6858 48.7218 42.3674 48.9035C41.0569 49.3862 39.757 49.9018 38.4707 50.4494V50.4494Z" fill="#EE324E"/>
<path d="M48.6963 46.8529C49.3613 45.9918 49.7444 44.9609 49.8542 43.8809C50.4768 44.7844 51.3369 45.4849 52.3478 45.9185C51.1155 46.204 49.8977 46.5162 48.6963 46.8529Z" fill="#EE324E"/>
<path d="M58.8418 44.6788C59.4907 44.06 59.9972 43.315 60.3262 42.4952C60.5627 42.4914 60.7938 42.4447 61.0239 42.3928C61.549 43.1133 62.2323 43.7142 63.023 44.1554C61.6283 44.295 60.2333 44.4694 58.8418 44.6788V44.6788Z" fill="#EE324E"/>
<path d="M80.0034 44.1554C80.7937 43.7145 81.478 43.1136 82.0053 42.3928C82.2333 42.4447 82.4634 42.4914 82.7001 42.4952C83.0302 43.3157 83.5371 44.0607 84.1853 44.6788C82.7945 44.4697 81.3991 44.295 80.0034 44.1554V44.1554Z" fill="#EE324E"/>
<path d="M90.6792 45.9182C91.6908 45.4847 92.5505 44.7842 93.1725 43.8806C93.283 44.9606 93.6667 45.9915 94.3317 46.853C93.1304 46.5163 91.9118 46.2041 90.6792 45.9182Z" fill="#EE324E"/>
<path d="M65.2515 12.1289C65.2515 11.3032 65.9242 10.6311 66.7513 10.6311C67.5771 10.6311 68.2495 11.3028 68.2495 12.1289C68.2495 12.9549 67.5774 13.627 66.7513 13.627C65.9246 13.627 65.2515 12.9549 65.2515 12.1289V12.1289Z" fill="white"/>
<path d="M70.0151 16.7988C70.0151 15.9724 70.6872 15.3003 71.5133 15.3003C72.3393 15.3003 73.0114 15.9727 73.0114 16.7988C73.0114 17.6245 72.3393 18.2962 71.5133 18.2962C70.6872 18.2962 70.0151 17.6245 70.0151 16.7988Z" fill="white"/>
<path d="M70.0151 22.2479C70.0151 21.4218 70.6872 20.7498 71.5133 20.7498C72.3393 20.7498 73.0114 21.4222 73.0114 22.2479C73.0114 23.0746 72.3393 23.7471 71.5133 23.7471C70.6872 23.7471 70.0151 23.0746 70.0151 22.2479Z" fill="white"/>
<path d="M70.0151 27.6986C70.0151 26.8729 70.6872 26.2012 71.5133 26.2012C72.3393 26.2012 73.0114 26.8729 73.0114 27.6986C73.0114 28.5243 72.3393 29.196 71.5133 29.196C70.6872 29.196 70.0151 28.5243 70.0151 27.6986Z" fill="white"/>
<path d="M60.3481 12.9867C60.3481 12.5865 60.5039 12.2104 60.787 11.9277C61.07 11.645 61.4453 11.4893 61.8449 11.4893C62.6706 11.4893 63.3426 12.161 63.3426 12.9867C63.3426 13.812 62.6709 14.4838 61.8449 14.4838C61.0195 14.4838 60.3481 13.812 60.3481 12.9867V12.9867Z" fill="white"/>
<path d="M55.563 14.7633C55.563 13.9372 56.2351 13.2651 57.0611 13.2651C57.8868 13.2651 58.5585 13.9376 58.5585 14.7633C58.5585 15.5886 57.8868 16.2603 57.0611 16.2603C56.2351 16.26 55.563 15.5886 55.563 14.7633Z" fill="white"/>
<path d="M50.9546 17.8282C50.9546 17.0021 51.627 16.3301 52.4534 16.3301C52.8526 16.3301 53.2283 16.4862 53.511 16.7689C53.7941 17.052 53.9494 17.428 53.9494 17.8282C53.9494 18.6543 53.2781 19.3263 52.4531 19.3263C51.627 19.3263 50.9546 18.6543 50.9546 17.8282V17.8282Z" fill="white"/>
<path d="M47.436 21.8859C47.436 21.0599 48.1074 20.3875 48.9321 20.3875C49.7581 20.3875 50.4305 21.0599 50.4305 21.8859C50.4305 22.7109 49.7581 23.382 48.9321 23.382C48.1071 23.382 47.436 22.7106 47.436 21.8859Z" fill="white"/>
<path d="M42.6279 21.4819C42.6279 20.6569 43.3004 19.9858 44.1271 19.9858C44.5266 19.9858 44.9023 20.1416 45.185 20.4243C45.4677 20.7067 45.6235 21.0823 45.6235 21.4822C45.6235 22.309 44.9521 22.9817 44.1271 22.9817C43.3004 22.9814 42.6279 22.3086 42.6279 21.4819V21.4819Z" fill="white"/>
<path d="M37.9141 23.3268C37.9141 22.5008 38.5865 21.8284 39.4132 21.8284C40.2383 21.8284 40.9093 22.5008 40.9093 23.3268C40.9093 24.1526 40.2379 24.825 39.4132 24.825C38.5865 24.8246 37.9141 24.1526 37.9141 23.3268Z" fill="white"/>
<path d="M33.5322 26.509C33.5322 25.6833 34.2046 25.0112 35.0318 25.0112C35.8564 25.0112 36.5278 25.6833 36.5278 26.509C36.5278 27.3351 35.8564 28.0075 35.0318 28.0075C34.205 28.0075 33.5322 27.3351 33.5322 26.509V26.509Z" fill="white"/>
<path d="M29.9692 30.7005C29.9692 29.8741 30.6406 29.2017 31.4653 29.2017C32.2917 29.2017 32.9644 29.8741 32.9644 30.7005C32.9644 31.5262 32.2917 32.1983 31.4653 32.1983C30.6403 32.1979 29.9692 31.5262 29.9692 30.7005Z" fill="white"/>
<path d="M27.7251 35.4112C27.7251 34.5862 28.3975 33.9148 29.2243 33.9148C30.0503 33.9148 30.7224 34.5862 30.7224 35.4112C30.7224 36.2379 30.05 36.9111 29.2243 36.9111C28.3975 36.9111 27.7251 36.2383 27.7251 35.4112Z" fill="white"/>
<path d="M26.4814 40.7812C26.4814 39.9562 27.1539 39.2852 27.9796 39.2852C28.8053 39.2852 29.477 39.9562 29.477 40.7812C29.477 41.6072 28.8053 42.2797 27.9796 42.2797C27.1535 42.2797 26.4814 41.6072 26.4814 40.7812Z" fill="white"/>
<path d="M45.0757 26.6146C45.0757 26.2147 45.2318 25.8383 45.5152 25.5549C45.7986 25.2718 46.1743 25.1157 46.5735 25.1157C47.3992 25.1157 48.0709 25.7881 48.0709 26.6146C48.0709 27.4403 47.3992 28.1123 46.5735 28.1123C45.7478 28.112 45.0757 27.4403 45.0757 26.6146V26.6146Z" fill="white"/>
<path d="M43.8301 31.9874C43.8301 31.1617 44.5014 30.49 45.3261 30.49C46.1522 30.49 46.8242 31.1621 46.8242 31.9874C46.8242 32.8131 46.1518 33.4852 45.3261 33.4852C44.5011 33.4852 43.8301 32.8135 43.8301 31.9874Z" fill="white"/>
<path d="M68.8198 35.4848C68.8198 33.9993 70.0279 32.7905 71.5134 32.7905C72.9989 32.7905 74.2076 33.9993 74.2076 35.4848C74.2076 36.9703 72.9992 38.1794 71.5134 38.1794C70.0282 38.1794 68.8198 36.9703 68.8198 35.4848Z" fill="white"/>
<path d="M47.0821 40.7223C46.4619 40.3564 46.0217 39.7703 45.8421 39.0723C45.4731 37.6331 46.3433 36.1616 47.7822 35.7922C49.2207 35.4222 50.6925 36.2921 51.0633 37.7316C51.4337 39.1687 50.5641 40.6398 49.1253 41.011C48.4273 41.1906 47.7019 41.0881 47.0821 40.7223V40.7223Z" fill="white"/>
<path d="M26.1973 49.0904C25.4825 47.7894 25.9581 46.1471 27.2591 45.4305C27.8905 45.0829 28.6197 45.0026 29.3118 45.2036C30.0025 45.4046 30.5739 45.8623 30.9197 46.4923C30.9197 46.4926 30.9197 46.4926 30.9197 46.4926C31.636 47.7929 31.16 49.4342 29.859 50.1515C28.5583 50.8674 26.9157 50.3914 26.1973 49.0904Z" fill="white"/>
<path d="M74.7803 12.1289C74.7803 11.7287 74.936 11.3523 75.2184 11.0692C75.5007 10.7868 75.8757 10.6311 76.2752 10.6311C77.102 10.6311 77.7748 11.3028 77.7748 12.1289C77.7748 12.9549 77.102 13.627 76.2752 13.627C75.4506 13.627 74.7803 12.9549 74.7803 12.1289V12.1289Z" fill="white"/>
<path d="M79.686 12.9867C79.686 12.161 80.3564 11.4893 81.1814 11.4893C82.0074 11.4893 82.6802 12.161 82.6802 12.9867C82.6802 13.812 82.0074 14.4838 81.1814 14.4838C80.3564 14.4838 79.686 13.812 79.686 12.9867V12.9867Z" fill="white"/>
<path d="M84.4683 14.7633C84.4683 13.9372 85.14 13.2651 85.9653 13.2651C86.7917 13.2651 87.4642 13.9376 87.4642 14.7633C87.4642 15.5886 86.7917 16.2603 85.9653 16.2603C85.14 16.26 84.4683 15.5886 84.4683 14.7633Z" fill="white"/>
<path d="M89.0762 17.8282C89.0762 17.0021 89.7479 16.3301 90.5733 16.3301C91.3997 16.3301 92.0717 17.0025 92.0717 17.8282C92.0717 18.6543 91.3997 19.3263 90.5733 19.3263C89.7479 19.3263 89.0762 18.6543 89.0762 17.8282V17.8282Z" fill="white"/>
<path d="M92.5967 21.8859C92.5967 21.0599 93.2684 20.3875 94.0948 20.3875C94.4947 20.3875 94.87 20.5432 95.1531 20.8259C95.4358 21.1086 95.5919 21.4854 95.5919 21.8859C95.5919 22.7109 94.9202 23.382 94.0948 23.382C93.2684 23.382 92.5967 22.7106 92.5967 21.8859Z" fill="white"/>
<path d="M97.4033 21.4819C97.4033 20.6569 98.0761 19.9858 98.9025 19.9858C99.7279 19.9858 100.4 20.6572 100.4 21.4819C100.4 22.3086 99.7279 22.9814 98.9025 22.9814C98.0761 22.9814 97.4033 22.3086 97.4033 21.4819Z" fill="white"/>
<path d="M102.117 23.3268C102.117 22.5008 102.788 21.8284 103.613 21.8284C104.44 21.8284 105.113 22.5008 105.113 23.3268C105.113 24.1526 104.44 24.825 103.613 24.825C102.788 24.8246 102.117 24.1526 102.117 23.3268Z" fill="white"/>
<path d="M106.498 26.509C106.498 25.6833 107.17 25.0112 107.997 25.0112C108.822 25.0112 109.493 25.6833 109.493 26.509C109.493 27.3351 108.822 28.0075 107.997 28.0075C107.17 28.0075 106.498 27.3351 106.498 26.509V26.509Z" fill="white"/>
<path d="M110.062 30.7005C110.062 29.8741 110.735 29.2017 111.561 29.2017C112.387 29.2017 113.059 29.8741 113.059 30.7005C113.059 31.5262 112.387 32.1983 111.561 32.1983C110.735 32.1979 110.062 31.5262 110.062 30.7005Z" fill="white"/>
<path d="M112.307 35.4112C112.307 34.5862 112.979 33.9148 113.804 33.9148C114.63 33.9148 115.302 34.5862 115.302 35.4112C115.302 36.2379 114.63 36.9111 113.804 36.9111C112.979 36.9111 112.307 36.2383 112.307 35.4112Z" fill="white"/>
<path d="M113.549 40.7812C113.549 39.9562 114.222 39.2852 115.049 39.2852C115.874 39.2852 116.545 39.9562 116.545 40.7812C116.545 41.6072 115.874 42.2797 115.049 42.2797C114.222 42.2797 113.549 41.6072 113.549 40.7812Z" fill="white"/>
<path d="M94.9556 26.6146C94.9556 25.7881 95.6276 25.1157 96.4537 25.1157C97.2798 25.1157 97.9511 25.7881 97.9511 26.6146C97.9511 27.4403 97.2798 28.1123 96.4537 28.1123C95.6276 28.1123 94.9556 27.4403 94.9556 26.6146V26.6146Z" fill="white"/>
<path d="M96.2012 31.9874C96.2012 31.1617 96.8732 30.49 97.7 30.49C98.5257 30.49 99.1981 31.1621 99.1981 31.9874C99.1981 32.8131 98.5261 33.4852 97.7 33.4852C96.8732 33.4852 96.2012 32.8135 96.2012 31.9874Z" fill="white"/>
<path d="M93.9035 41.011C93.2058 40.8314 92.6204 40.3915 92.2549 39.7721C91.8894 39.1533 91.7866 38.4283 91.9662 37.732V37.7316C92.1447 37.0347 92.5839 36.4492 93.2023 36.083C93.8221 35.7161 94.5478 35.613 95.2452 35.7922C95.9425 35.9715 96.5283 36.4113 96.8941 37.0311C97.2603 37.6506 97.3631 38.3753 97.1835 39.0723C97.0036 39.7706 96.5641 40.3571 95.9446 40.723C95.3255 41.0881 94.6008 41.1906 93.9035 41.011V41.011Z" fill="white"/>
<path d="M113.168 50.152C112.537 49.8037 112.078 49.2305 111.878 48.5381C111.68 47.8482 111.761 47.1221 112.108 46.4935C112.108 46.4935 112.108 46.4931 112.108 46.4928C112.454 45.8625 113.025 45.4047 113.717 45.2037C114.409 45.0027 115.137 45.0834 115.767 45.4307C116.398 45.7769 116.856 46.3476 117.056 47.0379C117.257 47.7296 117.177 48.4588 116.83 49.0913C116.113 50.3923 114.47 50.8683 113.168 50.152V50.152Z" fill="white"/>
<path d="M60.3774 51.8128C60.3774 51.4133 60.5335 51.0369 60.817 50.7539C61.1 50.4708 61.4757 50.3147 61.8752 50.3147C62.7023 50.3147 63.3751 50.9868 63.3751 51.8128C63.3751 52.6389 62.7023 53.3113 61.8752 53.3113C61.0495 53.3113 60.3774 52.6392 60.3774 51.8128V51.8128Z" fill="white"/>
<path d="M41.7979 56.8343C41.7979 56.4341 41.9536 56.0577 42.2367 55.7746C42.5194 55.4919 42.8951 55.3362 43.2942 55.3362C44.121 55.3362 44.7934 56.0086 44.7934 56.8347C44.7934 57.6611 44.121 58.3335 43.2942 58.3335C42.4689 58.3335 41.7979 57.6611 41.7979 56.8343Z" fill="white"/>
<path d="M71.5131 49.5396C71.6471 49.5894 75.4287 50.9987 76.3074 51.326C75.4287 51.654 71.6471 53.0637 71.5131 53.1139C71.3791 53.0637 67.5989 51.6536 66.7202 51.326C67.5989 50.9984 71.3791 49.5894 71.5131 49.5396V49.5396Z" fill="#EE324E"/>
<path d="M38.113 57.0984C38.4599 57.2257 39.8427 57.7343 40.1282 57.8392C40.0521 58.1367 39.6473 59.7204 39.5417 60.1339C39.1723 59.9287 37.858 59.197 37.6304 59.0704C37.6921 58.8179 38.0253 57.4562 38.113 57.0984V57.0984Z" fill="#EE324E"/>
<path d="M79.6543 51.8128C79.6543 50.9868 80.3257 50.3147 81.1507 50.3147C81.9778 50.3147 82.6516 50.9868 82.6516 51.8128C82.6516 52.6389 81.9778 53.3113 81.1507 53.3113C80.3257 53.3113 79.6543 52.6392 79.6543 51.8128Z" fill="white"/>
<path d="M98.2358 56.8344C98.2358 56.0084 98.9069 55.3359 99.7322 55.3359C100.557 55.3359 101.229 56.0084 101.229 56.8344C101.229 57.6608 100.557 58.3332 99.7322 58.3332C98.9069 58.3336 98.2358 57.6612 98.2358 56.8344Z" fill="white"/>
<path d="M105.481 55.7641C105.481 55.7641 105.481 55.7637 105.481 55.7641C94.8191 50.74 83.3908 48.1924 71.5134 48.1924C59.6357 48.1924 48.2077 50.74 37.5454 55.7641C37.4584 55.8047 37.3988 55.8693 37.3675 55.9552C37.329 56.0629 37.3395 56.1948 37.3977 56.3183C37.4465 56.4217 37.5317 56.5 37.638 56.5382C37.7439 56.5764 37.8583 56.5708 37.9607 56.5228C38.0396 56.4859 38.1301 56.4817 38.2122 56.5115C38.2943 56.541 38.3609 56.6024 38.3978 56.6817L38.4269 56.7448L40.4659 57.4944C40.5718 57.5333 40.6314 57.6463 40.6034 57.7557L39.998 60.1241L40.066 60.2704C40.1421 60.4342 40.0716 60.6285 39.9082 60.7053C39.6426 60.8306 39.5276 61.1508 39.6496 61.4163C39.7672 61.6619 40.032 61.8408 40.314 61.7092C50.0706 57.1057 60.5677 54.7717 71.5131 54.7717C82.4588 54.7717 92.9566 57.1057 102.712 61.7089C102.996 61.8411 103.261 61.6629 103.375 61.4177C103.5 61.1508 103.385 60.8313 103.118 60.7053C102.955 60.6292 102.884 60.4342 102.961 60.2704L103.029 60.1231L102.423 57.7557C102.395 57.6459 102.455 57.5333 102.561 57.4944L104.599 56.7455L104.629 56.6817C104.665 56.6024 104.732 56.5414 104.814 56.5115C104.896 56.4817 104.986 56.4859 105.065 56.5228C105.278 56.6227 105.532 56.5305 105.632 56.3179C105.689 56.1962 105.699 56.065 105.66 55.9573C105.629 55.8703 105.569 55.8054 105.481 55.7641V55.7641ZM43.2941 58.7736C42.226 58.7736 41.3575 57.9037 41.3575 56.8343C41.3575 56.3162 41.5592 55.8293 41.9254 55.4627C42.2913 55.0965 42.7774 54.8952 43.2945 54.8952C44.364 54.8952 45.2342 55.7648 45.2342 56.8343C45.2342 57.9037 44.364 58.7736 43.2941 58.7736ZM57.8503 52.5542L53.1048 55.8658C53.0613 55.8959 53.0083 55.9096 52.9553 55.904L47.1968 55.2958C47.1052 55.2863 47.0291 55.2207 47.0063 55.1316C46.9835 55.0425 47.0182 54.9485 47.094 54.8959L51.8423 51.5861C51.8858 51.5559 51.9388 51.5422 51.9914 51.5478L57.7472 52.154C57.8387 52.1634 57.9145 52.229 57.9373 52.3181C57.9601 52.4072 57.9257 52.5019 57.8503 52.5542V52.5542ZM61.8754 53.7517C60.8066 53.7517 59.9374 52.8818 59.9374 51.8127C59.9374 51.2953 60.1391 50.8084 60.506 50.4419C60.8722 50.0757 61.3587 49.874 61.8757 49.874C62.9459 49.874 63.8162 50.7435 63.8162 51.8127C63.8158 52.8818 62.9452 53.7517 61.8754 53.7517V53.7517ZM77.0156 51.5324L71.5906 53.5553C71.5411 53.5735 71.4864 53.5739 71.4366 53.5553L66.0134 51.5324C65.9271 51.5001 65.8699 51.418 65.8699 51.3258C65.8699 51.2339 65.9271 51.1515 66.0134 51.1192L71.4366 49.0974C71.4864 49.0788 71.5408 49.0791 71.5906 49.0974L77.0156 51.1192C77.1018 51.1515 77.1587 51.2339 77.1587 51.3258C77.1587 51.418 77.1018 51.5001 77.0156 51.5324ZM81.1508 53.7517C80.0827 53.7517 79.2142 52.8818 79.2142 51.8127C79.2142 50.7439 80.083 49.874 81.1508 49.874C82.2213 49.874 83.0923 50.7435 83.0923 51.8127C83.0923 52.8818 82.2213 53.7517 81.1508 53.7517ZM95.8293 55.2961L90.0743 55.9044C90.0217 55.91 89.9687 55.8966 89.9252 55.8661L85.1765 52.5545C85.1015 52.5023 85.0657 52.4079 85.0888 52.3188C85.1113 52.2297 85.1874 52.1645 85.2789 52.1547L91.0357 51.5485C91.088 51.5429 91.141 51.5562 91.1848 51.5868L95.9321 54.8966C96.0075 54.9482 96.0423 55.0429 96.0198 55.1323C95.997 55.2211 95.9213 55.2867 95.8293 55.2961ZM99.732 58.7736C98.6642 58.7736 97.7954 57.9037 97.7954 56.8343C97.7954 55.7651 98.6646 54.8952 99.732 54.8952C100.8 54.8952 101.669 55.7648 101.669 56.8343C101.669 57.9037 100.8 58.7736 99.732 58.7736Z" fill="#FEBE10"/>
<path d="M118.031 47.0638C117.897 46.9508 117.875 46.7519 117.982 46.6127C118.534 45.8946 118.759 45.0567 118.616 44.253C118.492 43.554 118.096 42.9615 117.501 42.5858C117.351 42.4911 117.303 42.2954 117.393 42.1428C117.634 41.7314 117.761 41.2606 117.761 40.7811C117.761 39.5054 116.856 38.3893 115.608 38.1269C115.483 38.1006 115.385 38.0041 115.356 37.8799C115.327 37.7558 115.373 37.626 115.473 37.5474C116.137 37.0286 116.518 36.2499 116.518 35.4116C116.518 34.0054 115.463 32.845 114.063 32.7117C113.949 32.7009 113.848 32.6307 113.798 32.5265C113.749 32.4223 113.757 32.2999 113.821 32.2042C114.117 31.7576 114.273 31.2375 114.273 30.7004C114.273 29.2041 113.056 27.9869 111.561 27.9869C111.326 27.9869 111.086 28.0195 110.848 28.084C110.725 28.117 110.594 28.0767 110.512 27.9795C110.43 27.8824 110.411 27.7466 110.464 27.6309C110.627 27.2752 110.709 26.8978 110.709 26.5091C110.709 25.0124 109.492 23.7945 107.997 23.7945C107.569 23.7945 107.144 23.8973 106.768 24.0913C106.661 24.146 106.535 24.1284 106.436 24.0625C106.337 23.9962 106.283 23.8717 106.293 23.7528L106.328 23.3266C106.328 21.8295 105.11 20.6116 103.613 20.6116C103.054 20.6116 102.519 20.7814 102.064 21.1024C101.974 21.1659 101.858 21.1795 101.756 21.1399C101.654 21.1003 101.578 21.0119 101.555 20.9049C101.281 19.6667 100.166 18.768 98.9021 18.768C97.9764 18.768 97.123 19.2356 96.6172 20.0192C96.5625 20.1051 96.4699 20.1598 96.3681 20.1683C96.2668 20.1767 96.1671 20.137 96.0984 20.0616C95.5866 19.4958 94.8556 19.1714 94.0938 19.1714L93.4834 19.2429C93.3687 19.2563 93.2375 19.2121 93.167 19.1205C93.0969 19.0297 93.0611 18.9111 93.1028 18.8038C93.2253 18.4919 93.2877 18.164 93.2877 17.8283C93.2877 16.3312 92.0691 15.1134 90.5724 15.1134C90.069 15.1134 89.5727 15.2565 89.1367 15.5273C89.0315 15.5929 88.8989 15.5806 88.7933 15.5153C88.6874 15.4504 88.6291 15.3186 88.64 15.1947L88.6782 14.7629C88.6782 14.0379 88.3959 13.3564 87.8834 12.8435C87.3706 12.3307 86.6894 12.0483 85.964 12.0483C85.3793 12.0483 84.8191 12.2353 84.3442 12.5892C84.2551 12.6555 84.1383 12.6724 84.0337 12.6331C83.9296 12.5945 83.852 12.5054 83.8278 12.3967C83.556 11.1655 82.4423 10.2717 81.1802 10.2717C80.4534 10.2717 79.7712 10.5551 79.2584 11.0693C79.1826 11.1448 79.0753 11.1791 78.97 11.1605C78.8645 11.1423 78.7743 11.0736 78.7291 10.9771C78.2832 10.0283 77.3193 9.41513 76.2737 9.41513C75.9769 9.41513 75.6812 9.46529 75.3933 9.5635C75.2677 9.60629 75.1284 9.56946 75.0411 9.46914C74.5367 8.89424 73.8906 8.4456 73.1733 8.1713L72.6587 8.00644C72.5226 7.96295 72.4124 7.83141 72.4124 7.689V5.36972C72.4124 5.18837 72.5594 5.04175 72.7404 5.04175C72.7404 5.04175 74.2263 5.04175 74.7079 5.04175C74.7079 4.63626 74.7079 3.77022 74.7079 3.36508C74.2263 3.36508 72.7404 3.36508 72.7404 3.36508C72.5594 3.36508 72.4124 3.21846 72.4124 3.03711C72.4124 3.03711 72.4124 1.76312 72.4124 1.29871C71.9957 1.29871 71.0276 1.29871 70.6105 1.29871C70.6105 1.76277 70.6105 3.03711 70.6105 3.03711C70.6105 3.21846 70.4639 3.36508 70.2826 3.36508C70.2826 3.36508 68.7992 3.36508 68.3172 3.36508C68.3172 3.77022 68.3172 4.63661 68.3172 5.04175C68.7992 5.04175 70.2826 5.04175 70.2826 5.04175C70.4636 5.04175 70.6105 5.18837 70.6105 5.36972V7.689C70.6105 7.83176 70.5004 7.9633 70.3643 8.00679L69.8504 8.17165C69.1328 8.4456 68.487 8.89459 67.9819 9.4695C67.8935 9.56946 67.7549 9.60665 67.629 9.5635C67.3421 9.46529 67.046 9.41513 66.7493 9.41513C65.7033 9.41513 64.7394 10.0283 64.2939 10.9771C64.2487 11.0736 64.1589 11.1423 64.0533 11.1605C63.9477 11.1788 63.8404 11.1448 63.7646 11.0693C63.2514 10.5551 62.5688 10.2717 61.8427 10.2717C60.5807 10.2717 59.4673 11.1655 59.1945 12.3967C59.1702 12.5054 59.0927 12.5945 58.9885 12.6331C58.884 12.6717 58.7672 12.6548 58.6778 12.5882C58.2053 12.2346 57.6455 12.048 57.059 12.048C55.5626 12.048 54.3454 13.2659 54.3454 14.7622L54.3851 15.1895C54.3966 15.3136 54.3388 15.4469 54.2328 15.5125C54.1273 15.5781 53.9957 15.5921 53.8898 15.5269C53.451 15.2558 52.9536 15.1127 52.4513 15.1127C50.9542 15.1127 49.7363 16.3305 49.7363 17.8276C49.7363 18.1608 49.7988 18.4891 49.9215 18.8038C49.9633 18.9111 49.9275 19.029 49.857 19.1202C49.7868 19.2114 49.6553 19.2556 49.541 19.2422L48.9289 19.1707C48.1684 19.1707 47.4378 19.4951 46.9242 20.0613C46.8555 20.1367 46.7559 20.1763 46.6538 20.1676C46.5521 20.1591 46.4602 20.1037 46.4051 20.0178C45.9021 19.2349 45.0497 18.7673 44.1241 18.7673C42.8557 18.7673 41.7413 19.6653 41.4744 20.9028C41.4512 21.0101 41.3758 21.0985 41.2737 21.1385C41.1716 21.1785 41.0559 21.1652 40.9661 21.102C40.5055 20.7807 39.9678 20.6106 39.4104 20.6106C37.9141 20.6106 36.6969 21.8285 36.6969 23.3255L36.7341 23.7465C36.7446 23.865 36.6913 23.9916 36.5927 24.0586C36.4941 24.1256 36.3686 24.1453 36.2623 24.0913C35.8722 23.8938 35.4576 23.7935 35.0297 23.7935C33.533 23.7935 32.3151 25.0113 32.3151 26.5081C32.3151 26.8981 32.3968 27.2759 32.5578 27.6309C32.6104 27.7466 32.5911 27.882 32.5091 27.9788C32.4266 28.0753 32.2958 28.116 32.173 28.0826C31.937 28.0181 31.6977 27.9855 31.4627 27.9855C29.9664 27.9855 28.7492 29.203 28.7492 30.699C28.7492 31.2368 28.9067 31.7562 29.2038 32.2017C29.268 32.2978 29.2767 32.4206 29.2273 32.5248C29.1775 32.6289 29.0768 32.6998 28.9621 32.7103C27.5625 32.8436 26.5067 34.004 26.5067 35.4102C26.5067 36.2485 26.887 37.0269 27.5499 37.5464C27.6502 37.6249 27.6958 37.7547 27.6667 37.8789C27.638 38.0031 27.5397 38.0992 27.4152 38.1255C26.1686 38.3882 25.264 39.5044 25.264 40.7797C25.264 41.2596 25.3902 41.731 25.6291 42.1425C25.7175 42.2951 25.6698 42.4897 25.5207 42.5841C24.9265 42.9605 24.5308 43.5533 24.407 44.2527C24.2646 45.0567 24.4898 45.8939 25.0416 46.6113C25.1486 46.7505 25.1268 46.9494 24.9925 47.0623C24.5508 47.4328 24.332 47.9221 24.3421 48.5166C24.3604 49.5693 25.0917 50.6844 25.8045 51.2418C26.5993 51.863 28.1795 52.7385 29.8281 51.623C29.9453 51.5438 30.1 51.5487 30.2122 51.635C31.5427 52.6606 33.2937 52.9777 34.8964 52.4838C35.0209 52.4456 35.156 52.4845 35.2412 52.5831C35.3264 52.6817 35.345 52.8209 35.2889 52.9388C35.1107 53.3134 35.1104 53.7445 35.2893 54.123C35.4527 54.4734 35.7316 54.7347 36.0746 54.8592C36.3991 54.9771 36.7548 54.9588 37.0771 54.8084C47.878 49.7163 59.4628 47.1343 71.5103 47.1343C83.5595 47.1343 95.1489 49.7163 105.959 54.8073C106.637 55.0806 107.419 54.7922 107.734 54.1219C107.912 53.7455 107.91 53.3141 107.732 52.9381C107.675 52.8206 107.695 52.6813 107.78 52.5827C107.865 52.4842 108 52.4452 108.124 52.4835C109.727 52.977 111.479 52.6596 112.811 51.6346C112.923 51.5483 113.077 51.5438 113.195 51.6227C114.841 52.7374 116.422 51.8623 117.217 51.2414C117.93 50.6844 118.661 49.5696 118.679 48.5173C118.692 47.9238 118.473 47.4342 118.031 47.0638V47.0638ZM116.985 40.7811C116.985 41.8503 116.116 42.7202 115.049 42.7202C113.978 42.7202 113.109 41.8503 113.109 40.7811C113.109 39.7134 113.978 38.8446 115.049 38.8446C116.116 38.8446 116.985 39.7134 116.985 40.7811V40.7811ZM113.804 33.4747C114.873 33.4747 115.742 34.3435 115.742 35.4112C115.742 36.4811 114.873 37.3517 113.804 37.3517C112.736 37.3517 111.867 36.4814 111.867 35.4112C111.866 34.3432 112.736 33.4747 113.804 33.4747ZM111.561 28.761C112.63 28.761 113.5 29.6309 113.5 30.7004C113.5 31.7692 112.63 32.6384 111.561 32.6384C110.491 32.6384 109.622 31.7689 109.622 30.7004C109.622 29.6309 110.491 28.761 111.561 28.761ZM111.722 46.2801L111.722 46.2808L111.722 46.2801ZM107.997 24.5711C109.065 24.5711 109.934 25.4407 109.934 26.5091C109.934 27.5782 109.065 28.4481 107.997 28.4481C106.928 28.4481 106.058 27.5782 106.058 26.5091C106.058 25.4403 106.928 24.5711 107.997 24.5711ZM103.613 21.3879C104.683 21.3879 105.553 22.2574 105.553 23.3269C105.553 24.3957 104.683 25.2653 103.613 25.2653C102.545 25.2653 101.676 24.3957 101.676 23.3269C101.676 22.2574 102.545 21.3879 103.613 21.3879V21.3879ZM98.9021 19.5453C99.9705 19.5453 100.839 20.4142 100.839 21.4819C100.839 22.5517 99.9702 23.422 98.9021 23.422C97.8322 23.422 96.9623 22.5517 96.9623 21.4819C96.9623 20.4142 97.8322 19.5453 98.9021 19.5453ZM96.4534 24.6753C97.5218 24.6753 98.391 25.5452 98.391 26.6147C98.391 27.6835 97.5215 28.5527 96.4534 28.5527C95.3842 28.5527 94.515 27.6831 94.515 26.6147C94.5147 25.5452 95.3842 24.6753 96.4534 24.6753ZM92.9783 35.7034C93.6988 35.2769 94.5431 35.1566 95.3551 35.3653C96.1664 35.5736 96.8476 36.0858 97.2738 36.8066C97.7004 37.5271 97.8193 38.3707 97.6106 39.182C97.4015 39.9944 96.8894 40.6763 96.1689 41.1021C95.4484 41.5272 94.6048 41.6465 93.7939 41.4374C92.9825 41.2287 92.3013 40.7166 91.8755 39.9958C91.5872 39.5072 91.4395 38.9621 91.4395 38.4089C91.4395 38.1465 91.4728 37.8828 91.5395 37.6221V37.6218V37.6221C91.7468 36.8112 92.2578 36.13 92.9783 35.7034V35.7034ZM97.7 33.9257C96.6302 33.9257 95.7606 33.0562 95.7606 31.9874C95.7606 30.919 96.6302 30.0494 97.7 30.0494C98.7691 30.0494 99.6387 30.919 99.6387 31.9874C99.6391 33.0565 98.7691 33.9257 97.7 33.9257ZM94.0941 19.9469C94.6115 19.9469 95.0973 20.1483 95.4639 20.5145C95.8301 20.8807 96.0314 21.3679 96.0314 21.8863C96.0314 22.9541 95.1622 23.8229 94.0941 23.8229C93.025 23.8229 92.1554 22.9541 92.1554 21.8863C92.1554 20.8168 93.025 19.9469 94.0941 19.9469V19.9469ZM90.5727 15.8896C91.6422 15.8896 92.5118 16.7595 92.5118 17.8283C92.5118 18.8974 91.6422 19.767 90.5727 19.767C89.5043 19.767 88.6355 18.8974 88.6355 17.8283C88.6355 16.7595 89.5043 15.8896 90.5727 15.8896ZM85.9647 12.8242C87.0339 12.8242 87.9041 13.6938 87.9041 14.7629C87.9041 15.831 87.0339 16.7002 85.9647 16.7002C84.8963 16.7002 84.0274 15.831 84.0274 14.7629C84.0274 13.6941 84.8963 12.8242 85.9647 12.8242ZM81.1813 11.0487C82.2508 11.0487 83.1207 11.9182 83.1207 12.9866C83.1207 14.0551 82.2508 14.9239 81.1813 14.9239C80.1135 14.9239 79.2454 14.0547 79.2454 12.9866C79.2454 11.9182 80.1135 11.0487 81.1813 11.0487V11.0487ZM74.9067 10.7582C75.2719 10.3924 75.7577 10.191 76.2747 10.191C77.3449 10.191 78.2148 11.0606 78.2148 12.129C78.2148 13.1978 77.3449 14.0674 76.2747 14.0674C75.2077 14.0674 74.3392 13.1978 74.3392 12.129C74.3396 11.6113 74.5409 11.1244 74.9067 10.7582V10.7582ZM71.5131 14.8597C72.5826 14.8597 73.4518 15.7297 73.4518 16.7988C73.4518 17.8672 72.5822 18.7368 71.5131 18.7368C70.4439 18.7368 69.5744 17.8672 69.5744 16.7988C69.5744 15.7297 70.4439 14.8597 71.5131 14.8597ZM69.5744 27.6986C69.5744 26.6301 70.4439 25.7606 71.5131 25.7606C72.5826 25.7606 73.4518 26.6301 73.4518 27.6986C73.4518 28.767 72.5822 29.6362 71.5131 29.6362C70.4439 29.6365 69.5744 28.7673 69.5744 27.6986ZM74.6479 35.4849C74.6479 37.2135 73.242 38.6201 71.5131 38.6201C69.7848 38.6201 68.379 37.2138 68.379 35.4849C68.379 33.7563 69.7848 32.3501 71.5131 32.3501C73.242 32.3501 74.6479 33.7563 74.6479 35.4849ZM71.5131 24.1877C70.4439 24.1877 69.5744 23.3178 69.5744 22.248C69.5744 21.1788 70.4439 20.3093 71.5131 20.3093C72.5826 20.3093 73.4518 21.1788 73.4518 22.248C73.4521 23.3178 72.5826 24.1877 71.5131 24.1877ZM66.751 10.191C67.8198 10.191 68.6894 11.0606 68.6894 12.129C68.6894 13.1978 67.8198 14.0674 66.751 14.0674C65.6812 14.0674 64.8106 13.1978 64.8106 12.129C64.8106 11.0606 65.6812 10.191 66.751 10.191V10.191ZM60.4755 11.6162C60.8413 11.2503 61.3278 11.049 61.8449 11.049C62.9136 11.049 63.7828 11.9186 63.7828 12.987C63.7828 14.0554 62.9133 14.9243 61.8449 14.9243C60.7764 14.9243 59.9076 14.0551 59.9076 12.987C59.9076 12.4689 60.1093 11.982 60.4755 11.6162V11.6162ZM57.0611 12.8242C58.1295 12.8242 58.9991 13.6938 58.9991 14.7629C58.9991 15.831 58.1295 16.7002 57.0611 16.7002C55.9919 16.7002 55.1224 15.831 55.1224 14.7629C55.1224 13.6941 55.9919 12.8242 57.0611 12.8242ZM52.4537 15.8896C52.9708 15.8896 53.4573 16.0913 53.8231 16.4575C54.1886 16.824 54.3903 17.3109 54.3903 17.8283C54.3903 18.8974 53.5215 19.767 52.4537 19.767C51.3842 19.767 50.5143 18.8974 50.5143 17.8283C50.514 16.7595 51.3842 15.8896 52.4537 15.8896V15.8896ZM48.9317 19.9469C50.0008 19.9469 50.8707 20.8168 50.8707 21.886C50.8707 22.9537 50.0012 23.8226 48.9317 23.8226C47.8639 23.8226 46.9951 22.9537 46.9951 21.886C46.9951 20.8168 47.8636 19.9469 48.9317 19.9469ZM47.6724 35.3653C49.3459 34.9345 51.0587 35.9469 51.4898 37.6218C51.9206 39.2942 50.909 41.006 49.2351 41.4378C48.4234 41.6468 47.5791 41.5276 46.8579 41.1018C46.1368 40.6759 45.6243 39.994 45.4156 39.182C44.9859 37.5074 45.9986 35.795 47.6724 35.3653V35.3653ZM43.3892 31.9874C43.3892 30.919 44.258 30.0494 45.3258 30.0494C46.3946 30.0494 47.2645 30.919 47.2645 31.9874C47.2645 33.0562 46.3946 33.9257 45.3258 33.9257C44.258 33.9257 43.3892 33.0565 43.3892 31.9874ZM46.5731 24.6753C47.6416 24.6753 48.5111 25.5452 48.5111 26.6147C48.5111 27.6835 47.6416 28.5527 46.5731 28.5527C45.5043 28.5527 44.6348 27.6831 44.6348 26.6147C44.6348 26.097 44.8368 25.6101 45.2034 25.2435C45.5699 24.877 46.0561 24.6753 46.5731 24.6753ZM44.1269 19.5453C44.6442 19.5453 45.1304 19.7466 45.4963 20.1125C45.8621 20.4783 46.0638 20.9645 46.0638 21.4819C46.0638 22.5517 45.1949 23.422 44.1272 23.422C43.0577 23.422 42.1875 22.5517 42.1875 21.4819C42.1871 20.4142 43.057 19.5453 44.1269 19.5453ZM39.4129 21.3879C40.4806 21.3879 41.3495 22.2574 41.3495 23.3269C41.3495 24.3957 40.4806 25.2653 39.4129 25.2653C38.3434 25.2653 37.4731 24.3957 37.4731 23.3269C37.4731 22.2574 38.3434 21.3879 39.4129 21.3879V21.3879ZM35.0321 24.5711C36.0999 24.5711 36.9687 25.4407 36.9687 26.5091C36.9687 27.5782 36.0999 28.4481 35.0321 28.4481C33.9623 28.4481 33.092 27.5782 33.092 26.5091C33.092 25.4403 33.9619 24.5711 35.0321 24.5711ZM31.4652 28.761C32.5347 28.761 33.4049 29.6309 33.4049 30.7004C33.4049 31.7692 32.535 32.6384 31.4652 32.6384C30.3974 32.6384 29.5286 31.7689 29.5286 30.7004C29.5286 29.6309 30.3971 28.761 31.4652 28.761V28.761ZM31.3059 46.2808C31.3059 46.2805 31.3059 46.2805 31.3059 46.2808V46.2808ZM27.2844 35.4112C27.2844 34.3432 28.1543 33.4747 29.2241 33.4747C30.2929 33.4747 31.1628 34.3435 31.1628 35.4112C31.1628 36.4811 30.2929 37.3517 29.2241 37.3517C28.1543 37.3517 27.2844 36.4814 27.2844 35.4112ZM27.9796 38.8446C29.0484 38.8446 29.9176 39.7134 29.9176 40.7811C29.9176 41.8503 29.0484 42.7202 27.9796 42.7202C26.9108 42.7202 26.0409 41.8503 26.0409 40.7811C26.0409 39.7134 26.9108 38.8446 27.9796 38.8446V38.8446ZM30.0716 50.5378C28.5584 51.3705 26.647 50.817 25.8112 49.3034C24.9791 47.7891 25.533 45.8789 27.0462 45.0447C27.7811 44.6406 28.6292 44.547 29.4342 44.781C30.2382 45.0146 30.9029 45.5474 31.3056 46.2808C31.5687 46.7586 31.6932 47.2756 31.6932 47.7863C31.6935 48.8923 31.1074 49.9667 30.0716 50.5378V50.5378ZM43.7101 49.1014C41.6613 49.8218 39.6146 50.6339 37.6268 51.5146C37.4844 51.5778 37.317 51.5322 37.2269 51.4049C37.1364 51.2782 37.1476 51.1053 37.2539 50.9909C37.9832 50.208 38.489 49.2126 38.6787 48.1873C38.7036 48.0529 38.8243 47.9459 38.9586 47.9221C38.9586 47.9221 39.3161 47.8579 39.3168 47.8579C39.6609 47.7699 39.9825 47.6155 40.2723 47.3991C40.3877 47.3128 40.5462 47.3121 40.6623 47.3973C41.5045 48.0147 42.5558 48.3935 43.6232 48.4644C43.7785 48.4749 43.9052 48.5928 43.9262 48.7474C43.9476 48.9021 43.8571 49.0498 43.7101 49.1014V49.1014ZM44.9077 46.505C43.6032 46.84 42.238 46.3601 41.4284 45.2836C41.3951 45.2394 41.3705 45.1535 41.3628 45.0991L41.2825 44.5354C40.9061 43.0762 39.4146 42.1951 37.9579 42.5708C37.2508 42.7525 36.6573 43.1983 36.2858 43.8269C35.915 44.4551 35.8109 45.1882 35.9933 45.8939C36.1016 46.3173 36.3047 46.6979 36.598 47.0252C36.6446 47.0771 36.6734 47.143 36.6801 47.2125C36.807 48.5342 36.1392 49.8008 34.9774 50.4409C34.138 50.9029 33.138 50.978 32.2341 50.6465C32.1113 50.6016 32.0268 50.4876 32.0194 50.3568C32.012 50.2263 32.0832 50.1035 32.2004 50.0449C33.9272 49.182 34.3825 47.9694 33.6778 46.1135C33.226 44.9272 32.6164 44.2099 31.8651 43.9826C31.7177 43.9381 31.6213 43.7967 31.6332 43.6431C32.3551 34.4175 35.2128 30.1287 43.3945 25.9917C43.4997 25.9384 43.6316 25.9363 43.7298 26.0015C43.828 26.0671 43.8897 26.1703 43.8817 26.2881L43.8589 26.6143C43.8589 27.453 44.2405 28.2317 44.9059 28.7509C45.0066 28.8294 45.0525 28.9596 45.0234 29.0837C44.9943 29.2083 44.8961 29.3044 44.7709 29.3307C43.52 29.5909 42.6119 30.7081 42.6119 31.9874C42.6119 33.1793 43.4102 34.2484 44.553 34.5876C44.6463 34.6153 44.7225 34.6827 44.761 34.7721C44.7996 34.8616 44.7965 34.9633 44.7526 35.05C44.5313 35.4877 44.439 36.017 44.479 36.6231C44.4878 36.7568 44.4141 36.8824 44.2931 36.9402C42.8469 37.6323 42.4035 38.7256 42.8557 40.4847C43.3983 42.5995 44.6677 43.2867 46.9744 42.7111C47.0677 42.6879 47.1656 42.7062 47.2438 42.7616C47.322 42.8174 47.3718 42.9036 47.3806 42.9991C47.5297 44.6238 46.4896 46.0981 44.9077 46.505V46.505ZM53.6039 46.2945C51.6224 46.726 49.6543 47.2304 47.7538 47.793C47.6054 47.8368 47.4465 47.7709 47.3725 47.6348C47.2989 47.4991 47.3297 47.3296 47.4476 47.229C48.7514 46.1132 49.4178 44.4323 49.2309 42.7328C49.213 42.5708 49.3172 42.4199 49.4754 42.3792C49.6336 42.3386 49.7974 42.4206 49.8598 42.5711C50.5175 44.1541 51.916 45.3057 53.6004 45.6526C53.7523 45.6838 53.8614 45.8171 53.8624 45.9722C53.8628 46.1272 53.7551 46.2619 53.6039 46.2945V46.2945ZM64.2908 44.6817C62.1181 44.8669 59.9184 45.1422 57.7524 45.4997C57.5988 45.5253 57.4483 45.439 57.3926 45.2938C57.3368 45.1482 57.3912 44.9837 57.5223 44.8999C58.5855 44.2208 59.3965 43.212 59.8062 42.06C59.8542 41.9247 59.9767 41.8359 60.1205 41.8419L60.2717 41.8478C60.5421 41.8478 60.8097 41.8085 61.0679 41.731C61.2054 41.69 61.3538 41.7426 61.4341 41.8619C62.1195 42.8773 63.1602 43.6522 64.3644 44.0433C64.5128 44.0917 64.6068 44.2376 64.5889 44.3927C64.5707 44.5473 64.4461 44.6684 64.2908 44.6817V44.6817ZM62.8866 40.0873C62.868 40.0259 62.868 39.96 62.8866 39.8986C62.9631 39.644 63.002 39.3816 63.002 39.1185C63.002 38.3889 62.7179 37.7032 62.2026 37.1875C61.6874 36.6719 61.0013 36.3878 60.2717 36.3878C58.7658 36.3878 57.5402 37.6127 57.5402 39.1185C57.5402 39.5913 57.6683 40.0628 57.9096 40.4816C57.9394 40.5335 57.9545 40.5928 57.9534 40.6524C57.9212 42.1316 56.898 43.4217 55.4654 43.7893C53.8852 44.1966 52.2626 43.4077 51.6073 41.9138C51.5688 41.8261 51.5709 41.7258 51.6123 41.6395C51.654 41.5532 51.7308 41.4893 51.8238 41.4648C54.122 40.8534 54.9056 39.6405 54.3626 37.5267C53.9091 35.7683 52.9929 35.0243 51.3913 35.1145C51.2573 35.1219 51.132 35.0471 51.0752 34.9251C50.7245 34.1709 50.2478 33.6848 49.6174 33.4392C49.4799 33.3859 49.3954 33.247 49.4101 33.1004C50.3369 24.0436 57.3273 15.3182 68.8953 16.1653C69.0742 16.1786 69.2082 16.3488 69.1973 16.528L69.1808 16.7984C69.1808 17.2681 69.3211 17.7227 69.5867 18.1131C69.6235 18.1675 69.6435 18.2317 69.6435 18.2976V20.7491C69.6435 20.8151 69.6235 20.8793 69.5867 20.9336C69.3211 21.324 69.1808 21.7783 69.1808 22.2476C69.1808 22.718 69.3211 23.1729 69.5867 23.5637C69.6235 23.6181 69.6435 23.6823 69.6435 23.7482V26.1997C69.6435 26.2657 69.6235 26.3302 69.5863 26.3846C69.3211 26.7732 69.1808 27.2275 69.1808 27.6982C69.1808 28.62 69.7263 29.457 70.5702 29.8298C70.7028 29.8884 70.7814 30.0273 70.7631 30.1711C70.7449 30.3149 70.6344 30.4296 70.4916 30.4535C69.1184 30.6811 68.3611 31.4184 68.1078 32.7728C68.0829 32.9043 67.9805 33.0081 67.8486 33.0341C66.274 33.3442 65.5714 34.2923 65.5714 36.1093C65.5714 38.2914 66.6321 39.2728 69.0103 39.2911C69.1061 39.2914 69.197 39.3346 69.2587 39.4075C69.3204 39.4805 69.3471 39.5773 69.3316 39.6717C69.0682 41.2817 67.6932 42.4501 66.0625 42.4501C64.6107 42.4505 63.3044 41.4788 62.8866 40.0873V40.0873ZM74.9053 44.179C74.8699 44.3292 74.7314 44.434 74.5767 44.4312L71.5131 44.3741L68.4491 44.4312C68.2948 44.434 68.1566 44.3292 68.1208 44.179C68.085 44.0286 68.1562 43.8742 68.2955 43.8076C69.8634 43.0576 70.9448 41.5872 71.1886 39.8744C71.2118 39.7131 71.35 39.5927 71.5134 39.5927C71.6769 39.5927 71.8147 39.7127 71.8382 39.8744C72.0817 41.5865 73.1631 43.0566 74.7314 43.8076C74.8703 43.8739 74.9408 44.0286 74.9053 44.179V44.179ZM85.635 45.2934C85.5796 45.439 85.4294 45.5253 85.2755 45.4997C83.1112 45.1422 80.9108 44.8672 78.7354 44.6817C78.58 44.6684 78.4548 44.5473 78.4372 44.3923C78.419 44.2373 78.5133 44.091 78.6614 44.0429C79.8642 43.6522 80.9056 42.877 81.5952 41.8608C81.6769 41.7419 81.8249 41.6893 81.9624 41.731C82.2168 41.8082 82.483 41.8475 82.7545 41.8475L82.9053 41.8415C83.0484 41.8356 83.1712 41.924 83.2196 42.0593C83.6311 43.2134 84.4427 44.2222 85.5056 44.8995C85.6364 44.983 85.6908 45.1479 85.635 45.2934ZM87.5604 43.7897C86.1292 43.4221 85.106 42.1323 85.0727 40.6531C85.0717 40.5928 85.0871 40.5328 85.1176 40.4805C85.3572 40.0691 85.4842 39.598 85.4842 39.1185C85.4842 37.613 84.2593 36.3878 82.7545 36.3878C81.249 36.3878 80.0241 37.6127 80.0241 39.1185C80.0241 39.3837 80.063 39.645 80.1409 39.8958C80.1606 39.9586 80.1606 40.0252 80.1413 40.088C79.714 41.5013 78.4369 42.4505 76.9622 42.4505C75.3315 42.4505 73.9583 41.2817 73.6959 39.6717C73.6805 39.577 73.7071 39.4805 73.7689 39.4075C73.8309 39.3342 73.9214 39.2918 74.0169 39.2911C76.3937 39.2728 77.453 38.2914 77.453 36.1093C77.453 34.2926 76.7511 33.3442 75.1768 33.0341C75.0446 33.0081 74.9422 32.9043 74.9173 32.7728C74.664 31.4184 73.9071 30.6815 72.5342 30.4535C72.3914 30.4296 72.2809 30.3149 72.2627 30.1711C72.2444 30.0273 72.3226 29.8887 72.4556 29.8298C73.2995 29.4566 73.845 28.6197 73.845 27.6982C73.845 27.225 73.7054 26.7711 73.4405 26.3853C73.403 26.3306 73.383 26.266 73.383 26.1997V23.7482C73.383 23.6823 73.403 23.6174 73.4405 23.563C73.7054 23.1751 73.845 22.7201 73.845 22.2476C73.845 21.7758 73.7054 21.3216 73.4405 20.934C73.403 20.8796 73.383 20.8151 73.383 20.7491V18.2976C73.383 18.2317 73.403 18.1668 73.4405 18.1124C73.7054 17.7252 73.845 17.2706 73.845 16.7984L73.8292 16.5354C73.8183 16.3561 73.9516 16.1783 74.1305 16.1653C85.6985 15.3182 92.6889 24.0439 93.6153 33.1004C93.6304 33.247 93.5455 33.3859 93.408 33.4392C92.7819 33.6834 92.3048 34.1699 91.9516 34.9258C91.8944 35.0475 91.7696 35.1219 91.6359 35.1145C90.035 35.0243 89.1181 35.7683 88.6653 37.5264C88.1216 39.6405 88.9049 40.8552 91.2038 41.4648C91.2964 41.4893 91.3736 41.5532 91.4153 41.6398C91.457 41.7261 91.4588 41.8264 91.4202 41.9141C90.7632 43.408 89.1402 44.1966 87.5604 43.7897V43.7897ZM95.6533 47.6355C95.5782 47.772 95.4204 47.8372 95.272 47.7933C93.3733 47.2307 91.4055 46.7263 89.4229 46.2949C89.2717 46.2619 89.1637 46.1276 89.1648 45.9729C89.1658 45.8178 89.2746 45.6845 89.4268 45.6533C91.1129 45.3064 92.5104 44.1545 93.1663 42.5722C93.2288 42.4213 93.3926 42.3393 93.5508 42.3799C93.7086 42.4203 93.8128 42.5708 93.7953 42.7332C93.6101 44.4319 94.2765 46.1132 95.5793 47.2297C95.6964 47.3303 95.7269 47.4998 95.6533 47.6355V47.6355ZM105.799 51.4049C105.708 51.5315 105.541 51.5771 105.399 51.5143C103.404 50.6311 101.357 49.819 99.3153 49.1017C99.1683 49.0501 99.0778 48.9025 99.0989 48.7481C99.1203 48.5938 99.2469 48.4756 99.4023 48.4651C100.483 48.3935 101.508 48.0245 102.366 47.3977C102.482 47.3124 102.641 47.3135 102.756 47.4005C103.043 47.6162 103.363 47.7702 103.71 47.8586L104.067 47.9228C104.201 47.9466 104.321 48.0536 104.346 48.1876C104.539 49.214 105.045 50.2098 105.772 50.9917C105.878 51.1053 105.889 51.2782 105.799 51.4049V51.4049ZM111.16 43.9826C110.414 44.2092 109.804 44.9262 109.348 46.1135C108.644 47.9694 109.1 49.182 110.828 50.0449C110.945 50.1035 111.017 50.2259 111.009 50.3568C111.002 50.4876 110.918 50.6012 110.795 50.6465C109.888 50.9783 108.888 50.9029 108.05 50.4409C106.887 49.8001 106.219 48.5328 106.348 47.2121C106.354 47.1427 106.383 47.0774 106.43 47.0255C106.721 46.6993 106.924 46.3184 107.034 45.8929C107.217 45.1889 107.114 44.4558 106.744 43.8286C106.372 43.1993 105.777 42.7525 105.069 42.5708C103.613 42.1954 102.122 43.0769 101.745 44.5309L101.664 45.0998C101.657 45.1549 101.632 45.2394 101.598 45.2836C100.787 46.3601 99.4219 46.8396 98.1178 46.5046C96.539 46.0977 95.4986 44.6242 95.6445 43.0001C95.6526 42.9047 95.7027 42.8177 95.7806 42.7619C95.8585 42.7065 95.9574 42.6879 96.0503 42.7111C98.3587 43.2867 99.6303 42.6002 100.173 40.4847C100.625 38.7267 100.181 37.6337 98.7337 36.9402C98.6123 36.8824 98.539 36.7571 98.5482 36.6231C98.5885 36.004 98.4987 35.4902 98.2746 35.051C98.2304 34.964 98.2269 34.8623 98.2654 34.7725C98.3037 34.683 98.3801 34.615 98.4738 34.5873C99.6173 34.2481 100.416 33.1786 100.416 31.987C100.416 30.7081 99.5075 29.5909 98.2567 29.3303C98.1314 29.3044 98.0325 29.2079 98.0031 29.0834C97.975 28.9592 98.021 28.8291 98.1216 28.7505C98.7867 28.2324 99.1676 27.4537 99.1676 26.614L99.1455 26.292C99.1378 26.1745 99.1995 26.0685 99.2981 26.0036C99.3963 25.9384 99.5286 25.9384 99.6334 25.9914C107.814 30.128 110.671 34.4172 111.392 43.6427C111.404 43.7967 111.308 43.9381 111.16 43.9826V43.9826ZM117.215 49.3038C116.381 50.8177 114.471 51.3712 112.955 50.5378C112.22 50.1326 111.688 49.4655 111.455 48.6601C111.372 48.3725 111.331 48.0792 111.331 47.7877C111.331 47.2661 111.463 46.7498 111.722 46.2805C112.124 45.5467 112.789 45.0142 113.594 44.7806C114.399 44.5466 115.246 44.6406 115.979 45.0444C116.713 45.4471 117.245 46.1114 117.479 46.915C117.713 47.7197 117.62 48.5682 117.215 49.3038V49.3038Z" fill="#FEBE10"/>
<path d="M104.916 57.0984C105.003 57.4565 105.335 58.8182 105.397 59.0704C105.169 59.197 103.856 59.9284 103.487 60.1339C103.381 59.72 102.976 58.137 102.9 57.8392C103.185 57.7343 104.569 57.2261 104.916 57.0984Z" fill="#EE324E"/>
<path d="M0.479004 128.181C0.479004 167.329 32.3445 199.178 71.513 199.178C110.682 199.178 142.547 167.329 142.547 128.181C142.547 88.9923 110.682 57.1104 71.513 57.1104C32.3449 57.1104 0.479004 88.9923 0.479004 128.181V128.181Z" fill="#00529F"/>
<path d="M2.49316 128.181C2.49316 147.2 10.2318 164.441 22.7314 176.935C35.2328 189.429 52.4818 197.164 71.5131 197.164C90.5426 197.164 107.793 189.429 120.294 176.935C132.794 164.441 140.533 147.2 140.533 128.181C140.533 109.141 132.794 91.8814 120.294 79.3734C107.793 66.8671 90.5426 59.1243 71.5131 59.1243C52.4832 59.1243 35.2328 66.8671 22.7321 79.3734C10.2325 91.8814 2.49316 109.141 2.49316 128.181V128.181Z" fill="#FEBE10"/>
<path d="M8.5415 128.144C8.54291 93.4191 36.7882 65.1746 71.5131 65.1729C106.238 65.1746 134.483 93.4191 134.484 128.144C134.483 162.869 106.238 191.114 71.5131 191.116C36.7882 191.114 8.54291 162.869 8.5415 128.144V128.144Z" fill="#00529F"/>
<path d="M10.5566 128.144C10.5566 94.5328 37.9018 67.188 71.5135 67.188C105.125 67.188 132.47 94.5328 132.47 128.144C132.47 161.756 105.125 189.102 71.5135 189.102C37.9018 189.102 10.5566 161.756 10.5566 128.144V128.144Z" fill="white"/>
<path d="M129.943 127.92C129.943 106.655 118.327 87.0021 99.629 76.6313L99.2386 76.4146C99.2386 76.4146 85.9684 90.2039 85.6341 90.5512C85.6053 90.5512 85.5646 90.5512 85.5646 90.5512C85.5646 90.5512 85.3591 90.7568 85.3464 90.7697C80.9945 89.1548 76.3489 88.2873 71.5216 88.2189C71.5216 88.2189 71.5213 88.2189 71.5209 88.2189C66.593 88.2189 61.4949 89.132 57.0861 90.7683C56.6 90.2608 43.484 76.5629 43.484 76.5629L43.0919 76.7825C42.9512 76.8614 42.8144 76.9456 42.6745 77.0252L42.6513 77.001C32.0199 83.0346 23.4548 92.3001 18.2989 103.453C18.3087 103.464 18.3189 103.474 18.3287 103.484C14.8301 111.037 12.9297 119.352 12.9297 127.921C12.9297 141.9 17.9495 154.936 27.4462 165.62L27.8601 166.086L35.6303 158.147L35.2024 157.741C30.9956 153.749 23.2507 142.636 23.2507 128.572C23.2507 128.188 23.2563 127.801 23.2682 127.411C23.4661 121.764 24.4654 116.475 26.2526 111.564C28.4252 113.778 30.5933 115.989 32.7544 118.192C32.0718 120.885 31.6972 123.641 31.6625 126.408C31.6603 126.572 31.6593 126.737 31.6593 126.901C31.6593 144.693 43.9709 160.642 61.1529 165.139C61.1529 165.931 61.1529 175.145 61.1529 175.145H71.9436C71.9436 175.145 71.9436 167.377 71.9436 166.396C74.3688 166.343 76.7951 166.049 79.1803 165.538C84.366 170.834 89.5781 176.159 94.8372 181.537C105.908 176.686 115.201 168.508 121.439 158.27L121.43 158.261C126.962 149.184 129.943 138.695 129.943 127.92ZM61.1533 153.112C50.0988 149.106 43.0035 139.565 42.7608 128.391C48.9055 134.655 55.0261 140.894 61.1533 147.143C61.1533 150.312 61.1533 152.672 61.1533 153.112ZM71.4297 105.566C70.7689 104.891 66.7182 100.755 65.6042 99.6175C67.5979 99.2341 69.6152 99.024 70.9597 99.0854C73.0903 99.1513 75.0269 99.3997 76.8659 99.8185C75.835 100.909 72.0755 104.884 71.4297 105.566ZM113.041 149.608L78.5124 113.992C82.6673 109.603 87.1764 104.84 87.5321 104.464C91.1576 107.022 94.1002 110.37 96.0473 114.189L96.3841 114.85L105.061 107.354L104.812 106.936C102.451 102.975 99.1646 99.3404 95.3146 96.354C96.0365 95.6149 100.471 91.0766 101.062 90.4712C110.006 96.8973 118.93 111.485 118.93 127.393C118.93 136.711 116.774 143.455 113.041 149.608V149.608Z" fill="#00529F"/>
<path d="M99.5988 78.9458C97.2059 81.4331 86.7432 92.3048 86.7432 92.3048L86.491 92.5665H86.3998C86.3198 92.6461 86.2528 92.7131 86.2528 92.7131L85.8614 93.1045L85.3447 92.9074L84.9928 92.7731C80.7612 91.1557 76.2215 90.3005 71.5135 90.2332C66.7785 90.2314 61.6149 91.1648 57.4327 92.772L56.5424 93.1133L56.1502 92.704C56.1502 92.704 45.5395 81.6232 43.1241 79.1005C25.7166 89.2819 14.9438 107.884 14.9448 127.92C14.9473 140.901 19.4343 153.013 27.9524 163.111C29.186 161.851 31.6273 159.357 32.7982 158.16C28.2196 153.253 21.252 142.307 21.2358 128.565C21.2358 128.161 21.2422 127.754 21.2548 127.343C21.7932 111.679 28.3091 98.5716 40.5141 88.5919L41.5351 87.7553L50.1995 96.7164L48.9055 97.6926C39.494 104.789 33.8098 115.555 33.6776 126.433C33.6758 126.589 33.6748 126.745 33.6748 126.9C33.6685 143.92 45.5669 159.21 62.08 163.314L63.1684 163.584V164.252C63.1684 164.259 63.1684 170.663 63.1684 173.131C64.8426 173.131 68.2556 173.131 69.9298 173.131C69.9298 172.186 69.9298 170.682 69.9298 169.241C69.9298 167.186 69.9298 165.262 69.9298 165.259V164.41L71.3546 164.403C81.8601 164.343 92.4975 159.475 99.3526 151.685C98.121 150.44 95.3682 147.657 94.0581 146.333C87.4458 153.455 78.2883 157.111 72.0449 157.131C71.7868 157.131 71.5353 157.124 71.289 157.113L69.9295 157.042V146.724H70.7822C70.792 146.724 78.9354 146.724 81.7381 146.725C81.7381 145.221 81.7381 142.367 81.7381 140.863C78.9333 140.863 70.7822 140.863 70.7822 140.864H69.9295V132.504H70.7822C70.7822 132.504 79.0617 132.504 81.8896 132.505C81.8896 131.167 81.8896 128.81 81.8896 127.472C78.5022 127.472 66.5558 127.472 63.1681 127.472C63.1681 132.257 63.1681 154.756 63.1681 154.756V155.939L61.2813 155.31C48.7838 151.154 40.7273 140.373 40.7343 127.801C40.7343 127.606 40.7361 127.409 40.7407 127.212C40.9574 117.113 45.7952 108.01 53.9923 102.294L54.9927 101.596L55.4978 102.116C55.4978 102.116 68.3559 115.382 71.4251 118.548C74.4116 115.394 86.7593 102.351 86.7593 102.351L87.2581 101.824L88.2673 102.51C91.8416 104.938 94.8101 108.091 96.9554 111.695C98.4038 110.444 101.193 108.035 102.433 106.963C100.159 103.443 97.1333 100.196 93.5986 97.547L92.2909 96.5663L100.822 87.8339L101.818 88.5225C111.399 95.1755 120.921 110.523 120.945 127.393C120.96 140.823 116.375 149.538 109.554 157.915C110.833 159.194 113.802 162.166 115.196 163.561C123.412 153.539 127.929 140.948 127.928 127.921C127.928 107.754 117.099 89.0946 99.5988 78.9458V78.9458ZM72.0635 107.827L71.4546 108.47L61.6187 98.4268L64.1225 97.8599C66.3579 97.3555 68.6776 97.0602 70.4391 97.0591C70.6468 97.0591 70.8492 97.063 71.0312 97.0717C73.6729 97.1531 76.0749 97.4884 78.3539 98.0991L80.6773 98.7214L72.0635 107.827V107.827Z" fill="#FEBE10"/>
</g>
<defs>
<clipPath id="clip0_121_1509">
<rect width="142.95" height="199.54" fill="white"/>
</clipPath>
</defs>
</svg>
