<?xml version="1.0" encoding="utf-8"?>
<!-- Generator: Adobe Illustrator 25.0.0, SVG Export Plug-In . SVG Version: 6.00 Build 0)  -->
<svg version="1.1" id="svg2" xmlns:svg="http://www.w3.org/2000/svg"
	 xmlns="http://www.w3.org/2000/svg" xmlns:xlink="http://www.w3.org/1999/xlink" x="0px" y="0px" viewBox="0 0 137.3 139"
	 style="enable-background:new 0 0 137.3 139;" xml:space="preserve">
<style type="text/css">
	.st0{fill-rule:evenodd;clip-rule:evenodd;stroke:#000000;stroke-width:0.1893;stroke-miterlimit:10;}
	.st1{fill-rule:evenodd;clip-rule:evenodd;fill:#00529F;}
	.st2{fill:#A2214B;}
	.st3{fill-rule:evenodd;clip-rule:evenodd;fill:#FFFFFF;}
	.st4{fill-rule:evenodd;clip-rule:evenodd;fill:#FFDF1A;}
	.st5{fill:#E1393D;}
	.st6{fill-rule:evenodd;clip-rule:evenodd;fill:#DEB405;stroke:#DEB405;stroke-width:0.1775;stroke-miterlimit:10;}
	.st7{fill:none;stroke:#000000;stroke-width:0.7571;stroke-miterlimit:10;}
	.st8{fill:#DEB405;stroke:#000000;stroke-width:0.7609;stroke-miterlimit:1.0145;}
	.st9{fill:none;stroke:#000000;stroke-width:0.6625;stroke-miterlimit:10;}
	.st10{fill-rule:evenodd;clip-rule:evenodd;stroke:#000000;stroke-width:3.785448e-02;stroke-miterlimit:10;}
</style>
<g id="layer1" transform="translate(-111.77088,-91.029934)">
	<g id="g2427" transform="matrix(0.1892724,0,0,0.1892724,111.6987,62.603897)">
		<g id="g2263" transform="translate(2.485175,13.595533)">
			<g id="g2279">
				<path id="path2239" class="st0" d="M62.7,159.4c50.1,22,132.3,19.4,187.4-22.2c77.1,56.5,151.3,50.7,222,0
					c47.2,34.1,119.8,48.6,187.9,22.9l30.5,42.4c-79.6,106.4-50.2,208.2,32,297.7l-34.5,35c7.8,229.6-170,284.4-272.1,290.1
					l-54.9,44.9l-54.5-44.2C124.3,810.3,28.1,714.2,34.1,535.9l-35.5-35.8c69.3-75,121.4-177.4,32.4-297.5L62.7,159.4z"/>
				<path id="path5105" class="st1" d="M66.9,531.3h586.6c15.4,162.3-87.7,250-244.5,258.6l-99.6,0.3
					C159.3,779.3,47.5,700.1,66.9,531.3z"/>
				<rect id="rect6076" x="319.7" y="533.2" class="st2" width="83.1" height="259.4"/>
				<g id="g6100" transform="translate(-0.132,0)">
					<rect id="rect6088" x="154.5" y="533.2" class="st2" width="83.1" height="231.8"/>
					<rect id="rect6092" x="183.5" y="753.1" class="st2" width="54.1" height="23.9"/>
				</g>
				<g id="g6096" transform="translate(-0.132,0)">
					<rect id="rect6090" x="484.3" y="533.2" class="st2" width="83.1" height="231.8"/>
					<rect id="rect6094" x="484.3" y="753.1" class="st2" width="54.1" height="23.9"/>
				</g>
				<path id="path4130" class="st3" d="M358.6,213.1v230.4l-280,2l28.9-110.9L71.5,201.9l177.2-22.8L358.6,213.1z"/>
				<path id="path2187" class="st4" d="M362.6,213.1v230.4l280,2l-28.9-110.9l35.9-132.7l-177.2-22.8L362.6,213.1z"/>
				<rect id="rect2169" x="196.8" y="185.7" class="st5" width="80.3" height="256.3"/>
				<rect id="rect3143" x="108.8" y="281.3" class="st5" width="249.8" height="80.3"/>
				<g id="g2174" transform="translate(-0.132,0)">
					<rect id="rect4118" x="387.9" y="203.9" class="st5" width="29.7" height="236.5"/>
					<rect id="rect4120" x="444.3" y="186.9" class="st5" width="29.7" height="254"/>
					<rect id="rect4122" x="501" y="201.3" class="st5" width="29.7" height="240.2"/>
					<rect id="rect4124" x="557.2" y="210.1" class="st5" width="29.7" height="231.2"/>
				</g>
				<path id="path4181" class="st6" d="M249.7,155.5c-51.7,37.9-133.5,41.9-180.5,22.9l-18.8,24.2c80.7,113.6,34.3,227.8-29.7,297.8
					l29.5,31.2c-12,171.2,87.9,270.2,263.5,280.3l47.6,39.8l47.5-40.4c102.3-1.8,281.6-59.1,262.3-280l29.6-30.7
					c-75.2-83.3-101.1-197.5-28.4-298l-17.7-24.1c-64.3,21.1-137.8,9.4-182-22.6C406.2,203.5,322,208.4,249.7,155.5z M473.2,188
					c39.9,24.8,84,31.8,160,25.2c-38.1,65.8-42.2,144.3-8.5,220l-527.4-0.3c28.4-67.7,34.9-145.5-9.6-221.2
					c54.8,8,108.4,6.1,161.8-23C321.9,231.2,396.4,231.9,473.2,188z M78.6,533.8h565.5c14.9,156.5-84.6,241-235.8,249.3l-96.1,0.2
					C167.6,773,59.9,696.6,78.6,533.8z"/>
				<path id="path7096" class="st7" d="M87.1,212.5c44.5,75.7,38,153.5,9.6,221.2L624,434c-33.7-75.7-29.6-154.2,8.5-220
					c-76,6.7-120.1-0.4-160-25.1c-76.8,43.9-151.3,43.2-223.7,0.6C195.4,218.5,141.9,220.4,87.1,212.5z"/>
				<path id="path4112" class="st7" d="M78.6,533.8h565.5c14.9,156.5-84.6,241-235.7,249.3l-96.1,0.2
					C167.6,773,59.9,696.6,78.6,533.8z"/>
				<path id="path4134" class="st7" d="M360.8,220.4v213.7"/>
				<g id="g6097">
					<path id="path2185" class="st8" d="M438.8,655.8c0,42.5-34.4,76.9-76.9,76.9c-42.5,0-76.9-34.4-76.9-76.9c0,0,0,0,0-0.1
						c0-42.5,34.4-76.9,76.9-76.9C404.3,578.9,438.8,613.3,438.8,655.8C438.8,655.7,438.8,655.8,438.8,655.8z"/>
					<g id="g4131">
						<path id="path3158" class="st9" d="M317.5,593.2c-9,32.7-14.5,64.9,11.3,80.4c18.1,10.8,30.3-11.2,33.7-19.8"/>
						<path id="path3160" class="st9" d="M290.7,686.8c15.2-0.7,23.1-1.9,32.8-16.7"/>
					</g>
					<path id="path4141" class="st9" d="M362,654.3c15.2-9.3,28.7-4.8,35,18.6c14.8-5.9,29.1,5.5,32.8,17"/>
					<path id="path4143" class="st9" d="M397.3,672.9c-11.2,27.1-40.8,39.7-82.3,43.8"/>
					<path id="path2191" class="st9" d="M362,655.4c-9.3-8.5-23.7-18.3-2.8-43.5c-8.9-11.3-11.3-22.2,0.3-32.7"/>
					<path id="path2193" class="st9" d="M438.4,660.4c-13.7-24.1-45.4-57.6-79.2-48.7"/>
				</g>
			</g>
			<path id="rect2194" d="M254.4,446.9v0.3h-14v27.1v15.4v30.2h15.1v-30.2H277v-15.4h-21.5v-11.8h37.2v-15.6H254.4z"/>
			<path id="path3176" class="st10" d="M368.7,469.6l13.5-7.1c-8.6-19.1-43.7-24.6-55.2,0c-11.9,29.3,0.7,56.5,23.8,59.2
				c14.6,2.1,26.2-5,31.2-17.8l-13.4-7.7c-3.6,8.9-17.2,15-27.5,0.2c-3.2-6.6-4-16.9-0.5-26.8C349,457.9,361.5,459.2,368.7,469.6z"
				/>
			<path id="path5116" class="st0" d="M420.5,447.1l0.3,73.3l39.9-0.2c13-1.8,30-23.1,10.1-39.6c10.5-9.3,9.2-29.2-11.9-33.4
				L420.5,447.1z M435.8,461.5h19.9c8.7,2.5,6.1,10.9,0.3,12.3h-20.2V461.5z M436,488.2l20.9,0.3c10.3,3.1,8,14.9,0.3,16.9
				l-21.1-0.2L436,488.2z"/>
		</g>
	</g>
</g>
</svg>
