<svg width="1200" height="1200" viewBox="0 0 1200 1200" fill="none" xmlns="http://www.w3.org/2000/svg">
<path d="M1193.03 599.894C1193.03 925.979 928.684 1190.32 602.599 1190.32C276.515 1190.32 12.1704 925.979 12.1704 599.894C12.1704 273.809 276.515 9.46558 602.599 9.46558C928.684 9.46558 1193.03 273.809 1193.03 599.894Z" fill="white" stroke="#E5050F" stroke-width="9.6"/>
<path d="M1076.5 599.161C1076.5 859.231 865.678 1070.06 605.608 1070.06C345.538 1070.06 134.709 859.231 134.709 599.161C134.709 339.091 345.538 128.263 605.608 128.263C865.678 128.263 1076.5 339.091 1076.5 599.161Z" fill="white" stroke="#E5050F" stroke-width="9.6"/>
<path d="M1057.16 598.968C1057.2 848.57 854.884 1050.94 605.281 1050.98C355.679 1051.02 153.306 848.704 153.27 599.101C153.27 599.058 153.27 599.014 153.27 598.969C153.233 349.367 355.546 146.994 605.147 146.958C854.749 146.922 1057.12 349.234 1057.16 598.836C1057.16 598.878 1057.16 598.924 1057.16 598.968Z" fill="#E5050F"/>
<path d="M787.816 484.059C790.484 463.262 799.187 444.476 809.503 426.229L839.382 439.723L866.369 403.097L893.357 411.289C893.755 459.463 892.447 509.097 910.225 542.373L896.731 559.242C866.161 530.358 833.606 502.796 787.816 484.059Z" fill="white"/>
<path d="M737.584 533.987C677.879 533.753 721.15 463.842 729.876 437.151C737.714 413.175 725.85 364.79 680.072 347.628V286.245C770.214 312.373 780.272 372.46 832.146 344.863V375.278C751.254 458.225 786.683 533.51 737.584 533.987Z" fill="white"/>
<path d="M497.03 400.163C585.584 377.76 652.054 384.801 714.358 397.397C723.316 423.535 715.531 441.302 707.168 458.779C646.24 448.817 581.074 446.265 502.56 467.073C489.296 447.055 488.18 424.605 497.03 400.163Z" fill="white"/>
<path d="M549.485 347.533C443.24 365.587 467.128 491.375 549.485 525.338V635.094C316.132 567.739 358.298 313.926 549.485 288.265V347.533Z" fill="white"/>
<path d="M664.363 741.924C632.75 746.203 599.875 745.434 566.315 741.924V467.533C598.997 464.209 631.681 463.086 664.363 467.533V741.924Z" fill="white"/>
<path d="M222.412 605.094C279.253 577.6 291.815 517.267 374.606 456.558C376.981 484.707 380.197 512.183 392.168 532.655C357.071 583.353 359.442 631.481 411.924 689.972C399.713 717.972 384.856 738.036 368.753 754.363C294.935 710.429 277.909 653.303 222.412 605.094Z" fill="white"/>
<path d="M486.654 807.748C507.712 784.492 513.558 767.321 522.54 748.894C578.431 760.654 643.519 765.446 741.204 745.544C751.414 766.003 747.521 785.18 744.076 804.398C686.198 825.188 578.376 830.075 486.654 807.748Z" fill="white"/>
<path d="M325.406 798.656L332.583 829.758L375.647 832.628C425.299 867.785 478.416 900.822 550.77 922.104V861.336C511.59 854.666 486.345 834.93 467.515 809.182C523.254 749.221 534.552 673.955 499.287 658.636C452.375 638.258 431.427 686.24 404.631 729.539C387.156 757.777 361.928 785.915 325.406 798.656Z" fill="white"/>
<path d="M664.673 284.633C664.897 238.165 700.523 243.793 717.341 260.531C714.983 202.256 667.698 195.323 645.035 216.343C638.317 205.309 629.633 196.892 615.799 190.009C603.41 195.84 593.524 204.486 585.895 215.673C564.497 196.139 515.746 200.964 513.588 259.638C531.617 244.079 565.586 238.581 565.586 284.856L565.81 373.814C597.653 371.438 630.562 371.192 664.784 373.575L664.673 284.633Z" fill="white"/>
<path d="M664.772 924.212C664.997 970.68 700.624 965.052 717.44 948.314C715.084 1006.59 667.799 1013.52 645.134 992.502C638.417 1003.54 629.732 1011.95 615.9 1018.83C603.511 1013 593.624 1004.36 585.995 993.17C564.596 1012.71 515.845 1007.88 513.689 949.206C531.716 964.765 565.686 970.262 565.686 923.988L565.91 835.028C597.752 837.404 630.661 837.65 664.885 835.267L664.772 924.212Z" fill="white"/>
<path d="M679.153 569.497V674.624C799.376 714.615 780.344 864.361 680.692 860.779V921.292C809.584 908.516 859.472 828.582 860.266 750.677C861.164 661.399 790.604 598.199 679.153 569.497Z" fill="white"/>
<path d="M873.512 746.933C873.668 733.209 874.892 721.016 865.82 694.111L893.513 675.649L924.794 701.291C912.55 719.738 893.898 733.914 873.512 746.933Z" fill="white"/>
<path d="M464.921 1075.85L448.443 1139.2L440.771 1137.21L455.157 1081.89L454.786 1081.8L436.646 1088.05L438.674 1080.25L457.249 1073.85L464.921 1075.85Z" fill="#E5050F"/>
<path d="M557.581 1093.14C560.238 1093.54 562.825 1094.42 565.345 1095.78C567.865 1097.15 570.061 1099.13 571.932 1101.74C573.807 1104.33 575.132 1107.69 575.907 1111.82C576.682 1115.96 576.652 1121 575.816 1126.95C575.007 1132.71 573.739 1137.75 572.014 1142.07C570.312 1146.37 568.222 1149.91 565.746 1152.68C563.29 1155.46 560.495 1157.43 557.36 1158.61C554.246 1159.78 550.864 1160.12 547.213 1159.6C543.583 1159.09 540.445 1157.92 537.797 1156.09C535.174 1154.23 533.135 1151.89 531.682 1149.06C530.253 1146.21 529.525 1143.04 529.499 1139.55L537.223 1140.64C537.501 1143.71 538.538 1146.37 540.334 1148.6C542.153 1150.81 544.772 1152.16 548.191 1152.64C553.193 1153.34 557.446 1151.71 560.951 1147.75C564.477 1143.79 566.8 1137.82 567.921 1129.84L567.414 1129.77C565.983 1131.38 564.365 1132.71 562.559 1133.77C560.753 1134.83 558.81 1135.57 556.728 1135.99C554.646 1136.41 552.487 1136.46 550.25 1136.14C546.536 1135.62 543.257 1134.22 540.412 1131.95C537.592 1129.66 535.48 1126.77 534.076 1123.28C532.697 1119.78 532.3 1115.93 532.887 1111.75C533.445 1107.79 534.841 1104.28 537.076 1101.24C539.335 1098.18 542.217 1095.89 545.722 1094.38C549.247 1092.88 553.201 1092.46 557.581 1093.14ZM556.603 1100.11C553.944 1099.73 551.455 1100.06 549.137 1101.09C546.843 1102.1 544.916 1103.64 543.357 1105.7C541.822 1107.75 540.864 1110.12 540.485 1112.82C540.105 1115.52 540.351 1118.06 541.222 1120.45C542.116 1122.81 543.506 1124.79 545.39 1126.39C547.299 1127.97 549.582 1128.95 552.241 1129.32C554.246 1129.6 556.169 1129.47 558.009 1128.94C559.852 1128.38 561.514 1127.5 562.994 1126.31C564.498 1125.1 565.742 1123.67 566.727 1122.03C567.715 1120.36 568.343 1118.56 568.613 1116.64C568.969 1114.11 568.69 1111.65 567.777 1109.26C566.886 1106.88 565.471 1104.85 563.532 1103.18C561.614 1101.51 559.304 1100.49 556.603 1100.11Z" fill="#E5050F"/>
<path d="M656.665 1160.28C651.892 1160.93 647.651 1160.18 643.942 1158.04C640.229 1155.88 637.15 1152.43 634.704 1147.71C632.254 1142.97 630.552 1137.07 629.596 1130.02C628.646 1123.01 628.721 1116.9 629.822 1111.7C630.942 1106.47 633.003 1102.32 636.006 1099.25C639.026 1096.15 642.902 1094.28 647.632 1093.64C652.362 1093 656.585 1093.77 660.3 1095.95C664.034 1098.11 667.125 1101.57 669.575 1106.31C672.042 1111.03 673.751 1116.89 674.701 1123.9C675.657 1130.96 675.586 1137.1 674.487 1142.32C673.386 1147.52 671.334 1151.66 668.332 1154.73C665.326 1157.79 661.437 1159.64 656.665 1160.28ZM655.72 1153.31C660.45 1152.67 663.816 1149.89 665.816 1144.98C667.816 1140.06 668.244 1133.38 667.099 1124.93C666.338 1119.32 665.088 1114.62 663.349 1110.83C661.631 1107.04 659.513 1104.26 656.994 1102.5C654.496 1100.73 651.685 1100.06 648.559 1100.48C643.872 1101.12 640.521 1103.92 638.508 1108.91C636.493 1113.87 636.056 1120.56 637.198 1128.99C637.959 1134.6 639.197 1139.3 640.912 1143.06C642.627 1146.83 644.732 1149.59 647.227 1151.34C649.743 1153.08 652.574 1153.74 655.72 1153.31Z" fill="#E5050F"/>
<path d="M745.425 1074.27C748.07 1073.81 750.804 1073.84 753.625 1074.34C756.446 1074.84 759.155 1076.04 761.752 1077.93C764.344 1079.8 766.658 1082.57 768.693 1086.25C770.728 1089.93 772.284 1094.72 773.361 1100.64C774.404 1106.36 774.785 1111.54 774.504 1116.19C774.241 1120.81 773.369 1124.82 771.889 1128.23C770.43 1131.64 768.397 1134.39 765.79 1136.49C763.204 1138.59 760.098 1139.96 756.471 1140.62C752.865 1141.28 749.517 1141.15 746.427 1140.24C743.354 1139.31 740.683 1137.73 738.414 1135.5C736.162 1133.24 734.476 1130.46 733.354 1127.16L741.027 1125.76C742.257 1128.59 744.076 1130.78 746.482 1132.34C748.905 1133.87 751.814 1134.32 755.211 1133.71C760.18 1132.8 763.705 1129.92 765.787 1125.05C767.889 1120.19 768.219 1113.79 766.775 1105.87L766.272 1105.96C765.419 1107.93 764.302 1109.71 762.92 1111.28C761.539 1112.85 759.926 1114.16 758.081 1115.21C756.236 1116.27 754.203 1116.99 751.981 1117.4C748.291 1118.07 744.739 1117.78 741.324 1116.51C737.927 1115.23 735.014 1113.15 732.585 1110.27C730.173 1107.38 728.589 1103.85 727.833 1099.7C727.115 1095.76 727.338 1091.99 728.504 1088.4C729.686 1084.79 731.704 1081.71 734.556 1079.18C737.43 1076.64 741.053 1075.01 745.425 1074.27ZM746.685 1081.19C744.044 1081.67 741.784 1082.77 739.907 1084.47C738.048 1086.16 736.702 1088.22 735.87 1090.67C735.055 1093.09 734.891 1095.64 735.38 1098.33C735.869 1101.01 736.901 1103.35 738.476 1105.33C740.068 1107.3 742.01 1108.74 744.301 1109.67C746.61 1110.57 749.085 1110.78 751.727 1110.3C753.718 1109.93 755.503 1109.21 757.081 1108.12C758.655 1107.01 759.957 1105.66 760.988 1104.06C762.036 1102.44 762.768 1100.69 763.185 1098.82C763.598 1096.92 763.631 1095.02 763.283 1093.12C762.825 1090.6 761.787 1088.35 760.17 1086.37C758.574 1084.39 756.593 1082.91 754.228 1081.93C751.883 1080.95 749.369 1080.7 746.685 1081.19Z" fill="#E5050F"/>
<path d="M1122.22 607.794L1121.1 575.962L1169.11 574.298L1168.38 553.471L1106.99 555.599L1108.84 608.256L1122.22 607.794ZM1119.82 482.576L1114.92 463.093L1139.14 467.752L1119.82 482.576ZM1088.48 458.29L1100.44 460.393L1108.16 491.134L1098.51 498.239L1104.07 520.349L1156.33 476.33L1150.8 454.303L1083.49 438.388L1088.48 458.29ZM1036.53 340.633L1045.78 357.908L1082.31 338.621L1058.44 381.545L1071.1 405.18L1125.34 376.547L1116.08 359.269L1079.7 378.479L1102.99 334.812L1090.77 311.999L1036.53 340.633ZM999.918 242.956C1009.58 234.618 1019.06 234.738 1025.89 242.539C1033.28 250.979 1031.97 260.072 1021.93 268.744C1012.72 276.691 1004.21 276.402 996.769 267.898C989.435 259.522 990.449 251.126 999.918 242.956ZM986.748 275.197C1003.82 294.697 1020.79 297.786 1036.31 284.392C1052.09 270.778 1052.03 253.54 1035.74 234.935C1019.28 216.138 1001.7 213.359 986.502 226.474C970.79 240.031 970.739 256.913 986.748 275.197ZM914.383 205.366L930.923 218.196L968.744 170.132L952.205 157.304L914.383 205.366ZM879.238 133.477L898.192 143.91C904.279 131.084 898.062 119.335 879.478 109.11C857.987 97.2816 840.365 101.238 830.23 119.392C821.045 135.84 826.949 152.178 847.172 163.309C867.617 174.559 881.514 173.958 890.756 160.546L871.729 150.072C867.282 155.762 861.356 156.764 854.644 153.068C845.465 148.016 843.54 139.404 849.373 128.956C855.455 118.067 864.102 114.98 873.354 120.073C879.179 123.276 881.162 127.758 879.238 133.477ZM759.788 99.2052L740.257 94.0104L756.098 75.2472L759.788 99.2052ZM723.205 114.641L730.856 105.278L761.681 113.478L763.261 125.299L785.434 131.197L771.992 64.4772L749.904 58.6008L703.25 109.332L723.205 114.641ZM595.536 101.819L615.242 101.552L615.352 60.4752L641.587 101.718L668.548 103.698L672.07 41.2032L652.36 41.1636L649.193 82.0728L621.713 40.3788L595.693 40.2288L595.536 101.819ZM501.126 63.1296L512.638 61.1148C518.183 60.144 520.902 61.3032 521.686 65.724C522.426 69.8952 520.234 72.174 514.772 73.128L503.26 75.1452L501.126 63.1296ZM489.38 114.56L509.632 111.014L505.453 87.4884L518.226 85.2528C524.024 84.2376 526.286 84.7884 527.676 90.654L529.746 98.892C530.446 101.867 531.271 104.561 532.657 106.984L553.661 103.308C551.516 99.0384 550.236 95.7372 549.6 93.6096L546.745 83.874C544.526 76.2648 540.102 74.286 530.435 75.4632C539.881 73.0344 544.464 66.6396 543.085 58.8828C542.136 53.5428 539.166 49.5048 535.124 47.718C530.053 45.5076 523.248 46.7004 513.418 48.4224L478.712 54.4968L489.38 114.56ZM396.176 146.579L448.508 126.634L443.708 114.217L410.573 126.845L406.294 115.775L435.845 104.512L431.168 92.412L401.615 103.675L398.099 94.5804L430.04 82.4064L425.299 70.1472L374.161 89.6364L396.176 146.579ZM322.286 189.13L340.086 178.087L314.676 137.714L334.068 125.682L326.923 114.332L270.342 149.435L277.484 160.787L296.876 148.754L322.286 189.13ZM220.786 280.98L234.478 266.905L204.712 238.364L253.211 247.649L271.939 228.392L227.748 186.023L214.058 200.1L243.701 228.522L194.675 220.027L176.597 238.613L220.786 280.98ZM182.543 335.317L193.974 317.84L142.454 284.622L131.022 302.099L182.543 335.317ZM159.734 376.43L146.586 370.345L138.761 387.004L151.909 393.09L159.734 376.43ZM100.6 411.091L107.658 390.745C93.8796 387.02 83.3028 395.143 76.3848 415.087C68.3856 438.152 75.3684 454.697 95.136 461.454C113.045 467.576 128.228 458.97 135.755 437.264C143.368 415.32 140.356 401.834 125.448 395.128L118.364 415.553C124.781 418.912 126.802 424.529 124.302 431.736C120.886 441.589 112.676 444.962 101.3 441.076C89.4432 437.021 84.8784 429.101 88.3248 419.168C90.4908 412.921 94.5948 410.2 100.6 411.091ZM114.378 514.858L100.013 512.852L97.4376 531.054L111.799 533.06L114.378 514.858ZM87.2208 585.492L86.5128 605.558L87.4536 605.591C102.035 606.096 108.181 596.816 108.917 575.905C109.692 553.895 102.917 542.134 90.6396 541.706C85.1844 541.518 80.412 543.64 77.2848 547.6C73.4388 552.553 71.7636 558.936 69.7896 566.496C66.9276 577.501 66.2316 582.647 61.8816 582.496C59.07 582.398 57.474 579.209 57.6828 573.282C57.9444 565.831 60.384 562.015 64.5636 562.162L64.818 562.17L65.49 543.121L64.8084 543.098C52.3584 542.665 46.3068 552.118 45.6036 572.099C44.88 592.67 51.072 603.48 63.096 603.898C67.956 604.066 72.0216 602.597 75.0324 599.479C79.992 594.397 81.8124 586.324 84.5832 575.569C86.7576 567.168 87.504 562.871 91.5972 563.012C94.8384 563.124 96.8376 566.923 96.606 573.528C96.3096 581.909 93.9528 585.894 89.0892 585.727C88.4928 585.706 87.8988 585.602 87.2208 585.492Z" fill="#E5050F"/>
</svg>
