<?xml version="1.0" encoding="utf-8"?>
<!-- Generator: Adobe Illustrator 25.0.0, SVG Export Plug-In . SVG Version: 6.00 Build 0)  -->
<svg version="1.1" id="Layer_1" xmlns="http://www.w3.org/2000/svg" xmlns:xlink="http://www.w3.org/1999/xlink" x="0px" y="0px"
	 viewBox="0 0 542.8 542.2" style="enable-background:new 0 0 542.8 542.2;" xml:space="preserve">
<style type="text/css">
	.st0{fill:#FFFFFF;}
	.st1{fill:#ED1C24;}
</style>
<g>
	<polygon points="0,0 0,210.2 271.4,542.2 542.8,210.2 542.8,0 	"/>
	<polygon class="st0" points="3.6,3.6 3.6,209 271.4,536.5 539.2,209 539.2,3.6 	"/>
	<polygon points="314.6,198.6 314.6,439.7 511.8,198.6 	"/>
	<polygon class="st1" points="31,198.6 228.2,439.7 228.2,198.6 	"/>
	<rect x="31" y="28.4" width="480.9" height="144.5"/>
	<g>
		<path class="st0" d="M490.6,85.6V70.5c0-11.1-9.1-20.2-20.2-20.2h-50.9c-11.1,0-20.2,9.1-20.2,20.2v60.5
			c0,11.1,9.1,20.2,20.2,20.2h50.9c11.1,0,20.2-9.1,20.2-20.2v-15.1h-20.2v10.1c0,2.8-2.2,5-5,5h-40.9c-2.8,0-5-2.2-5-5V75.5
			c0-2.8,2.2-5,5-5h40.9c2.8,0,5,2.2,5,5v10.1C470.4,85.6,490.6,85.6,490.6,85.6z"/>
		<path class="st0" d="M52.3,70.5v20.2c0,11.1,9,20.2,20.2,20.2h45.9c2.7,0,5,2.2,5,5v10.1c0,2.8-2.3,5-5,5H52.3v20.2h71.1
			c11.1,0,20.2-9.1,20.2-20.2v-20.2c0-11.1-9.1-20.2-20.2-20.2H77.5c-2.8,0-5-2.2-5-5V75.5c0-2.8,2.2-5,5-5h66.1V50.3H72.4
			C61.3,50.3,52.3,59.4,52.3,70.5"/>
		<path class="st0" d="M239.1,50.3H168v100.8h20.2v-40.3h50.9c11.1,0,20.1-9.1,20.1-20.2V70.5C259.2,59.4,250.2,50.3,239.1,50.3
			 M239.1,85.6c0,2.8-2.3,5-5,5h-45.9V70.5h45.9c2.7,0,5,2.3,5,5L239.1,85.6L239.1,85.6z"/>
		<polygon class="st0" points="283.6,151.1 303.8,151.1 303.8,110.8 354.7,110.8 354.7,90.6 303.8,90.6 303.8,70.5 374.9,70.5 
			374.9,50.3 283.6,50.3 		"/>
	</g>
</g>
</svg>
